<?xml version="1.0" encoding="utf-8"?>
<!-- Generator: Adobe Illustrator 16.0.0, SVG Export Plug-In . SVG Version: 6.00 Build 0)  -->
<!DOCTYPE svg PUBLIC "-//W3C//DTD SVG 1.1//EN" "http://www.w3.org/Graphics/SVG/1.1/DTD/svg11.dtd">
<svg version="1.1" id="Layer_1" xmlns="http://www.w3.org/2000/svg" xmlns:xlink="http://www.w3.org/1999/xlink" x="0px" y="0px"
	 width="520px" height="520px" viewBox="0 0 520 520" enable-background="new 0 0 520 520" xml:space="preserve">
<g>
	<g>
		<g>
			<g>
				<path d="M515.979,420.061c-0.01-0.068,0-0.148-0.01-0.221c-0.027-0.3-0.068-0.59-0.13-0.88c-0.01-0.021-0.021-0.05-0.021-0.08
					c-0.061-0.26-0.141-0.521-0.221-0.771c-0.021-0.069-0.051-0.13-0.08-0.199c-0.078-0.221-0.17-0.45-0.278-0.66
					c-0.021-0.04-0.03-0.08-0.05-0.12l-40.11-79.108v-260.3c0-8.011-6.511-14.521-14.521-14.521H59.44
					c-8,0-14.51,6.511-14.51,14.521v260.291L4.81,417.13c-0.01,0.04-0.029,0.08-0.039,0.12c-0.11,0.21-0.201,0.439-0.291,0.66
					c-0.02,0.069-0.049,0.13-0.069,0.199c-0.091,0.25-0.16,0.511-0.22,0.771c-0.01,0.03-0.01,0.051-0.021,0.08
					c-0.06,0.29-0.101,0.58-0.13,0.87c-0.01,0.08-0.01,0.149-0.01,0.229C4.021,420.21,4,420.37,4,420.53v19.02
					c0,9.511,7.74,17.25,17.25,17.25h477.511c9.511,0,17.239-7.739,17.239-17.25v-19.02C516,420.37,515.99,420.21,515.979,420.061z
					 M59.931,78.199H460.08v254.11H59.931V78.199z M57.03,347.311h405.94l33.32,65.711H331.511l-8.271-29.979
					c-1.683-6.109-7.28-10.37-13.61-10.37h-99.25c-6.33,0-11.93,4.261-13.619,10.36l-8.271,29.988H23.71L57.03,347.311z
					 M315.95,413.03H204.06l6.99-25.36h97.91L315.95,413.03z M501,439.55c0,1.24-1,2.24-2.239,2.24H21.25c-1.239,0-2.25-1-2.25-2.24
					v-11.528h482V439.55z"/>
			</g>
		</g>
		<g>
			<g>
				<path fill="#C71C24" d="M444.08,105.96c0-6.489-5.271-11.761-11.761-11.761H87.69c-6.49,0-11.76,5.271-11.76,11.761v116.07
					c0,0.549,0.06,1.09,0.18,1.608c-0.12,0.521-0.18,1.062-0.18,1.609v79.3c0,6.48,5.27,11.762,11.76,11.762h344.629
					c6.488,0,11.761-5.281,11.761-11.762v-79.3c0-0.55-0.062-1.091-0.181-1.609c0.119-0.521,0.181-1.062,0.181-1.608V105.96z
					 M429.08,225.25v76.062H90.931V225.25c0-0.55-0.061-1.091-0.181-1.608c0.12-0.521,0.181-1.063,0.181-1.609V109.199H429.08
					V222.03c0,0.549,0.06,1.09,0.181,1.608C429.14,224.159,429.08,224.7,429.08,225.25z"/>
			</g>
		</g>
	</g>
	<g>
		<polygon fill="#C71C24" points="90.989,272.321 90.989,297.079 216.249,171.819 320.799,276.36 356.198,240.95 416.429,301.182 
			429.069,301.182 429.069,288.84 368.688,228.46 356.409,216.181 343.919,228.67 320.948,251.642 228.688,159.38 216.309,147 
			203.868,159.439 		"/>
		<g>
			<g>
				<path fill="#C71C24" d="M321.525,161.654c0,19.232,15.646,34.879,34.88,34.879c19.231,0,34.88-15.646,34.88-34.879
					c0-19.232-15.647-34.88-34.88-34.88C337.172,126.774,321.525,142.422,321.525,161.654z M338.966,161.654
					c0-9.617,7.823-17.439,17.439-17.439s17.438,7.822,17.438,17.439c0,9.616-7.821,17.439-17.438,17.439
					S338.966,171.271,338.966,161.654z"/>
			</g>
		</g>
	</g>
</g>
</svg>
