<?xml version="1.0" encoding="utf-8"?>
<!-- Generator: Adobe Illustrator 16.0.0, SVG Export Plug-In . SVG Version: 6.00 Build 0)  -->
<!DOCTYPE svg PUBLIC "-//W3C//DTD SVG 1.1//EN" "http://www.w3.org/Graphics/SVG/1.1/DTD/svg11.dtd">
<svg version="1.1" id="Layer_1" xmlns="http://www.w3.org/2000/svg" xmlns:xlink="http://www.w3.org/1999/xlink" x="0px" y="0px"
	 width="520px" height="520px" viewBox="0 0 520 520" enable-background="new 0 0 520 520" xml:space="preserve">
<g>
	<g>
		<g>
			<g>
				<path d="M515.979,483.261c-0.01-0.069,0-0.149-0.01-0.221c-0.028-0.3-0.069-0.59-0.13-0.88c-0.01-0.02-0.021-0.05-0.021-0.08
					c-0.06-0.26-0.14-0.52-0.22-0.77c-0.021-0.07-0.051-0.13-0.08-0.2c-0.079-0.22-0.17-0.45-0.279-0.66
					c-0.021-0.04-0.03-0.08-0.05-0.12l-40.11-79.108v-260.3c0-8.011-6.511-14.521-14.521-14.521H59.44c-8,0-14.51,6.51-14.51,14.521
					v260.291L4.81,480.33c-0.01,0.04-0.029,0.08-0.039,0.12c-0.11,0.21-0.201,0.44-0.291,0.66c-0.02,0.07-0.049,0.13-0.069,0.2
					c-0.091,0.25-0.16,0.51-0.22,0.77c-0.01,0.03-0.01,0.051-0.021,0.08c-0.06,0.29-0.101,0.58-0.13,0.87
					c-0.01,0.08-0.01,0.15-0.01,0.229C4.021,483.41,4,483.57,4,483.73v19.02C4,512.261,11.74,520,21.25,520h477.511
					c9.511,0,17.239-7.739,17.239-17.25v-19.02C516,483.57,515.99,483.41,515.979,483.261z M59.931,141.4H460.08v254.11H59.931
					V141.4z M57.03,410.511h405.94l33.32,65.711H331.511l-8.271-29.98c-1.682-6.109-7.28-10.37-13.61-10.37h-99.25
					c-6.33,0-11.93,4.261-13.619,10.36l-8.271,29.989H23.71L57.03,410.511z M315.95,476.23H204.06l6.99-25.36h97.91L315.95,476.23z
					 M501,502.75c0,1.24-1,2.24-2.239,2.24H21.25c-1.239,0-2.25-1-2.25-2.24v-11.528h482V502.75z"/>
			</g>
		</g>
		<g>
			<g>
				<path fill="#C71C24" d="M444.08,169.16c0-6.489-5.271-11.76-11.761-11.76H87.69c-6.49,0-11.76,5.271-11.76,11.76v116.07
					c0,0.55,0.06,1.09,0.18,1.609c-0.12,0.521-0.18,1.061-0.18,1.609v79.3c0,6.48,5.27,11.762,11.76,11.762h344.629
					c6.489,0,11.761-5.281,11.761-11.762v-79.3c0-0.55-0.061-1.09-0.181-1.609c0.12-0.521,0.181-1.061,0.181-1.609V169.16z
					 M429.08,288.45v76.061H90.931V288.45c0-0.55-0.061-1.09-0.181-1.608c0.12-0.521,0.181-1.062,0.181-1.61V172.4H429.08v112.83
					c0,0.55,0.06,1.09,0.181,1.609C429.14,287.36,429.08,287.9,429.08,288.45z"/>
			</g>
		</g>
	</g>
	<g>
		<polygon fill="#C71C24" points="90.989,335.521 90.989,360.28 216.249,235.02 320.799,339.56 356.198,304.15 416.429,364.382 
			429.069,364.382 429.069,352.04 368.688,291.66 356.409,279.381 343.919,291.87 320.948,314.842 228.688,222.58 216.309,210.2 
			203.868,222.64 		"/>
		<g>
			<g>
				<path fill="#C71C24" d="M321.525,224.855c0,19.232,15.646,34.879,34.88,34.879c19.232,0,34.88-15.646,34.88-34.879
					c0-19.233-15.647-34.88-34.88-34.88C337.172,189.975,321.525,205.622,321.525,224.855z M338.966,224.855
					c0-9.617,7.823-17.44,17.439-17.44s17.438,7.823,17.438,17.44c0,9.616-7.822,17.439-17.438,17.439
					S338.966,234.471,338.966,224.855z"/>
			</g>
		</g>
	</g>
</g>
</svg>
