<?xml version="1.0" encoding="utf-8"?>
<!-- Generator: Adobe Illustrator 16.0.0, SVG Export Plug-In . SVG Version: 6.00 Build 0)  -->
<!DOCTYPE svg PUBLIC "-//W3C//DTD SVG 1.1//EN" "http://www.w3.org/Graphics/SVG/1.1/DTD/svg11.dtd">
<svg version="1.1" id="Layer_1" xmlns="http://www.w3.org/2000/svg" xmlns:xlink="http://www.w3.org/1999/xlink" x="0px" y="0px"
	 width="520px" height="520px" viewBox="0 0 520 520" enable-background="new 0 0 520 520" xml:space="preserve">
<g>
	<g id="_x30_12---Stanley-Knife_1_">
		<g>
			<path d="M473.253,178.531c0.01-4.45-2.39-8.61-6.26-10.83l-5.2-2.97l-13.489-7.71l-15.83-9.03
				c-3.761-2.142-8.608-2.13-12.358,0.04l-15.86,9.06l-13.41,7.58c-2.8,1.34-5.42,3.01-7.789,5l-0.08,0.07
				c-2.318,2.42-3.551,5.59-3.479,8.91l-0.04,143.979c-0.05,25.398-5.96,50.879-17.09,73.699c-9.07,18.721-7.45,41.051,4.21,58.26
				c10.88,16.08,28.96,25.67,48.38,25.67c1.38,0,2.771-0.049,4.16-0.139c31.01-2.602,54.989-29,54.579-60.111L473.253,178.531z
				 M459.843,419.62c0.4,24.079-18.068,44.59-42.05,46.688c-1.01,0.063-2.021,0.101-3.021,0.101
				c-14.971,0-28.909-7.399-37.301-19.778c-8.949-13.211-10.221-30.359-3.329-44.74c12.068-24.59,18.521-52.068,18.648-79.471
				l-0.17-143.209l33.69-19.3l33.527,19.13v240.581L459.843,419.62L459.843,419.62z"/>
			<path fill="#C71C24" d="M461.793,164.731l-0.05-97.882c0.05-2.81-1.68-5.38-4.301-6.38l-50.67-20.21l-0.141-0.04
				c-1.121-0.318-2.291-0.479-3.451-0.479c-3.317,0-6.438,1.28-8.777,3.63c-2.03,2.03-3.261,4.61-3.551,7.46l-0.012,113.84
				l13.41-7.58v-34.358l44.12,17.608l-0.069,16.682L461.793,164.731z M404.363,53.571l43.97,17.77l-0.04,20.12l-44-17.66
				L404.363,53.571z M448.343,125.89l-44.13-17.608v-20.07l44.13,17.61V125.89z"/>
			<path d="M443.331,442.673c-5.701,7.604-14.389,12.516-23.835,13.494c-0.275,0.039-0.589,0.059-0.912,0.059
				c-2.063,0-3.992-0.932-5.266-2.557c-1.476-1.873-1.834-4.42-0.95-6.636c0.894-2.214,2.908-3.802,5.272-4.136
				c5.864-0.652,11.233-3.725,14.762-8.418c3.524-4.705,4.971-10.713,3.953-16.5c-0.306-2.107,0.407-4.237,1.892-5.721
				c1.264-1.264,2.946-1.959,4.732-1.959c0.723,0,1.436,0.115,2.117,0.344c2.426,0.808,4.154,2.879,4.517,5.406
				C451.314,425.356,449.034,435.079,443.331,442.673z"/>
			<path d="M444.985,226.377c-3.434-3.44-8.002-5.332-12.906-5.332l-11.537,0.085c-10.027,0-18.191,8.165-18.191,18.188v17.24
				c0,5.018,2.11,9.779,5.816,13.154l-0.047,77.836c0,3.336,1.292,6.463,3.649,8.818c2.354,2.348,5.474,3.641,8.8,3.641h0.01
				l11.519-0.039c3.327,0,6.453-1.291,8.803-3.648c2.355-2.348,3.647-5.483,3.647-8.811v-77.807
				c3.643-3.402,5.74-8.186,5.771-13.184V239.28C450.326,234.405,448.436,229.825,444.985,226.377z M421.567,346.522v-71.855
				l9.333-0.076l0.274,71.973L421.567,346.522z M435.453,259.981c-0.903,0.873-2.091,1.357-3.412,1.357l-11.519,0.039
				c-1.283,0-2.49-0.494-3.402-1.406c-0.896-0.896-1.406-2.141-1.406-3.412v-17.25c0-1.264,0.513-2.508,1.406-3.408
				c0.894-0.896,2.139-1.408,3.402-1.408v-0.949l0.02,0.949l11.499,0.049c2.632,0,4.78,2.146,4.79,4.779
				c0,3.754,0.019,6.775,0.037,9.229C436.944,258.202,436.907,258.528,435.453,259.981z"/>
		</g>
	</g>
	<g>
		<g>
			<g>
				<path d="M303.085,56.439H82.868c-20.165,0-36.569,16.401-36.569,36.563v298.995c0,20.166,16.404,36.568,36.57,36.568h220.217
					c20.165,0,36.569-16.402,36.569-36.568V93.003C339.654,72.842,323.249,56.439,303.085,56.439z M325.061,391.996
					c0,12.116-9.857,21.978-21.977,21.978H82.868c-12.118,0-21.977-9.858-21.977-21.978V93.003c0-12.114,9.858-21.97,21.977-21.97
					h220.217c12.117,0,21.979,9.854,21.979,21.97v298.994L325.061,391.996L325.061,391.996z"/>
			</g>
		</g>
		<g>
			<g>
				<path fill="#C71C24" d="M290.514,99.059H95.447c-4.028,0-7.295,3.269-7.295,7.297v81.318c0,4.031,3.268,7.297,7.295,7.297
					h195.066c4.027,0,7.295-3.268,7.295-7.297v-81.319C297.809,102.326,294.542,99.059,290.514,99.059z M283.216,180.379H102.744
					v-66.728h180.472V180.379L283.216,180.379z"/>
			</g>
		</g>
		<g>
			<g>
				<path d="M136.424,223.545H95.447c-4.028,0-7.295,3.269-7.295,7.297v26.554c0,4.026,3.268,7.295,7.295,7.295h40.978
					c4.029,0,7.297-3.269,7.297-7.297v-26.552C143.721,226.812,140.454,223.545,136.424,223.545z M129.128,250.098h-26.385v-11.961
					h26.385V250.098L129.128,250.098z"/>
			</g>
		</g>
		<g>
			<g>
				<path d="M214.454,223.545H173.47c-4.029,0-7.296,3.269-7.296,7.297v26.554c0,4.026,3.267,7.295,7.296,7.295h40.984
					c4.029,0,7.296-3.269,7.296-7.295v-26.554C221.75,226.812,218.484,223.545,214.454,223.545z M207.157,250.096h-26.392v-11.959
					h26.392V250.096z"/>
			</g>
		</g>
		<g>
			<g>
				<path d="M292.477,223.545H251.5c-4.029,0-7.297,3.269-7.297,7.297v26.554c0,4.026,3.268,7.295,7.297,7.295h40.977
					c4.028,0,7.297-3.269,7.297-7.295v-26.554C299.771,226.812,296.505,223.545,292.477,223.545z M285.18,250.096h-26.384v-11.959
					h26.384V250.096z"/>
			</g>
		</g>
		<g>
			<g>
				<path d="M136.424,283.192H95.447c-4.028,0-7.295,3.27-7.295,7.299v26.557c0,4.029,3.268,7.295,7.295,7.295h40.978
					c4.029,0,7.297-3.268,7.297-7.295v-26.557C143.721,286.461,140.454,283.192,136.424,283.192z M129.128,309.748h-26.385v-11.964
					h26.385V309.748L129.128,309.748z"/>
			</g>
		</g>
		<g>
			<g>
				<path d="M214.454,283.192H173.47c-4.029,0-7.296,3.27-7.296,7.299v26.557c0,4.029,3.267,7.297,7.296,7.297h40.984
					c4.029,0,7.296-3.268,7.296-7.297v-26.557C221.75,286.459,218.484,283.192,214.454,283.192z M207.157,309.748h-26.392v-11.964
					h26.392V309.748z"/>
			</g>
		</g>
		<g>
			<g>
				<path d="M136.424,342.846H95.447c-4.028,0-7.295,3.269-7.295,7.297v26.554c0,4.028,3.268,7.295,7.295,7.295h40.978
					c4.029,0,7.297-3.269,7.297-7.295v-26.554C143.721,346.112,140.454,342.846,136.424,342.846z M129.128,369.398h-26.385v-11.959
					h26.385V369.398L129.128,369.398z"/>
			</g>
		</g>
		<g>
			<g>
				<path d="M214.454,342.846H173.47c-4.029,0-7.296,3.269-7.296,7.297v26.554c0,4.028,3.267,7.297,7.296,7.297h40.984
					c4.029,0,7.296-3.269,7.296-7.297v-26.554C221.75,346.112,218.484,342.846,214.454,342.846z M207.157,369.398h-26.392v-11.959
					h26.392V369.398z"/>
			</g>
		</g>
		<g>
			<g>
				<path d="M292.477,283.192H251.5c-4.029,0-7.297,3.27-7.297,7.299v86.205c0,4.028,3.268,7.295,7.297,7.295h40.977
					c4.028,0,7.297-3.269,7.297-7.295v-86.205C299.771,286.459,296.505,283.192,292.477,283.192z M285.18,369.398h-26.384v-71.612
					h26.384V369.398z"/>
			</g>
		</g>
	</g>
</g>
</svg>
