<?xml version="1.0" encoding="utf-8"?>
<!-- Generator: Adobe Illustrator 16.0.0, SVG Export Plug-In . SVG Version: 6.00 Build 0)  -->
<!DOCTYPE svg PUBLIC "-//W3C//DTD SVG 1.1//EN" "http://www.w3.org/Graphics/SVG/1.1/DTD/svg11.dtd">
<svg version="1.1" id="Layer_1" xmlns="http://www.w3.org/2000/svg" xmlns:xlink="http://www.w3.org/1999/xlink" x="0px" y="0px"
	 width="520px" height="520px" viewBox="0 0 520 520" enable-background="new 0 0 520 520" xml:space="preserve">
<g>
	<g id="_x30_12---Stanley-Knife_1_">
		<g>
			<path d="M473.255,218.272c0.01-4.45-2.39-8.61-6.26-10.83l-5.2-2.97l-13.489-7.71l-15.83-9.03
				c-3.761-2.141-8.609-2.13-12.359,0.04l-15.86,9.06l-13.41,7.58c-2.8,1.34-5.42,3.01-7.789,5l-0.08,0.07
				c-2.319,2.42-3.551,5.59-3.479,8.91l-0.04,143.979c-0.05,25.399-5.96,50.879-17.09,73.699c-9.07,18.721-7.45,41.051,4.21,58.26
				c10.88,16.08,28.96,25.67,48.38,25.67c1.38,0,2.771-0.049,4.16-0.139c31.01-2.601,54.989-29,54.579-60.111L473.255,218.272z
				 M459.845,459.361c0.4,24.079-18.069,44.59-42.05,46.688c-1.01,0.062-2.021,0.1-3.021,0.1c-14.97,0-28.909-7.399-37.3-19.778
				c-8.95-13.211-10.221-30.359-3.33-44.74c12.069-24.59,18.521-52.069,18.649-79.471l-0.17-143.209l33.69-19.3l33.528,19.13
				v240.581H459.845z"/>
			<path fill="#C71C24" d="M461.795,204.472l-0.05-97.881c0.05-2.81-1.68-5.38-4.301-6.38l-50.67-20.21l-0.14-0.04
				c-1.121-0.319-2.291-0.479-3.451-0.479c-3.318,0-6.438,1.28-8.778,3.63c-2.03,2.03-3.26,4.61-3.551,7.46l-0.011,113.84
				l13.41-7.58v-34.359l44.12,17.609l-0.069,16.681L461.795,204.472z M404.365,93.312l43.97,17.77l-0.04,20.12l-44-17.66
				L404.365,93.312z M448.345,165.631l-44.13-17.609v-20.07l44.13,17.61V165.631z"/>
			<path d="M443.333,482.414c-5.701,7.604-14.389,12.516-23.835,13.494c-0.275,0.039-0.589,0.059-0.912,0.059
				c-2.063,0-3.992-0.932-5.266-2.557c-1.475-1.873-1.834-4.42-0.95-6.636c0.894-2.213,2.908-3.801,5.273-4.135
				c5.864-0.653,11.233-3.725,14.761-8.418c3.525-4.705,4.971-10.713,3.953-16.5c-0.305-2.108,0.408-4.238,1.892-5.721
				c1.264-1.264,2.946-1.959,4.732-1.959c0.723,0,1.436,0.115,2.118,0.344c2.425,0.807,4.154,2.879,4.516,5.406
				C451.316,465.098,449.036,474.82,443.333,482.414z"/>
			<path d="M444.987,266.118c-3.433-3.44-8.002-5.332-12.906-5.332l-11.537,0.085c-10.027,0-18.191,8.165-18.191,18.188v17.24
				c0,5.018,2.11,9.779,5.816,13.154l-0.047,77.836c0,3.336,1.292,6.463,3.649,8.818c2.355,2.348,5.474,3.641,8.8,3.641h0.01
				l11.519-0.039c3.327,0,6.453-1.291,8.802-3.648c2.356-2.348,3.648-5.484,3.648-8.811v-77.807c3.642-3.402,5.74-8.185,5.77-13.183
				v-17.239C450.328,274.147,448.438,269.566,444.987,266.118z M421.569,386.264v-71.856l9.333-0.076l0.275,71.973L421.569,386.264z
				 M435.455,299.723c-0.903,0.873-2.091,1.357-3.412,1.357l-11.519,0.039c-1.283,0-2.49-0.494-3.402-1.406
				c-0.895-0.896-1.406-2.14-1.406-3.412v-17.25c0-1.264,0.513-2.508,1.406-3.409c0.894-0.896,2.139-1.408,3.402-1.408v-0.949
				l0.02,0.949l11.499,0.049c2.632,0,4.78,2.146,4.79,4.779c0,3.754,0.019,6.776,0.037,9.229
				C436.946,297.944,436.909,298.269,435.455,299.723z"/>
		</g>
	</g>
	<g>
		<g>
			<g>
				<path d="M303.087,96.18H82.87c-20.165,0-36.569,16.402-36.569,36.563v298.995c0,20.166,16.404,36.569,36.57,36.569h220.217
					c20.165,0,36.569-16.403,36.569-36.569V132.744C339.656,112.583,323.251,96.18,303.087,96.18z M325.063,431.737
					c0,12.117-9.858,21.978-21.977,21.978H82.87c-12.118,0-21.977-9.859-21.977-21.978V132.744c0-12.114,9.858-21.97,21.977-21.97
					h220.217c12.117,0,21.978,9.855,21.978,21.97v298.994H325.063z"/>
			</g>
		</g>
		<g>
			<g>
				<path fill="#C71C24" d="M290.516,138.8H95.449c-4.028,0-7.295,3.268-7.295,7.296v81.319c0,4.031,3.268,7.297,7.295,7.297
					h195.066c4.028,0,7.295-3.268,7.295-7.297v-81.32C297.811,142.067,294.544,138.8,290.516,138.8z M283.218,220.12H102.746
					v-66.728h180.472V220.12L283.218,220.12z"/>
			</g>
		</g>
		<g>
			<g>
				<path d="M136.426,263.286H95.449c-4.028,0-7.295,3.268-7.295,7.297v26.553c0,4.027,3.268,7.295,7.295,7.295h40.978
					c4.029,0,7.297-3.268,7.297-7.296v-26.552C143.723,266.553,140.456,263.286,136.426,263.286z M129.13,289.839h-26.385v-11.961
					h26.385V289.839L129.13,289.839z"/>
			</g>
		</g>
		<g>
			<g>
				<path d="M214.456,263.286h-40.984c-4.029,0-7.296,3.268-7.296,7.297v26.553c0,4.027,3.267,7.296,7.296,7.296h40.984
					c4.029,0,7.296-3.269,7.296-7.296v-26.553C221.752,266.553,218.486,263.286,214.456,263.286z M207.159,289.837h-26.392v-11.959
					h26.392V289.837z"/>
			</g>
		</g>
		<g>
			<g>
				<path d="M292.479,263.286h-40.977c-4.029,0-7.297,3.268-7.297,7.297v26.553c0,4.027,3.268,7.296,7.297,7.296h40.977
					c4.028,0,7.297-3.269,7.297-7.296v-26.553C299.773,266.553,296.507,263.286,292.479,263.286z M285.182,289.837h-26.384v-11.959
					h26.384V289.837z"/>
			</g>
		</g>
		<g>
			<g>
				<path d="M136.426,322.934H95.449c-4.028,0-7.295,3.269-7.295,7.298v26.557c0,4.029,3.268,7.295,7.295,7.295h40.978
					c4.029,0,7.297-3.268,7.297-7.295v-26.557C143.723,326.202,140.456,322.934,136.426,322.934z M129.13,349.489h-26.385v-11.963
					h26.385V349.489L129.13,349.489z"/>
			</g>
		</g>
		<g>
			<g>
				<path d="M214.456,322.934h-40.984c-4.029,0-7.296,3.269-7.296,7.298v26.557c0,4.029,3.267,7.297,7.296,7.297h40.984
					c4.029,0,7.296-3.268,7.296-7.297v-26.557C221.752,326.2,218.486,322.934,214.456,322.934z M207.159,349.489h-26.392v-11.963
					h26.392V349.489z"/>
			</g>
		</g>
		<g>
			<g>
				<path d="M136.426,382.587H95.449c-4.028,0-7.295,3.268-7.295,7.297v26.553c0,4.029,3.268,7.295,7.295,7.295h40.978
					c4.029,0,7.297-3.268,7.297-7.295v-26.553C143.723,385.854,140.456,382.587,136.426,382.587z M129.13,409.14h-26.385v-11.959
					h26.385V409.14L129.13,409.14z"/>
			</g>
		</g>
		<g>
			<g>
				<path d="M214.456,382.587h-40.984c-4.029,0-7.296,3.268-7.296,7.297v26.553c0,4.029,3.267,7.297,7.296,7.297h40.984
					c4.029,0,7.296-3.268,7.296-7.297v-26.553C221.752,385.854,218.486,382.587,214.456,382.587z M207.159,409.14h-26.392v-11.959
					h26.392V409.14z"/>
			</g>
		</g>
		<g>
			<g>
				<path d="M292.479,322.934h-40.977c-4.029,0-7.297,3.269-7.297,7.298v86.205c0,4.029,3.268,7.295,7.297,7.295h40.977
					c4.028,0,7.297-3.268,7.297-7.295v-86.205C299.773,326.2,296.507,322.934,292.479,322.934z M285.182,409.14h-26.384v-71.613
					h26.384V409.14z"/>
			</g>
		</g>
	</g>
</g>
</svg>
