<?xml version="1.0" encoding="utf-8"?>
<!-- Generator: Adobe Illustrator 16.0.0, SVG Export Plug-In . SVG Version: 6.00 Build 0)  -->
<!DOCTYPE svg PUBLIC "-//W3C//DTD SVG 1.1//EN" "http://www.w3.org/Graphics/SVG/1.1/DTD/svg11.dtd">
<svg version="1.1" id="Layer_1" xmlns="http://www.w3.org/2000/svg" xmlns:xlink="http://www.w3.org/1999/xlink" x="0px" y="0px"
	 width="520px" height="520px" viewBox="0 0 520 520" enable-background="new 0 0 520 520" xml:space="preserve">
<g>
	<g>
		<g>
			<g>
				<path d="M271.85,131.511c-22.82-9.44-53-14.64-84.99-14.64c-31.98,0-62.16,5.2-84.98,14.64
					c-24.86,10.28-38.56,24.76-38.56,40.75V432.75c0,15.99,13.7,30.462,38.56,40.75c22.82,9.44,53.01,14.642,84.98,14.642
					c31.98,0,62.16-5.2,84.99-14.642c24.86-10.288,38.562-24.76,38.562-40.75V172.261C310.41,156.271,296.71,141.791,271.85,131.511
					z M295.779,432.75c0,9.552-10.76,19.472-29.529,27.23c-21.09,8.72-49.28,13.53-79.38,13.53c-30.11,0-58.3-4.812-79.39-13.53
					c-18.77-7.76-29.53-17.68-29.53-27.23V227.84c0.33,0.28,0.66,0.55,1,0.82l0.08,0.06c0.23,0.19,0.46,0.37,0.68,0.53
					c0.87,0.69,1.73,1.32,2.6,1.93c0.43,0.31,0.87,0.61,1.32,0.91c0.06,0.05,0.11,0.09,0.15,0.11c0.49,0.33,1,0.66,1.51,0.99
					c0.44,0.28,0.88,0.56,1.33,0.83l0.33,0.21c0.54,0.32,1.09,0.65,1.65,0.97c0.57,0.33,1.16,0.67,1.73,0.98
					c0.49,0.27,0.99,0.54,1.49,0.8l0.32,0.17c0.71,0.38,1.44,0.75,2.19,1.12c0.51,0.25,1.02,0.5,1.54,0.75
					c0.41,0.2,0.82,0.39,1.23,0.57l0.13,0.07c0.26,0.12,0.52,0.24,0.78,0.35l0.09,0.04c0.48,0.22,0.98,0.44,1.46,0.65
					c0.16,0.08,0.33,0.15,0.5,0.22c0.6,0.26,1.21,0.52,1.82,0.77c22.81,9.44,53,14.64,84.98,14.64c31.99,0,62.17-5.2,84.98-14.64
					c0.62-0.25,1.24-0.51,1.87-0.78c0.16-0.07,0.32-0.14,0.45-0.2c0.49-0.22,0.99-0.44,1.46-0.65c0.3-0.13,0.59-0.26,0.851-0.39
					l0.221-0.1c0.39-0.18,0.779-0.36,1.17-0.55c0.52-0.25,1.039-0.5,1.55-0.75c0.739-0.37,1.47-0.74,2.26-1.16
					c0.58-0.31,1.16-0.61,1.71-0.92c0.59-0.32,1.18-0.66,1.76-0.99c0.562-0.32,1.11-0.65,1.65-0.98l0.25-0.16
					c0.479-0.29,0.939-0.58,1.4-0.87c0.51-0.33,1.02-0.66,1.43-0.94c0.08-0.05,0.16-0.1,0.229-0.15c0.45-0.31,0.892-0.61,1.312-0.91
					c0.89-0.62,1.75-1.26,2.59-1.92c0.24-0.17,0.46-0.35,0.69-0.53l0.09-0.08c0.34-0.26,0.67-0.54,0.988-0.81l0.012-0.01v204.91
					H295.779z M295.779,200.94c0,9.55-10.76,19.47-29.529,27.23c-21.08,8.73-49.28,13.53-79.38,13.53c-30.11,0-58.3-4.8-79.39-13.53
					c-18.77-7.75-29.53-17.68-29.53-27.23v-1.8c0.11,0.09,0.21,0.18,0.32,0.26c0.44,0.37,0.88,0.73,1.3,1.04
					c0.3,0.25,0.61,0.48,0.93,0.72c3.31,2.49,7.12,4.88,11.3,7.08c0.44,0.24,0.89,0.47,1.34,0.7c0.29,0.15,0.59,0.3,0.89,0.45
					l0.14,0.07c0.45,0.22,0.9,0.44,1.34,0.65c1.07,0.52,2.16,1.02,3.26,1.51c0.42,0.19,0.85,0.37,1.28,0.56l0.4,0.17
					c0.57,0.25,1.13,0.48,1.71,0.72c0.57,0.23,1.15,0.47,1.73,0.7c1.16,0.46,2.35,0.9,3.55,1.35c0.6,0.22,1.22,0.44,1.83,0.65
					l0.35,0.13c0.5,0.17,1,0.34,1.48,0.5c0.63,0.22,1.25,0.43,1.89,0.63c0.61,0.2,1.23,0.4,1.86,0.59c0.16,0.06,0.32,0.11,0.41,0.13
					c1.16,0.36,2.32,0.7,3.51,1.05c0.66,0.19,1.32,0.37,1.99,0.55l1.99,0.54c0.68,0.18,1.35,0.35,2.04,0.53
					c0.68,0.17,1.36,0.34,2.04,0.5c0.4,0.1,0.81,0.2,1.22,0.29c0.57,0.14,1.15,0.27,1.71,0.39c1.12,0.26,2.24,0.5,3.38,0.74
					c0.71,0.14,1.43,0.29,2.13,0.43c0.73,0.15,1.45,0.29,2.18,0.42l1.38,0.26c1.84,0.34,3.79,0.67,5.79,0.99l1.68,0.25
					c0.57,0.09,1.15,0.18,1.71,0.25l1.3,0.19c1.58,0.22,3.18,0.42,4.79,0.61l2.01,0.23c6.08,0.67,12.3,1.14,18.49,1.41
					c0.78,0.03,1.56,0.07,2.33,0.09c1.11,0.04,2.22,0.07,3.33,0.09c1.37,0.03,2.75,0.06,4.12,0.07c1.65,0.02,3.32,0.02,4.97,0
					c1.38-0.01,2.75-0.04,4.11-0.07c1.1-0.02,2.2-0.05,3.28-0.09c0.8-0.021,1.59-0.06,2.37-0.09c8.12-0.35,16.11-1.03,23.75-2.05
					c0.58-0.07,1.15-0.14,1.72-0.22c0.96-0.14,1.91-0.27,2.83-0.42c0.67-0.09,1.34-0.19,1.99-0.3c1.98-0.31,3.72-0.61,5.31-0.91
					c0.53-0.09,1.05-0.18,1.57-0.29c1.46-0.27,2.89-0.55,4.31-0.85c1.14-0.24,2.27-0.48,3.36-0.73c0.58-0.13,1.16-0.26,1.72-0.4
					c0.42-0.09,0.83-0.19,1.21-0.29c0.7-0.16,1.38-0.33,2.06-0.5c0.69-0.18,1.36-0.35,2.04-0.53l1.99-0.54
					c0.67-0.18,1.34-0.36,1.98-0.55c2.03-0.58,3.98-1.17,5.79-1.77c0.64-0.2,1.27-0.41,1.869-0.62c0.479-0.16,0.971-0.33,1.449-0.5
					l0.4-0.14c0.609-0.21,1.23-0.43,1.83-0.65c1.2-0.45,2.38-0.89,3.55-1.35c1.17-0.47,2.312-0.94,3.44-1.42l0.39-0.17
					c0.44-0.18,0.87-0.37,1.261-0.55c0.579-0.25,1.149-0.51,1.739-0.78c0.511-0.24,1.021-0.48,1.521-0.72
					c0.529-0.25,1.061-0.51,1.59-0.78l0.41-0.21c0.311-0.15,0.609-0.31,0.91-0.46l0.17-0.09c0.529-0.28,1.069-0.56,1.569-0.84
					c0.49-0.26,0.979-0.53,1.45-0.8c0.45-0.24,0.891-0.5,1.32-0.76c2.52-1.47,4.89-3.01,7.039-4.6l0.141-0.1
					c0.221-0.16,0.439-0.33,0.66-0.49c0.689-0.53,1.35-1.05,2-1.58c0.109-0.09,0.22-0.18,0.33-0.27V200.94L295.779,200.94z
					 M291.99,182.19c-13.69,18.15-56.92,30.82-105.12,30.82c-48.21,0-91.44-12.67-105.13-30.82c-2.51-3.33-3.79-6.67-3.79-9.94
					c0-9.54,10.76-19.47,29.53-27.23c21.09-8.72,49.28-13.52,79.39-13.52c30.1,0,58.3,4.8,79.38,13.52
					c18.77,7.76,29.529,17.69,29.529,27.23C295.779,175.521,294.5,178.86,291.99,182.19z"/>
			</g>
		</g>
		<g>
			<g>
				<path fill="#C71C24" d="M186.87,316.53c-9.05,0-16.41,7.36-16.41,16.41c0,9.04,7.36,16.399,16.41,16.399
					c9.04,0,16.4-7.359,16.4-16.399C203.27,323.891,195.91,316.53,186.87,316.53z M186.87,337.03c-2.26,0-4.1-1.829-4.1-4.09
					c0-2.271,1.84-4.101,4.1-4.101c2.26,0,4.1,1.83,4.1,4.101C190.97,335.201,189.13,337.03,186.87,337.03z"/>
			</g>
		</g>
	</g>
	<g>
		<g>
			<g>
				<path d="M233.6,367.82l0.01,0.42h0.01c0.01,0.131,0.02,0.25,0.03,0.381C233.63,368.36,233.61,368.09,233.6,367.82z
					 M444.27,366.771c-0.01,0.489-0.028,0.979-0.06,1.47h0.08L444.27,366.771z M444.19,368.24l-0.012,0.42
					c0.012-0.14,0.021-0.279,0.03-0.42H444.19z M268.141,508.381c-0.851,0.01-1.689,0.02-2.529,0.02c0.84,0,1.68-0.01,2.529-0.01
					c0.83-0.01,1.67-0.021,2.5-0.021C269.811,508.37,268.971,508.381,268.141,508.381z M444.27,366.771
					c-0.01,0.489-0.028,0.979-0.06,1.47h0.08L444.27,366.771z M444.19,368.24l-0.012,0.42c0.012-0.14,0.021-0.279,0.03-0.42H444.19z
					 M268.141,508.381c-0.851,0.01-1.689,0.02-2.529,0.02c0.84,0,1.68-0.01,2.529-0.01c0.83-0.01,1.67-0.021,2.5-0.021
					C269.811,508.37,268.971,508.381,268.141,508.381z M233.6,367.82l0.01,0.42h0.01c0.01,0.131,0.02,0.25,0.03,0.381
					C233.63,368.36,233.61,368.09,233.6,367.82z M233.6,367.82l0.01,0.42h0.01c0.01,0.131,0.02,0.25,0.03,0.381
					C233.63,368.36,233.61,368.09,233.6,367.82z M268.141,508.381c-0.851,0.01-1.689,0.02-2.529,0.02c0.84,0,1.68-0.01,2.529-0.01
					c0.83-0.01,1.67-0.021,2.5-0.021C269.811,508.37,268.971,508.381,268.141,508.381z M444.27,366.771
					c-0.01,0.489-0.028,0.979-0.06,1.47h0.08L444.27,366.771z M444.19,368.24l-0.012,0.42c0.012-0.14,0.021-0.279,0.03-0.42H444.19z
					 M444.27,366.771c-0.01,0.489-0.028,0.979-0.06,1.47h0.08L444.27,366.771z M444.19,368.24l-0.012,0.42
					c0.012-0.14,0.021-0.279,0.03-0.42H444.19z M268.141,508.381c-0.851,0.01-1.689,0.02-2.529,0.02c0.84,0,1.68-0.01,2.529-0.01
					c0.83-0.01,1.67-0.021,2.5-0.021C269.811,508.37,268.971,508.381,268.141,508.381z M233.6,367.82l0.01,0.42h0.01
					c0.01,0.131,0.02,0.25,0.03,0.381C233.63,368.36,233.61,368.09,233.6,367.82z M233.6,367.82l0.01,0.42h0.01
					c0.01,0.131,0.02,0.25,0.03,0.381C233.63,368.36,233.61,368.09,233.6,367.82z M268.141,508.381
					c-0.851,0.01-1.689,0.02-2.529,0.02c0.84,0,1.68-0.01,2.529-0.01c0.83-0.01,1.67-0.021,2.5-0.021
					C269.811,508.37,268.971,508.381,268.141,508.381z M444.19,368.24l-0.012,0.42c0.012-0.14,0.021-0.279,0.03-0.42H444.19z
					 M444.27,366.771c-0.01,0.489-0.028,0.979-0.06,1.47h0.08L444.27,366.771z M233.6,367.82l0.01,0.42h0.01
					c0.01,0.131,0.02,0.25,0.03,0.381C233.63,368.36,233.61,368.09,233.6,367.82z M268.141,508.381
					c-0.851,0.01-1.689,0.02-2.529,0.02c0.84,0,1.68-0.01,2.529-0.01c0.83-0.01,1.67-0.021,2.5-0.021
					C269.811,508.37,268.971,508.381,268.141,508.381z M444.19,368.24l-0.012,0.42c0.012-0.14,0.021-0.279,0.03-0.42H444.19z
					 M444.27,366.771c-0.01,0.489-0.028,0.979-0.06,1.47h0.08L444.27,366.771z M444.27,366.771c-0.01,0.489-0.028,0.979-0.06,1.47
					h0.08L444.27,366.771z M444.19,368.24l-0.012,0.42c0.012-0.14,0.021-0.279,0.03-0.42H444.19z M268.141,508.381
					c-0.851,0.01-1.689,0.02-2.529,0.02c0.84,0,1.68-0.01,2.529-0.01c0.83-0.01,1.67-0.021,2.5-0.021
					C269.811,508.37,268.971,508.381,268.141,508.381z M233.6,367.82l0.01,0.42h0.01c0.01,0.131,0.02,0.25,0.03,0.381
					C233.63,368.36,233.61,368.09,233.6,367.82z M233.6,367.82l0.01,0.42h0.01c0.01,0.131,0.02,0.25,0.03,0.381
					C233.63,368.36,233.61,368.09,233.6,367.82z M268.141,508.381c-0.851,0.01-1.689,0.02-2.529,0.02c0.84,0,1.68-0.01,2.529-0.01
					c0.83-0.01,1.67-0.021,2.5-0.021C269.811,508.37,268.971,508.381,268.141,508.381z M444.27,366.771
					c-0.01,0.489-0.028,0.979-0.06,1.47h0.08L444.27,366.771z M444.19,368.24l-0.012,0.42c0.012-0.14,0.021-0.279,0.03-0.42H444.19z
					 M444.27,366.771c-0.01,0.489-0.028,0.979-0.06,1.47h0.08L444.27,366.771z M444.19,368.24l-0.012,0.42
					c0.012-0.14,0.021-0.279,0.03-0.42H444.19z M268.141,508.381c-0.851,0.01-1.689,0.02-2.529,0.02c0.84,0,1.68-0.01,2.529-0.01
					c0.83-0.01,1.67-0.021,2.5-0.021C269.811,508.37,268.971,508.381,268.141,508.381z M233.6,367.82l0.01,0.42h0.01
					c0.01,0.131,0.02,0.25,0.03,0.381C233.63,368.36,233.61,368.09,233.6,367.82z"/>
				<path d="M236.58,365.74v0.5c0-0.199,0-0.398,0.01-0.59C236.58,365.681,236.58,365.711,236.58,365.74z M235.09,367.561v-0.82
					h-0.01C235.08,367.01,235.08,367.291,235.09,367.561z M444.19,368.24l-0.012,0.42c0.012-0.14,0.021-0.279,0.03-0.42H444.19z
					 M441.1,369.371c0.04-0.291,0.07-0.591,0.092-0.891v-0.061C441.16,368.74,441.13,369.051,441.1,369.371z M268.141,508.381
					c-0.851,0.01-1.689,0.02-2.529,0.02c0.84,0,1.68-0.01,2.529-0.01c0.83-0.01,1.67-0.021,2.5-0.021
					C269.811,508.37,268.971,508.381,268.141,508.381z M236.58,365.74v0.5c0-0.199,0-0.398,0.01-0.59
					C236.58,365.681,236.58,365.711,236.58,365.74z M235.09,367.561v-0.82h-0.01C235.08,367.01,235.08,367.291,235.09,367.561z
					 M444.19,368.24l-0.012,0.42c0.012-0.14,0.021-0.279,0.03-0.42H444.19z M441.1,369.371c0.04-0.291,0.07-0.591,0.092-0.891
					v-0.061C441.16,368.74,441.13,369.051,441.1,369.371z M268.141,508.381c-0.851,0.01-1.689,0.02-2.529,0.02
					c0.84,0,1.68-0.01,2.529-0.01c0.83-0.01,1.67-0.021,2.5-0.021C269.811,508.37,268.971,508.381,268.141,508.381z M236.58,365.74
					v0.5c0-0.199,0-0.398,0.01-0.59C236.58,365.681,236.58,365.711,236.58,365.74z M235.09,367.561v-0.82h-0.01
					C235.08,367.01,235.08,367.291,235.09,367.561z M268.141,508.381c-0.851,0.01-1.689,0.02-2.529,0.02
					c0.84,0,1.68-0.01,2.529-0.01c0.83-0.01,1.67-0.021,2.5-0.021C269.811,508.37,268.971,508.381,268.141,508.381z M444.19,368.24
					l-0.012,0.42c0.012-0.14,0.021-0.279,0.03-0.42H444.19z M441.1,369.371c0.04-0.291,0.07-0.591,0.092-0.891v-0.061
					C441.16,368.74,441.13,369.051,441.1,369.371z M444.19,368.24l-0.012,0.42c0.012-0.14,0.021-0.279,0.03-0.42H444.19z
					 M441.1,369.371c0.04-0.291,0.07-0.591,0.092-0.891v-0.061C441.16,368.74,441.13,369.051,441.1,369.371z M268.141,508.381
					c-0.851,0.01-1.689,0.02-2.529,0.02c0.84,0,1.68-0.01,2.529-0.01c0.83-0.01,1.67-0.021,2.5-0.021
					C269.811,508.37,268.971,508.381,268.141,508.381z M236.58,365.74v0.5c0-0.199,0-0.398,0.01-0.59
					C236.58,365.681,236.58,365.711,236.58,365.74z M235.09,367.561v-0.82h-0.01C235.08,367.01,235.08,367.291,235.09,367.561z
					 M236.58,365.74v0.5c0-0.199,0-0.398,0.01-0.59C236.58,365.681,236.58,365.711,236.58,365.74z M235.09,367.561v-0.82h-0.01
					C235.08,367.01,235.08,367.291,235.09,367.561z M268.141,508.381c-0.851,0.01-1.689,0.02-2.529,0.02
					c0.84,0,1.68-0.01,2.529-0.01c0.83-0.01,1.67-0.021,2.5-0.021C269.811,508.37,268.971,508.381,268.141,508.381z M441.1,369.371
					c0.04-0.291,0.07-0.591,0.092-0.891v-0.061C441.16,368.74,441.13,369.051,441.1,369.371z M444.19,368.24l-0.012,0.42
					c0.012-0.14,0.021-0.279,0.03-0.42H444.19z M236.58,365.74v0.5c0-0.199,0-0.398,0.01-0.59
					C236.58,365.681,236.58,365.711,236.58,365.74z M235.09,367.561v-0.82h-0.01C235.08,367.01,235.08,367.291,235.09,367.561z
					 M268.141,508.381c-0.851,0.01-1.689,0.02-2.529,0.02c0.84,0,1.68-0.01,2.529-0.01c0.83-0.01,1.67-0.021,2.5-0.021
					C269.811,508.37,268.971,508.381,268.141,508.381z M441.1,369.371c0.04-0.291,0.07-0.591,0.092-0.891v-0.061
					C441.16,368.74,441.13,369.051,441.1,369.371z M444.19,368.24l-0.012,0.42c0.012-0.14,0.021-0.279,0.03-0.42H444.19z
					 M444.19,368.24l-0.012,0.42c0.012-0.14,0.021-0.279,0.03-0.42H444.19z M441.1,369.371c0.04-0.291,0.07-0.591,0.092-0.891
					v-0.061C441.16,368.74,441.13,369.051,441.1,369.371z M268.141,508.381c-0.851,0.01-1.689,0.02-2.529,0.02
					c0.84,0,1.68-0.01,2.529-0.01c0.83-0.01,1.67-0.021,2.5-0.021C269.811,508.37,268.971,508.381,268.141,508.381z M236.58,365.74
					v0.5c0-0.199,0-0.398,0.01-0.59C236.58,365.681,236.58,365.711,236.58,365.74z M235.09,367.561v-0.82h-0.01
					C235.08,367.01,235.08,367.291,235.09,367.561z M236.58,365.74v0.5c0-0.199,0-0.398,0.01-0.59
					C236.58,365.681,236.58,365.711,236.58,365.74z M235.09,367.561v-0.82h-0.01C235.08,367.01,235.08,367.291,235.09,367.561z
					 M268.141,508.381c-0.851,0.01-1.689,0.02-2.529,0.02c0.84,0,1.68-0.01,2.529-0.01c0.83-0.01,1.67-0.021,2.5-0.021
					C269.811,508.37,268.971,508.381,268.141,508.381z M444.19,368.24l-0.012,0.42c0.012-0.14,0.021-0.279,0.03-0.42H444.19z
					 M441.1,369.371c0.04-0.291,0.07-0.591,0.092-0.891v-0.061C441.16,368.74,441.13,369.051,441.1,369.371z M236.58,365.74v0.5
					c0-0.199,0-0.398,0.01-0.59C236.58,365.681,236.58,365.711,236.58,365.74z M235.09,367.561v-0.82h-0.01
					C235.08,367.01,235.08,367.291,235.09,367.561z M444.19,368.24l-0.012,0.42c0.012-0.14,0.021-0.279,0.03-0.42H444.19z
					 M441.1,369.371c0.04-0.291,0.07-0.591,0.092-0.891v-0.061C441.16,368.74,441.13,369.051,441.1,369.371z M268.141,508.381
					c-0.851,0.01-1.689,0.02-2.529,0.02c0.84,0,1.68-0.01,2.529-0.01c0.83-0.01,1.67-0.021,2.5-0.021
					C269.811,508.37,268.971,508.381,268.141,508.381z M236.58,365.74v0.5c0-0.199,0-0.398,0.01-0.59
					C236.58,365.681,236.58,365.711,236.58,365.74z M235.09,367.561v-0.82h-0.01C235.08,367.01,235.08,367.291,235.09,367.561z
					 M444.19,368.24l-0.012,0.42c0.012-0.14,0.021-0.279,0.03-0.42H444.19z M441.1,369.371c0.04-0.291,0.07-0.591,0.092-0.891
					v-0.061C441.16,368.74,441.13,369.051,441.1,369.371z M268.141,508.381c-0.851,0.01-1.689,0.02-2.529,0.02
					c0.84,0,1.68-0.01,2.529-0.01c0.83-0.01,1.67-0.021,2.5-0.021C269.811,508.37,268.971,508.381,268.141,508.381z
					 M268.141,508.381c-0.851,0.01-1.689,0.02-2.529,0.02c0.84,0,1.68-0.01,2.529-0.01c0.83-0.01,1.67-0.021,2.5-0.021
					C269.811,508.37,268.971,508.381,268.141,508.381z M236.58,365.74v0.5c0-0.199,0-0.398,0.01-0.59
					C236.58,365.681,236.58,365.711,236.58,365.74z M235.09,367.561v-0.82h-0.01C235.08,367.01,235.08,367.291,235.09,367.561z
					 M444.19,368.24l-0.012,0.42c0.012-0.14,0.021-0.279,0.03-0.42H444.19z M441.1,369.371c0.04-0.291,0.07-0.591,0.092-0.891
					v-0.061C441.16,368.74,441.13,369.051,441.1,369.371z"/>
				<path d="M455.9,365.24h-0.052c-0.938-18.72-14.09-34.318-32.26-38.119c-3.71-0.771-7.57-0.881-10.85-0.881
					c-1.011,0-2.03,0.01-3.03,0.021c-1,0.01-1.99,0.02-2.97,0.02H262.4c-17.332,0-32.852,11.311-38.63,28.15
					c-1.62,4.72-2.26,9.67-1.91,14.72v107.59c-1.02,15.222,7.39,30.58,20.94,38.23c7.8,4.42,16.37,5.028,24.479,5.028H414.32
					c13.88,0,26.068-6.18,34.33-17.39c4.38-5.91,6.93-13.75,7.22-22.11l0.02-0.43c0-0.08,0-0.17,0.012-0.26l0.01-113.07
					L455.9,365.24z M233.62,368.24h-0.01l-0.01-0.42c0.01,0.271,0.03,0.54,0.05,0.801C233.64,368.49,233.63,368.371,233.62,368.24z
					 M235.09,367.561c-0.01-0.271-0.01-0.551-0.01-0.82h0.01V367.561z M236.58,365.74c0-0.029,0-0.06,0.01-0.09
					c0-0.199,0.01-0.4,0.03-0.59c-0.01-0.07-0.01-0.13,0.01-0.189c0.01-0.399,0.04-0.791,0.1-1.181c-0.01-0.09,0-0.17,0.02-0.26
					c0.04-0.41,0.1-0.82,0.18-1.22c-0.01-0.051,0-0.102,0.02-0.15c0.04-0.311,0.1-0.609,0.18-0.91c0.03-0.21,0.07-0.41,0.12-0.609
					c0.1-0.42,0.21-0.84,0.34-1.261c0.08-0.3,0.18-0.608,0.29-0.899c0.33-1.021,0.74-2.021,1.22-3
					c4.41-9.061,13.7-14.471,24.83-14.471h143.19l5.37-0.01c1.34,0,2.67,0.01,4.01,0.03c1.42,0.021,2.81,0.17,4.16,0.438
					c0.24,0.041,0.47,0.092,0.7,0.141c0.46,0.109,0.908,0.221,1.358,0.359c0.352,0.092,0.7,0.2,1.04,0.32
					c0.38,0.13,0.76,0.271,1.13,0.42c0.312,0.12,0.62,0.25,0.932,0.391c0.16,0.061,0.31,0.141,0.47,0.221
					c0.27,0.119,0.54,0.25,0.8,0.39c0.36,0.181,0.71,0.37,1.062,0.58c0.35,0.19,0.688,0.399,1.028,0.63c0.34,0.21,0.67,0.44,1,0.68
					c0.312,0.211,0.62,0.44,0.92,0.682c0.03,0.029,0.07,0.05,0.102,0.08c0.28,0.22,0.56,0.449,0.83,0.689
					c0.22,0.18,0.438,0.379,0.66,0.59c0.17,0.141,0.328,0.301,0.488,0.459c0.15,0.142,0.302,0.291,0.44,0.44
					c0.12,0.12,0.24,0.24,0.35,0.37c0.2,0.189,0.38,0.4,0.562,0.6c0.068,0.08,0.14,0.15,0.188,0.23c0.21,0.229,0.41,0.46,0.59,0.699
					c0.07,0.07,0.132,0.149,0.19,0.229c0.17,0.21,0.34,0.431,0.5,0.65c0.2,0.26,0.39,0.54,0.58,0.819
					c0.14,0.189,0.27,0.391,0.41,0.601c0.05,0.08,0.108,0.17,0.16,0.26c0.17,0.271,0.34,0.55,0.5,0.83
					c0.63,1.09,1.188,2.22,1.658,3.399c0.28,0.66,0.521,1.351,0.74,2.041c0,0.01,0.01,0.02,0.01,0.039
					c0.23,0.711,0.422,1.439,0.58,2.181c0.102,0.46,0.19,0.92,0.271,1.38c0.07,0.4,0.13,0.811,0.17,1.229
					c0.06,0.41,0.1,0.82,0.12,1.24c0.04,0.49,0.06,0.98,0.068,1.48c-0.01,0.568-0.038,1.14-0.078,1.699v0.061
					c-0.021,0.3-0.052,0.6-0.092,0.891c-0.108,0.939-0.26,1.859-0.47,2.771c-0.18,0.81-0.398,1.601-0.66,2.38
					c-0.13,0.391-0.27,0.78-0.41,1.16c-0.17,0.439-0.34,0.87-0.54,1.29c-0.288,0.68-0.63,1.35-0.988,2.01
					c0,0.011-0.012,0.021-0.021,0.04c-0.38,0.689-0.8,1.37-1.24,2.02c-0.898,1.33-1.908,2.57-3.028,3.701
					c-0.271,0.289-0.562,0.569-0.852,0.84c-2.46,2.301-5.35,4.109-8.52,5.319c-0.21,0.08-0.42,0.16-0.63,0.229
					c-0.182,0.07-0.36,0.131-0.55,0.189c-0.44,0.15-0.882,0.271-1.33,0.391c-0.44,0.119-0.9,0.221-1.352,0.32
					c-1.68,0.359-3.42,0.539-5.188,0.539H270.641c-0.859,0-1.721,0.01-2.57,0.021c-0.85,0.01-1.699,0.02-2.551,0.02
					c-3.42,0-7.068-0.14-10.56-1.1c-3.56-0.98-6.79-2.79-9.52-5.2c-0.24-0.22-0.49-0.45-0.73-0.681
					c-0.97-0.92-1.85-1.909-2.65-2.971c-0.38-0.5-0.75-1.01-1.09-1.529c-0.35-0.529-0.68-1.061-0.98-1.609l-0.01-0.01
					c-0.31-0.551-0.6-1.11-0.86-1.682c-0.41-0.858-0.77-1.738-1.08-2.648c-0.29-0.83-0.54-1.682-0.74-2.551
					c-0.11-0.439-0.21-0.881-0.28-1.329c-0.05-0.261-0.1-0.521-0.14-0.79c-0.06-0.432-0.12-0.852-0.17-1.28
					c-0.02-0.239-0.04-0.47-0.06-0.7c-0.03-0.318-0.05-0.648-0.06-0.97v-0.149l-0.01-1.011V365.74L236.58,365.74z M268.141,508.391
					c-0.851,0-1.689,0.01-2.529,0.01c0.84,0,1.68-0.01,2.529-0.02c0.83,0,1.67-0.012,2.5-0.012
					C269.811,508.37,268.971,508.381,268.141,508.391z M441.27,479.73c0,0.11-0.01,0.23-0.01,0.29c-0.24,7.11-3.21,13.44-7.87,18
					c-0.29,0.29-0.59,0.57-0.898,0.84c-1.21,1.08-2.54,2.05-3.94,2.89c-0.71,0.422-1.43,0.812-2.18,1.16
					c-3.352,1.58-7.09,2.46-11.05,2.46H270.641c-0.841,0-1.689,0.012-2.529,0.021c-0.83,0-1.67,0.01-2.5,0.01
					c-1.73,0-3.512-0.03-5.312-0.188c-0.34-0.03-0.67-0.062-1-0.102c-0.5-0.06-1.01-0.12-1.51-0.2s-1-0.18-1.5-0.278
					c-0.44-0.092-0.88-0.2-1.32-0.32c-1.23-0.34-2.42-0.771-3.56-1.3c-0.76-0.352-1.5-0.74-2.22-1.16c-1.08-0.64-2.1-1.36-3.07-2.15
					c-5.66-4.648-9.3-11.81-9.53-19.63v-0.13c-0.01-0.53-0.01-1.05,0-1.63v-80.439c1.93,1.629,4.01,3.08,6.2,4.319
					c7.79,4.41,16.37,5.011,24.479,5.011h147.039c10.15,0,19.37-3.25,26.882-9.461v80.11c0.05,0.57,0.068,1.149,0.09,1.688
					L441.27,479.73z M444.21,368.24c-0.01,0.141-0.02,0.28-0.03,0.42l0.012-0.42H444.21c0.03-0.49,0.05-0.979,0.06-1.47l0.021,1.47
					H444.21z"/>
			</g>
			<g>
				<path fill="#FFFFFF" d="M441.19,477.851v-80.11c-7.512,6.211-16.73,9.461-26.882,9.461H267.27
					c-8.108,0-16.688-0.601-24.479-5.011c-2.19-1.239-4.27-2.69-6.2-4.319v80.439c-0.01,0.58-0.01,1.1,0,1.63v0.13
					c0.23,7.82,3.87,14.98,9.53,19.63c0.97,0.79,1.99,1.512,3.07,2.15c0.72,0.42,1.46,0.81,2.22,1.16c1.14,0.528,2.33,0.96,3.56,1.3
					c0.44,0.12,0.88,0.229,1.32,0.32c0.5,0.1,1,0.198,1.5,0.278s1.01,0.142,1.51,0.2c0.33,0.04,0.66,0.07,1,0.102
					c1.801,0.158,3.58,0.188,5.311,0.188c0.83,0,1.671-0.01,2.5-0.01c0.841-0.01,1.689-0.021,2.529-0.021h144.68
					c3.96,0,7.698-0.88,11.05-2.46c0.75-0.35,1.47-0.738,2.18-1.16c1.4-0.84,2.73-1.81,3.94-2.89c0.31-0.27,0.608-0.55,0.898-0.84
					c4.66-4.561,7.63-10.89,7.87-18c0-0.061,0.01-0.18,0.01-0.29l0.012-0.19C441.26,479,441.24,478.421,441.19,477.851z
					 M338.84,459.03c-9.05,0-16.398-7.358-16.398-16.41c0-9.04,7.35-16.398,16.398-16.398c9.04,0,16.4,7.358,16.4,16.398
					C355.24,451.671,347.88,459.03,338.84,459.03z"/>
				<path d="M254.97,504.301c-1.23-0.34-2.42-0.771-3.56-1.29c1.14,0.528,2.33,0.96,3.56,1.3c0.44,0.12,0.88,0.229,1.32,0.32
					C255.85,504.53,255.41,504.421,254.97,504.301z M268.109,505.381c-0.83,0.01-1.67,0.02-2.5,0.02c0.83,0,1.67-0.01,2.5-0.01
					c0.841-0.01,1.689-0.021,2.529-0.021C269.8,505.37,268.95,505.381,268.109,505.381z"/>
			</g>
			<g>
				<path fill="#FFFFFF" d="M441.27,366.721c-0.01,0.568-0.038,1.14-0.078,1.699v0.061c-0.021,0.3-0.052,0.6-0.092,0.891
					c-0.108,0.939-0.26,1.859-0.47,2.771c-0.18,0.81-0.398,1.601-0.66,2.38c-0.13,0.391-0.27,0.779-0.41,1.16
					c-0.17,0.439-0.34,0.869-0.54,1.29c-0.289,0.68-0.63,1.35-0.988,2.01c0,0.011-0.012,0.021-0.021,0.04
					c-0.38,0.689-0.8,1.37-1.24,2.02c-0.898,1.33-1.908,2.57-3.028,3.701c-0.271,0.289-0.562,0.569-0.852,0.84
					c-2.46,2.301-5.35,4.109-8.52,5.319c-0.21,0.08-0.42,0.16-0.63,0.229c-0.182,0.07-0.36,0.131-0.55,0.189
					c-0.432,0.141-0.882,0.271-1.33,0.391c-0.44,0.119-0.9,0.221-1.352,0.319c-1.68,0.36-3.42,0.54-5.188,0.54h-144.68
					c-0.859,0-1.721,0.01-2.57,0.021c-0.85,0.01-1.699,0.02-2.551,0.02c-3.42,0-7.068-0.14-10.56-1.1c-3.56-0.98-6.79-2.79-9.52-5.2
					c-0.24-0.22-0.49-0.45-0.73-0.681c-0.97-0.92-1.85-1.909-2.65-2.971c-0.38-0.5-0.75-1.01-1.09-1.529
					c-0.34-0.529-0.67-1.061-0.98-1.609l-0.01-0.01c-0.3-0.551-0.59-1.11-0.86-1.682c-0.41-0.858-0.77-1.738-1.08-2.648
					c-0.29-0.83-0.54-1.682-0.74-2.551c-0.11-0.439-0.21-0.881-0.28-1.329c-0.05-0.261-0.1-0.521-0.14-0.79
					c-0.06-0.432-0.12-0.852-0.17-1.28c-0.02-0.239-0.04-0.47-0.06-0.7c-0.03-0.318-0.05-0.648-0.06-0.97v-0.149l-0.01-1.011v-0.659
					c0-0.029,0-0.061,0.01-0.091c0-0.2,0.01-0.399,0.03-0.59c-0.01-0.069-0.01-0.13,0.01-0.19c0.02-0.398,0.05-0.789,0.1-1.18
					c-0.01-0.09,0-0.17,0.02-0.26c0.05-0.41,0.1-0.82,0.18-1.221c-0.01-0.051,0-0.101,0.02-0.149c0.05-0.312,0.11-0.61,0.18-0.91
					c0.03-0.21,0.07-0.409,0.12-0.61c0.1-0.42,0.21-0.84,0.34-1.26c0.09-0.3,0.18-0.6,0.29-0.898c0.33-1.021,0.74-2.021,1.22-3
					c4.41-9.062,13.7-14.471,24.83-14.471h143.19l5.37-0.011c1.34,0,2.67,0.011,4.01,0.03c1.42,0.02,2.81,0.17,4.16,0.439
					c0.24,0.039,0.47,0.09,0.7,0.141c0.46,0.109,0.909,0.22,1.358,0.359c0.352,0.09,0.7,0.199,1.04,0.319
					c0.38,0.13,0.761,0.271,1.13,0.42c0.312,0.12,0.62,0.25,0.932,0.39c0.16,0.07,0.31,0.142,0.47,0.222
					c0.271,0.12,0.54,0.25,0.8,0.39c0.36,0.18,0.71,0.37,1.062,0.58c0.35,0.2,0.688,0.41,1.028,0.631c0.341,0.209,0.67,0.439,1,0.68
					c0.312,0.221,0.62,0.449,0.92,0.681c0.03,0.03,0.07,0.05,0.102,0.08c0.28,0.22,0.56,0.45,0.83,0.688
					c0.22,0.182,0.438,0.381,0.66,0.59c0.17,0.15,0.329,0.302,0.488,0.461c0.15,0.141,0.302,0.289,0.44,0.439
					c0.12,0.12,0.24,0.24,0.35,0.37c0.2,0.188,0.38,0.399,0.562,0.601c0.068,0.08,0.14,0.149,0.188,0.229
					c0.21,0.229,0.41,0.46,0.591,0.7c0.069,0.068,0.131,0.148,0.189,0.229c0.17,0.211,0.34,0.43,0.5,0.65
					c0.2,0.26,0.39,0.54,0.58,0.818c0.14,0.19,0.27,0.392,0.41,0.602c0.05,0.08,0.108,0.17,0.16,0.26
					c0.17,0.271,0.34,0.551,0.5,0.83c0.63,1.09,1.188,2.221,1.658,3.4c0.28,0.658,0.521,1.35,0.74,2.039
					c0,0.011,0.01,0.021,0.01,0.041c0.23,0.709,0.422,1.438,0.58,2.18c0.102,0.46,0.19,0.92,0.271,1.38
					c0.06,0.41,0.12,0.82,0.17,1.229c0.05,0.41,0.09,0.819,0.12,1.24C441.24,365.73,441.26,366.221,441.27,366.721z"/>
				<path d="M233.6,367.82l0.01,0.42h0.01c0.01,0.131,0.02,0.25,0.03,0.381C233.63,368.36,233.61,368.09,233.6,367.82z
					 M235.08,366.74c0,0.271,0,0.551,0.01,0.82v-0.82H235.08z M440.06,359.211c0.222,0.709,0.422,1.438,0.58,2.18
					C440.48,360.65,440.29,359.92,440.06,359.211z M444.27,366.771c-0.01,0.489-0.028,0.979-0.06,1.47h0.08L444.27,366.771z
					 M441.2,365.24l-0.01,3.182c0.04-0.562,0.068-1.131,0.078-1.7C441.26,366.221,441.24,365.73,441.2,365.24z"/>
			</g>
		</g>
		<g>
			<g>
				<path d="M235.09,366.74v0.82c-0.01-0.271-0.01-0.55-0.01-0.82H235.09z"/>
				<path d="M235.09,366.74v0.82c-0.01-0.271-0.01-0.55-0.01-0.82H235.09z"/>
			</g>
			<g>
				<path d="M441.27,366.721c-0.01,0.568-0.038,1.14-0.078,1.699v-3.181h0.01C441.24,365.73,441.26,366.221,441.27,366.721z"/>
				<path d="M444.21,368.24c-0.01,0.141-0.02,0.28-0.03,0.42l0.012-0.42H444.21z"/>
			</g>
		</g>
		<g>
			<g>
				<path fill="#FFFFFF" d="M342.94,442.62c0,2.262-1.842,4.102-4.102,4.102s-4.1-1.84-4.1-4.102c0-2.26,1.84-4.1,4.1-4.1
					S342.94,440.36,342.94,442.62z"/>
				<path fill="#C71C24" d="M338.84,426.221c-9.05,0-16.398,7.358-16.398,16.398c0,9.052,7.35,16.41,16.398,16.41
					c9.04,0,16.4-7.358,16.4-16.41C355.24,433.58,347.88,426.221,338.84,426.221z M338.84,446.721c-2.26,0-4.1-1.84-4.1-4.102
					c0-2.26,1.84-4.1,4.1-4.1s4.102,1.84,4.102,4.1C342.94,444.881,341.1,446.721,338.84,446.721z"/>
			</g>
		</g>
	</g>
	<g>
		<g>
			<g>
				<path fill="#C71C24" d="M447.899,270.99v48.57c0,3.609-2.931,6.54-6.54,6.54s-6.54-2.931-6.54-6.54v-48.57
					c0-3.609,2.931-6.54,6.54-6.54C444.97,264.451,447.899,267.381,447.899,270.99z"/>
			</g>
		</g>
		<g>
			<g>
				<path fill="#C71C24" d="M520,346.58c0,3.61-2.931,6.541-6.54,6.541h-48.57c-3.6,0-6.54-2.931-6.54-6.541
					c0-3.6,2.94-6.539,6.54-6.539h48.57C517.069,340.041,520,342.98,520,346.58z"/>
			</g>
		</g>
		<g>
			<g>
				<path fill="#C71C24" d="M500.739,293.931c0,1.75-0.681,3.39-1.92,4.63l-34.351,34.35c-1.229,1.23-2.87,1.91-4.62,1.91
					s-3.39-0.68-4.62-1.91c-1.239-1.229-1.92-2.88-1.92-4.63c0-1.739,0.681-3.38,1.92-4.62l34.341-34.34
					c1.239-1.24,2.88-1.92,4.62-1.92c1.75,0,3.399,0.68,4.63,1.92C500.05,290.551,500.739,292.181,500.739,293.931z"/>
			</g>
		</g>
	</g>
	<g>
		<g>
			<g>
				<path fill="#C71C24" d="M85.18,71.21v48.57c0,3.6-2.93,6.54-6.54,6.54c-3.61,0-6.54-2.94-6.54-6.54V71.21
					c0-3.61,2.93-6.54,6.54-6.54C82.25,64.67,85.18,67.601,85.18,71.21z"/>
			</g>
		</g>
		<g>
			<g>
				<path fill="#C71C24" d="M61.65,146.8c0,3.61-2.94,6.54-6.54,6.54H6.54c-3.61,0-6.54-2.93-6.54-6.54c0-3.6,2.93-6.54,6.54-6.54
					h48.57C58.71,140.261,61.65,143.2,61.65,146.8z"/>
			</g>
		</g>
		<g>
			<g>
				<path fill="#C71C24" d="M64.77,133.13c-1.23,1.23-2.88,1.91-4.62,1.91c-1.75,0-3.39-0.68-4.63-1.91L21.18,98.78
					c-1.24-1.23-1.92-2.88-1.92-4.62c0-1.75,0.68-3.39,1.92-4.63c1.23-1.23,2.88-1.91,4.62-1.91c1.75,0,3.39,0.68,4.63,1.91
					l34.34,34.35C67.32,126.431,67.32,130.581,64.77,133.13z"/>
			</g>
		</g>
	</g>
</g>
</svg>
