<?xml version="1.0" encoding="utf-8"?>
<!-- Generator: Adobe Illustrator 16.0.0, SVG Export Plug-In . SVG Version: 6.00 Build 0)  -->
<!DOCTYPE svg PUBLIC "-//W3C//DTD SVG 1.1//EN" "http://www.w3.org/Graphics/SVG/1.1/DTD/svg11.dtd">
<svg version="1.1" id="Layer_1" xmlns="http://www.w3.org/2000/svg" xmlns:xlink="http://www.w3.org/1999/xlink" x="0px" y="0px"
	 width="520px" height="520px" viewBox="0 0 520 520" enable-background="new 0 0 520 520" xml:space="preserve">
<g>
	<g>
		<g>
			<g>
				<path d="M271.85,99.176c-22.82-9.44-53-14.64-84.99-14.64c-31.98,0-62.16,5.2-84.98,14.64c-24.86,10.28-38.56,24.76-38.56,40.75
					v260.49c0,15.99,13.7,30.461,38.56,40.75c22.82,9.439,53.01,14.641,84.98,14.641c31.98,0,62.16-5.199,84.99-14.641
					c24.86-10.289,38.563-24.76,38.563-40.75v-260.49C310.41,123.937,296.71,109.457,271.85,99.176z M295.779,400.416
					c0,9.551-10.76,19.471-29.529,27.23c-21.09,8.719-49.28,13.529-79.38,13.529c-30.11,0-58.3-4.813-79.39-13.529
					c-18.77-7.762-29.53-17.682-29.53-27.23V195.505c0.33,0.28,0.66,0.55,1,0.82l0.08,0.06c0.23,0.19,0.46,0.37,0.68,0.53
					c0.87,0.69,1.73,1.32,2.6,1.93c0.43,0.31,0.87,0.61,1.32,0.91c0.06,0.05,0.11,0.09,0.15,0.11c0.49,0.33,1,0.66,1.51,0.99
					c0.44,0.28,0.88,0.56,1.33,0.83l0.33,0.21c0.54,0.32,1.09,0.65,1.65,0.97c0.57,0.33,1.16,0.67,1.73,0.98
					c0.49,0.27,0.99,0.54,1.49,0.8l0.32,0.17c0.71,0.38,1.44,0.75,2.19,1.12c0.51,0.25,1.02,0.5,1.54,0.75
					c0.41,0.2,0.82,0.39,1.23,0.57l0.13,0.07c0.26,0.12,0.52,0.24,0.78,0.35l0.09,0.04c0.48,0.22,0.98,0.44,1.46,0.65
					c0.16,0.08,0.33,0.15,0.5,0.22c0.6,0.26,1.21,0.52,1.82,0.77c22.81,9.44,53,14.64,84.98,14.64c31.99,0,62.17-5.2,84.98-14.64
					c0.62-0.25,1.24-0.51,1.87-0.78c0.16-0.07,0.32-0.14,0.45-0.2c0.49-0.22,0.99-0.44,1.46-0.65c0.3-0.13,0.59-0.26,0.851-0.39
					l0.221-0.1c0.391-0.18,0.779-0.36,1.171-0.55c0.52-0.25,1.038-0.5,1.55-0.75c0.738-0.37,1.47-0.74,2.26-1.16
					c0.58-0.31,1.16-0.61,1.71-0.92c0.591-0.32,1.181-0.66,1.761-0.99c0.562-0.32,1.109-0.65,1.649-0.98l0.25-0.16
					c0.479-0.29,0.938-0.58,1.399-0.87c0.511-0.33,1.021-0.66,1.431-0.94c0.08-0.05,0.16-0.1,0.229-0.15
					c0.449-0.31,0.892-0.61,1.312-0.91c0.89-0.62,1.75-1.26,2.59-1.92c0.24-0.17,0.46-0.35,0.69-0.53l0.09-0.08
					c0.34-0.26,0.67-0.54,0.988-0.81l0.012-0.01v204.911H295.779L295.779,400.416z M295.779,168.605
					c0,9.55-10.76,19.47-29.529,27.23c-21.08,8.73-49.28,13.53-79.38,13.53c-30.11,0-58.3-4.8-79.39-13.53
					c-18.77-7.75-29.53-17.68-29.53-27.23v-1.8c0.11,0.09,0.21,0.18,0.32,0.26c0.44,0.37,0.88,0.73,1.3,1.04
					c0.3,0.25,0.61,0.48,0.93,0.72c3.31,2.49,7.12,4.88,11.3,7.08c0.44,0.24,0.89,0.47,1.34,0.7c0.29,0.15,0.59,0.3,0.89,0.45
					l0.14,0.07c0.45,0.22,0.9,0.44,1.34,0.65c1.07,0.52,2.16,1.02,3.26,1.51c0.42,0.19,0.85,0.37,1.28,0.56l0.4,0.17
					c0.57,0.25,1.13,0.48,1.71,0.72c0.57,0.23,1.15,0.47,1.73,0.7c1.16,0.46,2.35,0.9,3.55,1.35c0.6,0.22,1.22,0.44,1.83,0.65
					l0.35,0.13c0.5,0.17,1,0.34,1.48,0.5c0.63,0.22,1.25,0.43,1.89,0.63c0.61,0.2,1.23,0.4,1.86,0.59c0.16,0.06,0.32,0.11,0.41,0.13
					c1.16,0.36,2.32,0.7,3.51,1.05c0.66,0.19,1.32,0.37,1.99,0.55l1.99,0.54c0.68,0.18,1.35,0.35,2.04,0.53
					c0.68,0.17,1.36,0.34,2.04,0.5c0.4,0.1,0.81,0.2,1.22,0.29c0.57,0.14,1.15,0.27,1.71,0.39c1.12,0.26,2.24,0.5,3.38,0.74
					c0.71,0.14,1.43,0.29,2.13,0.43c0.73,0.15,1.45,0.29,2.18,0.42l1.38,0.26c1.84,0.34,3.79,0.67,5.79,0.99l1.68,0.25
					c0.57,0.09,1.15,0.18,1.71,0.25l1.3,0.19c1.58,0.22,3.18,0.42,4.79,0.61l2.01,0.229c6.08,0.67,12.3,1.14,18.49,1.41
					c0.78,0.03,1.56,0.07,2.33,0.09c1.11,0.04,2.22,0.07,3.33,0.09c1.37,0.03,2.75,0.06,4.12,0.07c1.65,0.02,3.32,0.02,4.97,0
					c1.38-0.01,2.75-0.04,4.11-0.07c1.1-0.02,2.2-0.05,3.28-0.09c0.8-0.021,1.59-0.06,2.37-0.09c8.12-0.35,16.11-1.03,23.75-2.05
					c0.58-0.07,1.15-0.14,1.72-0.22c0.96-0.14,1.91-0.27,2.83-0.42c0.67-0.09,1.34-0.19,1.99-0.3c1.98-0.31,3.72-0.61,5.31-0.91
					c0.53-0.09,1.05-0.18,1.57-0.29c1.46-0.27,2.89-0.55,4.31-0.85c1.14-0.24,2.27-0.48,3.36-0.73c0.58-0.13,1.16-0.26,1.72-0.4
					c0.42-0.09,0.83-0.19,1.21-0.29c0.7-0.16,1.38-0.33,2.06-0.5c0.69-0.18,1.36-0.35,2.04-0.53l1.99-0.54
					c0.67-0.18,1.34-0.36,1.98-0.55c2.03-0.58,3.98-1.17,5.79-1.77c0.64-0.2,1.27-0.41,1.869-0.62c0.479-0.16,0.971-0.33,1.449-0.5
					l0.399-0.14c0.608-0.21,1.229-0.43,1.83-0.65c1.2-0.45,2.38-0.89,3.55-1.35c1.17-0.47,2.313-0.94,3.439-1.42l0.391-0.17
					c0.439-0.18,0.87-0.37,1.262-0.55c0.578-0.25,1.148-0.51,1.738-0.78c0.512-0.24,1.021-0.48,1.521-0.72
					c0.528-0.25,1.061-0.51,1.59-0.78l0.41-0.21c0.311-0.15,0.608-0.31,0.91-0.46l0.17-0.09c0.528-0.28,1.068-0.56,1.568-0.84
					c0.49-0.26,0.979-0.53,1.45-0.8c0.45-0.24,0.892-0.5,1.319-0.76c2.521-1.47,4.891-3.01,7.039-4.6l0.142-0.1
					c0.221-0.16,0.438-0.33,0.66-0.49c0.688-0.53,1.35-1.05,2-1.58c0.108-0.09,0.22-0.18,0.329-0.27v1.79H295.779z M291.99,149.855
					c-13.69,18.15-56.92,30.82-105.12,30.82c-48.21,0-91.44-12.67-105.13-30.82c-2.51-3.33-3.79-6.67-3.79-9.94
					c0-9.54,10.76-19.47,29.53-27.23c21.09-8.72,49.28-13.52,79.39-13.52c30.1,0,58.3,4.8,79.38,13.52
					c18.77,7.76,29.529,17.69,29.529,27.23C295.779,143.187,294.5,146.525,291.99,149.855z"/>
			</g>
		</g>
		<g>
			<g>
				<path fill="#C71C24" d="M186.87,284.195c-9.05,0-16.41,7.361-16.41,16.41c0,9.041,7.36,16.398,16.41,16.398
					c9.04,0,16.4-7.357,16.4-16.398C203.27,291.557,195.91,284.195,186.87,284.195z M186.87,304.695c-2.26,0-4.1-1.828-4.1-4.09
					c0-2.271,1.84-4.102,4.1-4.102c2.26,0,4.1,1.83,4.1,4.102C190.97,302.867,189.13,304.695,186.87,304.695z"/>
			</g>
		</g>
	</g>
	<g>
		<g>
			<g>
				<path d="M233.6,335.486l0.01,0.42h0.01c0.01,0.131,0.02,0.25,0.03,0.381C233.63,336.025,233.61,335.756,233.6,335.486z
					 M444.27,334.438c-0.01,0.488-0.027,0.979-0.06,1.469h0.08L444.27,334.438z M444.19,335.906l-0.013,0.42
					c0.013-0.141,0.021-0.279,0.03-0.42H444.19z M268.141,476.047c-0.851,0.01-1.688,0.02-2.529,0.02c0.841,0,1.681-0.01,2.529-0.01
					c0.83-0.01,1.67-0.021,2.5-0.021C269.811,476.035,268.971,476.047,268.141,476.047z M444.27,334.438
					c-0.01,0.488-0.027,0.979-0.06,1.469h0.08L444.27,334.438z M444.19,335.906l-0.013,0.42c0.013-0.141,0.021-0.279,0.03-0.42
					H444.19z M268.141,476.047c-0.851,0.01-1.688,0.02-2.529,0.02c0.841,0,1.681-0.01,2.529-0.01c0.83-0.01,1.67-0.021,2.5-0.021
					C269.811,476.035,268.971,476.047,268.141,476.047z M233.6,335.486l0.01,0.42h0.01c0.01,0.131,0.02,0.25,0.03,0.381
					C233.63,336.025,233.61,335.756,233.6,335.486z M233.6,335.486l0.01,0.42h0.01c0.01,0.131,0.02,0.25,0.03,0.381
					C233.63,336.025,233.61,335.756,233.6,335.486z M268.141,476.047c-0.851,0.01-1.688,0.02-2.529,0.02
					c0.841,0,1.681-0.01,2.529-0.01c0.83-0.01,1.67-0.021,2.5-0.021C269.811,476.035,268.971,476.047,268.141,476.047z
					 M444.27,334.438c-0.01,0.488-0.027,0.979-0.06,1.469h0.08L444.27,334.438z M444.19,335.906l-0.013,0.42
					c0.013-0.141,0.021-0.279,0.03-0.42H444.19z M444.27,334.438c-0.01,0.488-0.027,0.979-0.06,1.469h0.08L444.27,334.438z
					 M444.19,335.906l-0.013,0.42c0.013-0.141,0.021-0.279,0.03-0.42H444.19z M268.141,476.047c-0.851,0.01-1.688,0.02-2.529,0.02
					c0.841,0,1.681-0.01,2.529-0.01c0.83-0.01,1.67-0.021,2.5-0.021C269.811,476.035,268.971,476.047,268.141,476.047z
					 M233.6,335.486l0.01,0.42h0.01c0.01,0.131,0.02,0.25,0.03,0.381C233.63,336.025,233.61,335.756,233.6,335.486z M233.6,335.486
					l0.01,0.42h0.01c0.01,0.131,0.02,0.25,0.03,0.381C233.63,336.025,233.61,335.756,233.6,335.486z M268.141,476.047
					c-0.851,0.01-1.688,0.02-2.529,0.02c0.841,0,1.681-0.01,2.529-0.01c0.83-0.01,1.67-0.021,2.5-0.021
					C269.811,476.035,268.971,476.047,268.141,476.047z M444.19,335.906l-0.013,0.42c0.013-0.141,0.021-0.279,0.03-0.42H444.19z
					 M444.27,334.438c-0.01,0.488-0.027,0.979-0.06,1.469h0.08L444.27,334.438z M233.6,335.486l0.01,0.42h0.01
					c0.01,0.131,0.02,0.25,0.03,0.381C233.63,336.025,233.61,335.756,233.6,335.486z M268.141,476.047
					c-0.851,0.01-1.688,0.02-2.529,0.02c0.841,0,1.681-0.01,2.529-0.01c0.83-0.01,1.67-0.021,2.5-0.021
					C269.811,476.035,268.971,476.047,268.141,476.047z M444.19,335.906l-0.013,0.42c0.013-0.141,0.021-0.279,0.03-0.42H444.19z
					 M444.27,334.438c-0.01,0.488-0.027,0.979-0.06,1.469h0.08L444.27,334.438z M444.27,334.438c-0.01,0.488-0.027,0.979-0.06,1.469
					h0.08L444.27,334.438z M444.19,335.906l-0.013,0.42c0.013-0.141,0.021-0.279,0.03-0.42H444.19z M268.141,476.047
					c-0.851,0.01-1.688,0.02-2.529,0.02c0.841,0,1.681-0.01,2.529-0.01c0.83-0.01,1.67-0.021,2.5-0.021
					C269.811,476.035,268.971,476.047,268.141,476.047z M233.6,335.486l0.01,0.42h0.01c0.01,0.131,0.02,0.25,0.03,0.381
					C233.63,336.025,233.61,335.756,233.6,335.486z M233.6,335.486l0.01,0.42h0.01c0.01,0.131,0.02,0.25,0.03,0.381
					C233.63,336.025,233.61,335.756,233.6,335.486z M268.141,476.047c-0.851,0.01-1.688,0.02-2.529,0.02
					c0.841,0,1.681-0.01,2.529-0.01c0.83-0.01,1.67-0.021,2.5-0.021C269.811,476.035,268.971,476.047,268.141,476.047z
					 M444.27,334.438c-0.01,0.488-0.027,0.979-0.06,1.469h0.08L444.27,334.438z M444.19,335.906l-0.013,0.42
					c0.013-0.141,0.021-0.279,0.03-0.42H444.19z M444.27,334.438c-0.01,0.488-0.027,0.979-0.06,1.469h0.08L444.27,334.438z
					 M444.19,335.906l-0.013,0.42c0.013-0.141,0.021-0.279,0.03-0.42H444.19z M268.141,476.047c-0.851,0.01-1.688,0.02-2.529,0.02
					c0.841,0,1.681-0.01,2.529-0.01c0.83-0.01,1.67-0.021,2.5-0.021C269.811,476.035,268.971,476.047,268.141,476.047z
					 M233.6,335.486l0.01,0.42h0.01c0.01,0.131,0.02,0.25,0.03,0.381C233.63,336.025,233.61,335.756,233.6,335.486z"/>
				<path d="M236.58,333.406v0.5c0-0.199,0-0.398,0.01-0.59C236.58,333.348,236.58,333.377,236.58,333.406z M235.09,335.227v-0.82
					h-0.01C235.08,334.676,235.08,334.957,235.09,335.227z M444.19,335.906l-0.013,0.42c0.013-0.141,0.021-0.279,0.03-0.42H444.19z
					 M441.1,337.037c0.04-0.291,0.07-0.592,0.093-0.891v-0.063C441.16,336.406,441.13,336.717,441.1,337.037z M268.141,476.047
					c-0.851,0.01-1.688,0.02-2.529,0.02c0.841,0,1.681-0.01,2.529-0.01c0.83-0.01,1.67-0.021,2.5-0.021
					C269.811,476.035,268.971,476.047,268.141,476.047z M236.58,333.406v0.5c0-0.199,0-0.398,0.01-0.59
					C236.58,333.348,236.58,333.377,236.58,333.406z M235.09,335.227v-0.82h-0.01C235.08,334.676,235.08,334.957,235.09,335.227z
					 M444.19,335.906l-0.013,0.42c0.013-0.141,0.021-0.279,0.03-0.42H444.19z M441.1,337.037c0.04-0.291,0.07-0.592,0.093-0.891
					v-0.063C441.16,336.406,441.13,336.717,441.1,337.037z M268.141,476.047c-0.851,0.01-1.688,0.02-2.529,0.02
					c0.841,0,1.681-0.01,2.529-0.01c0.83-0.01,1.67-0.021,2.5-0.021C269.811,476.035,268.971,476.047,268.141,476.047z
					 M236.58,333.406v0.5c0-0.199,0-0.398,0.01-0.59C236.58,333.348,236.58,333.377,236.58,333.406z M235.09,335.227v-0.82h-0.01
					C235.08,334.676,235.08,334.957,235.09,335.227z M268.141,476.047c-0.851,0.01-1.688,0.02-2.529,0.02
					c0.841,0,1.681-0.01,2.529-0.01c0.83-0.01,1.67-0.021,2.5-0.021C269.811,476.035,268.971,476.047,268.141,476.047z
					 M444.19,335.906l-0.013,0.42c0.013-0.141,0.021-0.279,0.03-0.42H444.19z M441.1,337.037c0.04-0.291,0.07-0.592,0.093-0.891
					v-0.063C441.16,336.406,441.13,336.717,441.1,337.037z M444.19,335.906l-0.013,0.42c0.013-0.141,0.021-0.279,0.03-0.42H444.19z
					 M441.1,337.037c0.04-0.291,0.07-0.592,0.093-0.891v-0.063C441.16,336.406,441.13,336.717,441.1,337.037z M268.141,476.047
					c-0.851,0.01-1.688,0.02-2.529,0.02c0.841,0,1.681-0.01,2.529-0.01c0.83-0.01,1.67-0.021,2.5-0.021
					C269.811,476.035,268.971,476.047,268.141,476.047z M236.58,333.406v0.5c0-0.199,0-0.398,0.01-0.59
					C236.58,333.348,236.58,333.377,236.58,333.406z M235.09,335.227v-0.82h-0.01C235.08,334.676,235.08,334.957,235.09,335.227z
					 M236.58,333.406v0.5c0-0.199,0-0.398,0.01-0.59C236.58,333.348,236.58,333.377,236.58,333.406z M235.09,335.227v-0.82h-0.01
					C235.08,334.676,235.08,334.957,235.09,335.227z M268.141,476.047c-0.851,0.01-1.688,0.02-2.529,0.02
					c0.841,0,1.681-0.01,2.529-0.01c0.83-0.01,1.67-0.021,2.5-0.021C269.811,476.035,268.971,476.047,268.141,476.047z
					 M441.1,337.037c0.04-0.291,0.07-0.592,0.093-0.891v-0.063C441.16,336.406,441.13,336.717,441.1,337.037z M444.19,335.906
					l-0.013,0.42c0.013-0.141,0.021-0.279,0.03-0.42H444.19z M236.58,333.406v0.5c0-0.199,0-0.398,0.01-0.59
					C236.58,333.348,236.58,333.377,236.58,333.406z M235.09,335.227v-0.82h-0.01C235.08,334.676,235.08,334.957,235.09,335.227z
					 M268.141,476.047c-0.851,0.01-1.688,0.02-2.529,0.02c0.841,0,1.681-0.01,2.529-0.01c0.83-0.01,1.67-0.021,2.5-0.021
					C269.811,476.035,268.971,476.047,268.141,476.047z M441.1,337.037c0.04-0.291,0.07-0.592,0.093-0.891v-0.063
					C441.16,336.406,441.13,336.717,441.1,337.037z M444.19,335.906l-0.013,0.42c0.013-0.141,0.021-0.279,0.03-0.42H444.19z
					 M444.19,335.906l-0.013,0.42c0.013-0.141,0.021-0.279,0.03-0.42H444.19z M441.1,337.037c0.04-0.291,0.07-0.592,0.093-0.891
					v-0.063C441.16,336.406,441.13,336.717,441.1,337.037z M268.141,476.047c-0.851,0.01-1.688,0.02-2.529,0.02
					c0.841,0,1.681-0.01,2.529-0.01c0.83-0.01,1.67-0.021,2.5-0.021C269.811,476.035,268.971,476.047,268.141,476.047z
					 M236.58,333.406v0.5c0-0.199,0-0.398,0.01-0.59C236.58,333.348,236.58,333.377,236.58,333.406z M235.09,335.227v-0.82h-0.01
					C235.08,334.676,235.08,334.957,235.09,335.227z M236.58,333.406v0.5c0-0.199,0-0.398,0.01-0.59
					C236.58,333.348,236.58,333.377,236.58,333.406z M235.09,335.227v-0.82h-0.01C235.08,334.676,235.08,334.957,235.09,335.227z
					 M268.141,476.047c-0.851,0.01-1.688,0.02-2.529,0.02c0.841,0,1.681-0.01,2.529-0.01c0.83-0.01,1.67-0.021,2.5-0.021
					C269.811,476.035,268.971,476.047,268.141,476.047z M444.19,335.906l-0.013,0.42c0.013-0.141,0.021-0.279,0.03-0.42H444.19z
					 M441.1,337.037c0.04-0.291,0.07-0.592,0.093-0.891v-0.063C441.16,336.406,441.13,336.717,441.1,337.037z M236.58,333.406v0.5
					c0-0.199,0-0.398,0.01-0.59C236.58,333.348,236.58,333.377,236.58,333.406z M235.09,335.227v-0.82h-0.01
					C235.08,334.676,235.08,334.957,235.09,335.227z M444.19,335.906l-0.013,0.42c0.013-0.141,0.021-0.279,0.03-0.42H444.19z
					 M441.1,337.037c0.04-0.291,0.07-0.592,0.093-0.891v-0.063C441.16,336.406,441.13,336.717,441.1,337.037z M268.141,476.047
					c-0.851,0.01-1.688,0.02-2.529,0.02c0.841,0,1.681-0.01,2.529-0.01c0.83-0.01,1.67-0.021,2.5-0.021
					C269.811,476.035,268.971,476.047,268.141,476.047z M236.58,333.406v0.5c0-0.199,0-0.398,0.01-0.59
					C236.58,333.348,236.58,333.377,236.58,333.406z M235.09,335.227v-0.82h-0.01C235.08,334.676,235.08,334.957,235.09,335.227z
					 M444.19,335.906l-0.013,0.42c0.013-0.141,0.021-0.279,0.03-0.42H444.19z M441.1,337.037c0.04-0.291,0.07-0.592,0.093-0.891
					v-0.063C441.16,336.406,441.13,336.717,441.1,337.037z M268.141,476.047c-0.851,0.01-1.688,0.02-2.529,0.02
					c0.841,0,1.681-0.01,2.529-0.01c0.83-0.01,1.67-0.021,2.5-0.021C269.811,476.035,268.971,476.047,268.141,476.047z
					 M268.141,476.047c-0.851,0.01-1.688,0.02-2.529,0.02c0.841,0,1.681-0.01,2.529-0.01c0.83-0.01,1.67-0.021,2.5-0.021
					C269.811,476.035,268.971,476.047,268.141,476.047z M236.58,333.406v0.5c0-0.199,0-0.398,0.01-0.59
					C236.58,333.348,236.58,333.377,236.58,333.406z M235.09,335.227v-0.82h-0.01C235.08,334.676,235.08,334.957,235.09,335.227z
					 M444.19,335.906l-0.013,0.42c0.013-0.141,0.021-0.279,0.03-0.42H444.19z M441.1,337.037c0.04-0.291,0.07-0.592,0.093-0.891
					v-0.063C441.16,336.406,441.13,336.717,441.1,337.037z"/>
				<path d="M455.9,332.906h-0.053c-0.938-18.721-14.09-34.318-32.26-38.119c-3.71-0.771-7.57-0.881-10.85-0.881
					c-1.012,0-2.03,0.01-3.03,0.02c-1,0.012-1.99,0.021-2.97,0.021H262.4c-17.333,0-32.853,11.311-38.63,28.15
					c-1.62,4.719-2.26,9.67-1.91,14.719v107.59c-1.02,15.223,7.39,30.58,20.94,38.23c7.8,4.42,16.37,5.027,24.479,5.027H414.32
					c13.88,0,26.067-6.18,34.33-17.389c4.38-5.91,6.93-13.75,7.22-22.111l0.02-0.43c0-0.08,0-0.17,0.013-0.26l0.01-113.07
					L455.9,332.906z M233.62,335.906h-0.01l-0.01-0.42c0.01,0.27,0.03,0.539,0.05,0.801
					C233.64,336.156,233.63,336.037,233.62,335.906z M235.09,335.227c-0.01-0.271-0.01-0.551-0.01-0.82h0.01V335.227z
					 M236.58,333.406c0-0.029,0-0.061,0.01-0.09c0-0.199,0.01-0.4,0.03-0.59c-0.01-0.07-0.01-0.131,0.01-0.189
					c0.01-0.398,0.04-0.791,0.1-1.182c-0.01-0.09,0-0.17,0.02-0.26c0.04-0.41,0.1-0.82,0.18-1.221c-0.01-0.051,0-0.102,0.02-0.148
					c0.04-0.313,0.1-0.609,0.18-0.91c0.03-0.211,0.07-0.41,0.12-0.609c0.1-0.42,0.21-0.84,0.34-1.262
					c0.08-0.299,0.18-0.607,0.29-0.898c0.33-1.021,0.74-2.021,1.22-3c4.41-9.061,13.7-14.471,24.83-14.471h143.19l5.37-0.01
					c1.34,0,2.67,0.01,4.01,0.029c1.42,0.021,2.81,0.17,4.16,0.438c0.24,0.041,0.47,0.092,0.7,0.141
					c0.46,0.109,0.907,0.223,1.357,0.359c0.353,0.092,0.7,0.201,1.04,0.32c0.38,0.131,0.76,0.271,1.13,0.42
					c0.313,0.121,0.62,0.25,0.933,0.391c0.16,0.063,0.31,0.143,0.47,0.223c0.27,0.117,0.54,0.25,0.8,0.389
					c0.36,0.182,0.71,0.371,1.063,0.58c0.35,0.189,0.688,0.398,1.027,0.631c0.34,0.209,0.67,0.439,1,0.68
					c0.313,0.211,0.62,0.439,0.92,0.682c0.03,0.029,0.07,0.051,0.103,0.08c0.28,0.221,0.56,0.449,0.83,0.689
					c0.22,0.18,0.438,0.379,0.66,0.59c0.17,0.141,0.327,0.301,0.487,0.459c0.15,0.143,0.303,0.291,0.44,0.439
					c0.12,0.121,0.24,0.24,0.35,0.371c0.2,0.188,0.38,0.398,0.563,0.6c0.067,0.08,0.14,0.15,0.188,0.23
					c0.21,0.229,0.41,0.459,0.59,0.697c0.07,0.07,0.133,0.15,0.19,0.23c0.17,0.209,0.34,0.43,0.5,0.648
					c0.2,0.262,0.39,0.541,0.58,0.82c0.14,0.189,0.27,0.391,0.41,0.602c0.05,0.078,0.107,0.17,0.16,0.26
					c0.17,0.27,0.34,0.549,0.5,0.83c0.63,1.09,1.188,2.219,1.657,3.398c0.28,0.66,0.521,1.352,0.74,2.041
					c0,0.01,0.01,0.02,0.01,0.039c0.23,0.711,0.423,1.439,0.58,2.182c0.103,0.459,0.19,0.92,0.271,1.379
					c0.069,0.4,0.13,0.811,0.17,1.229c0.06,0.41,0.1,0.82,0.12,1.24c0.04,0.49,0.06,0.98,0.067,1.48
					c-0.01,0.568-0.038,1.141-0.077,1.699v0.061c-0.021,0.301-0.053,0.6-0.093,0.891c-0.107,0.939-0.26,1.859-0.47,2.771
					c-0.18,0.811-0.398,1.602-0.66,2.381c-0.13,0.391-0.27,0.779-0.41,1.16c-0.17,0.438-0.34,0.869-0.54,1.289
					c-0.288,0.68-0.63,1.35-0.987,2.01c0,0.012-0.013,0.021-0.021,0.041c-0.38,0.688-0.8,1.369-1.24,2.02
					c-0.897,1.33-1.907,2.57-3.027,3.701c-0.271,0.289-0.563,0.568-0.853,0.84c-2.46,2.301-5.35,4.109-8.52,5.318
					c-0.21,0.08-0.42,0.16-0.63,0.229c-0.183,0.07-0.36,0.131-0.551,0.189c-0.439,0.15-0.882,0.271-1.329,0.391
					c-0.44,0.119-0.9,0.223-1.353,0.32c-1.68,0.359-3.42,0.539-5.188,0.539H270.641c-0.858,0-1.721,0.01-2.57,0.021
					c-0.85,0.01-1.698,0.02-2.551,0.02c-3.42,0-7.067-0.141-10.56-1.1c-3.56-0.98-6.79-2.791-9.52-5.199
					c-0.24-0.221-0.49-0.451-0.73-0.682c-0.97-0.92-1.85-1.91-2.65-2.971c-0.38-0.5-0.75-1.01-1.09-1.529
					c-0.35-0.529-0.68-1.061-0.98-1.609l-0.01-0.01c-0.31-0.551-0.6-1.109-0.86-1.682c-0.41-0.859-0.77-1.738-1.08-2.648
					c-0.29-0.83-0.54-1.682-0.74-2.551c-0.11-0.439-0.21-0.881-0.28-1.33c-0.05-0.26-0.1-0.52-0.14-0.789
					c-0.06-0.432-0.12-0.852-0.17-1.279c-0.02-0.24-0.04-0.471-0.06-0.701c-0.03-0.318-0.05-0.648-0.06-0.969v-0.15l-0.01-1.01
					V333.406L236.58,333.406z M268.141,476.057c-0.851,0-1.688,0.01-2.529,0.01c0.841,0,1.681-0.01,2.529-0.02
					c0.83,0,1.67-0.012,2.5-0.012C269.811,476.035,268.971,476.047,268.141,476.057z M441.27,447.396c0,0.109-0.01,0.229-0.01,0.289
					c-0.24,7.109-3.21,13.439-7.87,18c-0.29,0.289-0.59,0.57-0.897,0.84c-1.21,1.08-2.54,2.051-3.94,2.891
					c-0.71,0.422-1.43,0.813-2.18,1.16c-3.353,1.58-7.09,2.459-11.05,2.459H270.641c-0.841,0-1.688,0.012-2.529,0.021
					c-0.829,0-1.67,0.01-2.5,0.01c-1.729,0-3.512-0.029-5.312-0.188c-0.34-0.031-0.67-0.063-1-0.102
					c-0.5-0.061-1.01-0.121-1.51-0.201s-1-0.18-1.5-0.277c-0.44-0.092-0.88-0.201-1.32-0.32c-1.23-0.34-2.42-0.771-3.56-1.301
					c-0.76-0.352-1.5-0.738-2.22-1.158c-1.08-0.641-2.1-1.361-3.07-2.15c-5.66-4.648-9.3-11.811-9.53-19.631v-0.129
					c-0.01-0.531-0.01-1.051,0-1.631v-80.439c1.93,1.629,4.01,3.08,6.2,4.32c7.79,4.41,16.37,5.01,24.479,5.01h147.038
					c10.15,0,19.37-3.25,26.882-9.461v80.111c0.051,0.568,0.068,1.148,0.091,1.688L441.27,447.396z M444.21,335.906
					c-0.01,0.141-0.02,0.279-0.03,0.42l0.013-0.42H444.21c0.03-0.49,0.05-0.98,0.06-1.471l0.021,1.471H444.21z"/>
			</g>
			<g>
				<path fill="#FFFFFF" d="M441.19,445.516v-80.109c-7.513,6.211-16.73,9.461-26.883,9.461H267.27
					c-8.107,0-16.688-0.602-24.479-5.01c-2.19-1.24-4.27-2.691-6.2-4.32v80.439c-0.01,0.58-0.01,1.1,0,1.631v0.129
					c0.23,7.82,3.87,14.98,9.53,19.631c0.97,0.789,1.99,1.512,3.07,2.148c0.72,0.422,1.46,0.811,2.22,1.16
					c1.14,0.529,2.33,0.961,3.56,1.301c0.44,0.119,0.88,0.229,1.32,0.32c0.5,0.1,1,0.197,1.5,0.277s1.01,0.143,1.51,0.201
					c0.33,0.039,0.66,0.068,1,0.102c1.801,0.158,3.58,0.188,5.311,0.188c0.83,0,1.672-0.01,2.5-0.01
					c0.842-0.01,1.689-0.021,2.529-0.021h144.681c3.96,0,7.697-0.879,11.05-2.459c0.75-0.352,1.47-0.738,2.18-1.16
					c1.4-0.84,2.73-1.811,3.94-2.891c0.31-0.27,0.607-0.551,0.897-0.84c4.66-4.561,7.63-10.891,7.87-18
					c0-0.061,0.01-0.18,0.01-0.289l0.013-0.191C441.26,446.666,441.24,446.086,441.19,445.516z M338.84,426.695
					c-9.05,0-16.397-7.357-16.397-16.41c0-9.039,7.35-16.398,16.397-16.398c9.04,0,16.4,7.359,16.4,16.398
					C355.24,419.336,347.88,426.695,338.84,426.695z"/>
				<path d="M254.97,471.967c-1.23-0.34-2.42-0.771-3.56-1.291c1.14,0.529,2.33,0.961,3.56,1.301c0.44,0.119,0.88,0.229,1.32,0.32
					C255.85,472.195,255.41,472.086,254.97,471.967z M268.109,473.047c-0.83,0.01-1.67,0.02-2.5,0.02c0.83,0,1.67-0.01,2.5-0.01
					c0.841-0.01,1.688-0.021,2.529-0.021C269.8,473.035,268.95,473.047,268.109,473.047z"/>
			</g>
			<g>
				<path fill="#FFFFFF" d="M441.27,334.387c-0.01,0.568-0.037,1.141-0.077,1.699v0.061c-0.021,0.301-0.053,0.6-0.093,0.891
					c-0.107,0.939-0.26,1.859-0.47,2.771c-0.18,0.811-0.397,1.602-0.66,2.381c-0.13,0.391-0.27,0.777-0.41,1.16
					c-0.17,0.438-0.34,0.867-0.54,1.289c-0.289,0.68-0.63,1.35-0.987,2.01c0,0.012-0.013,0.021-0.021,0.041
					c-0.38,0.688-0.8,1.369-1.24,2.02c-0.897,1.33-1.907,2.57-3.027,3.701c-0.271,0.289-0.563,0.568-0.853,0.84
					c-2.46,2.301-5.35,4.109-8.52,5.318c-0.21,0.08-0.42,0.16-0.63,0.229c-0.183,0.07-0.36,0.133-0.55,0.189
					c-0.433,0.141-0.883,0.271-1.33,0.391c-0.44,0.119-0.9,0.223-1.353,0.32c-1.68,0.359-3.42,0.539-5.188,0.539H270.641
					c-0.858,0-1.721,0.01-2.57,0.021c-0.85,0.01-1.698,0.02-2.551,0.02c-3.42,0-7.067-0.139-10.56-1.1
					c-3.56-0.98-6.79-2.789-9.52-5.199c-0.24-0.221-0.49-0.451-0.73-0.682c-0.97-0.92-1.85-1.908-2.65-2.971
					c-0.38-0.5-0.75-1.01-1.09-1.529c-0.34-0.529-0.67-1.061-0.98-1.609l-0.01-0.01c-0.3-0.551-0.59-1.109-0.86-1.682
					c-0.41-0.857-0.77-1.738-1.08-2.648c-0.29-0.83-0.54-1.682-0.74-2.551c-0.11-0.439-0.21-0.881-0.28-1.33
					c-0.05-0.26-0.1-0.52-0.14-0.789c-0.06-0.432-0.12-0.852-0.17-1.279c-0.02-0.24-0.04-0.471-0.06-0.701
					c-0.03-0.318-0.05-0.648-0.06-0.969v-0.15l-0.01-1.01v-0.66c0-0.029,0-0.061,0.01-0.09c0-0.201,0.01-0.4,0.03-0.59
					c-0.01-0.07-0.01-0.131,0.01-0.191c0.02-0.396,0.05-0.789,0.1-1.18c-0.01-0.09,0-0.17,0.02-0.26c0.05-0.41,0.1-0.82,0.18-1.221
					c-0.01-0.051,0-0.102,0.02-0.148c0.05-0.313,0.11-0.611,0.18-0.91c0.03-0.211,0.07-0.41,0.12-0.611
					c0.1-0.42,0.21-0.84,0.34-1.26c0.09-0.299,0.18-0.6,0.29-0.898c0.33-1.02,0.74-2.02,1.22-3c4.41-9.061,13.7-14.471,24.83-14.471
					h143.19l5.37-0.01c1.34,0,2.67,0.01,4.01,0.029c1.42,0.02,2.81,0.17,4.16,0.439c0.24,0.039,0.47,0.09,0.7,0.141
					c0.46,0.109,0.909,0.221,1.357,0.359c0.353,0.09,0.7,0.199,1.04,0.318c0.38,0.131,0.762,0.271,1.13,0.42
					c0.313,0.121,0.62,0.25,0.933,0.391c0.16,0.07,0.31,0.143,0.47,0.223c0.271,0.119,0.54,0.25,0.8,0.389
					c0.36,0.18,0.71,0.371,1.063,0.58c0.35,0.201,0.688,0.41,1.027,0.631c0.342,0.209,0.67,0.439,1,0.68
					c0.313,0.223,0.62,0.449,0.92,0.682c0.03,0.029,0.07,0.051,0.103,0.08c0.28,0.221,0.56,0.449,0.83,0.688
					c0.22,0.182,0.438,0.381,0.66,0.59c0.17,0.15,0.329,0.303,0.487,0.461c0.15,0.143,0.303,0.289,0.44,0.439
					c0.12,0.121,0.24,0.24,0.35,0.371c0.2,0.188,0.38,0.398,0.563,0.6c0.067,0.08,0.14,0.15,0.188,0.23
					c0.21,0.229,0.41,0.459,0.592,0.699c0.068,0.068,0.131,0.148,0.188,0.229c0.17,0.211,0.34,0.43,0.5,0.65
					c0.2,0.26,0.39,0.539,0.58,0.818c0.14,0.189,0.27,0.393,0.41,0.602c0.05,0.08,0.107,0.17,0.16,0.26
					c0.17,0.271,0.34,0.551,0.5,0.83c0.63,1.09,1.188,2.221,1.657,3.4c0.28,0.658,0.521,1.35,0.74,2.039
					c0,0.01,0.01,0.021,0.01,0.041c0.23,0.709,0.423,1.438,0.58,2.18c0.103,0.461,0.19,0.92,0.271,1.381
					c0.06,0.408,0.12,0.818,0.17,1.229s0.09,0.818,0.12,1.24C441.24,333.396,441.26,333.887,441.27,334.387z"/>
				<path d="M233.6,335.486l0.01,0.42h0.01c0.01,0.131,0.02,0.25,0.03,0.381C233.63,336.025,233.61,335.756,233.6,335.486z
					 M235.08,334.406c0,0.27,0,0.551,0.01,0.82v-0.82H235.08z M440.06,326.877c0.223,0.709,0.423,1.438,0.58,2.18
					C440.48,328.316,440.29,327.586,440.06,326.877z M444.27,334.438c-0.01,0.488-0.027,0.979-0.06,1.469h0.08L444.27,334.438z
					 M441.2,332.906l-0.01,3.182c0.04-0.563,0.067-1.131,0.077-1.699C441.26,333.887,441.24,333.396,441.2,332.906z"/>
			</g>
		</g>
		<g>
			<g>
				<path d="M235.09,334.406v0.82c-0.01-0.271-0.01-0.551-0.01-0.82H235.09z"/>
				<path d="M235.09,334.406v0.82c-0.01-0.271-0.01-0.551-0.01-0.82H235.09z"/>
			</g>
			<g>
				<path d="M441.27,334.387c-0.01,0.568-0.037,1.141-0.077,1.699v-3.182h0.01C441.24,333.396,441.26,333.887,441.27,334.387z"/>
				<path d="M444.21,335.906c-0.01,0.141-0.02,0.279-0.03,0.42l0.013-0.42H444.21z"/>
			</g>
		</g>
		<g>
			<g>
				<path fill="#FFFFFF" d="M342.94,410.285c0,2.262-1.843,4.102-4.103,4.102s-4.1-1.84-4.1-4.102c0-2.26,1.84-4.1,4.1-4.1
					S342.94,408.025,342.94,410.285z"/>
				<path fill="#C71C24" d="M338.84,393.887c-9.05,0-16.397,7.357-16.397,16.398c0,9.051,7.35,16.41,16.397,16.41
					c9.04,0,16.4-7.359,16.4-16.41C355.24,401.246,347.88,393.887,338.84,393.887z M338.84,414.387c-2.26,0-4.1-1.84-4.1-4.102
					c0-2.26,1.84-4.102,4.1-4.102s4.103,1.842,4.103,4.102C342.94,412.547,341.1,414.387,338.84,414.387z"/>
			</g>
		</g>
	</g>
	<g>
		<g>
			<g>
				<path fill="#C71C24" d="M447.899,238.656v48.571c0,3.607-2.932,6.539-6.54,6.539c-3.609,0-6.54-2.932-6.54-6.539v-48.571
					c0-3.609,2.931-6.54,6.54-6.54C444.97,232.117,447.899,235.046,447.899,238.656z"/>
			</g>
		</g>
		<g>
			<g>
				<path fill="#C71C24" d="M520,314.246c0,3.609-2.931,6.541-6.54,6.541h-48.57c-3.6,0-6.54-2.932-6.54-6.541
					c0-3.6,2.94-6.539,6.54-6.539h48.57C517.069,307.707,520,310.646,520,314.246z"/>
			</g>
		</g>
		<g>
			<g>
				<path fill="#C71C24" d="M500.739,261.598c0,1.75-0.682,3.389-1.92,4.629l-34.352,34.35c-1.229,1.23-2.87,1.91-4.62,1.91
					s-3.39-0.68-4.62-1.91c-1.238-1.229-1.92-2.879-1.92-4.629c0-1.74,0.682-3.381,1.92-4.621l34.342-34.34
					c1.238-1.239,2.88-1.92,4.62-1.92c1.75,0,3.398,0.681,4.63,1.92C500.05,258.216,500.739,259.847,500.739,261.598z"/>
			</g>
		</g>
	</g>
	<g>
		<g>
			<g>
				<path fill="#C71C24" d="M85.18,38.875v48.57c0,3.6-2.93,6.54-6.54,6.54c-3.61,0-6.54-2.94-6.54-6.54v-48.57
					c0-3.61,2.93-6.54,6.54-6.54C82.25,32.335,85.18,35.267,85.18,38.875z"/>
			</g>
		</g>
		<g>
			<g>
				<path fill="#C71C24" d="M61.65,114.465c0,3.61-2.94,6.54-6.54,6.54H6.54c-3.61,0-6.54-2.93-6.54-6.54c0-3.6,2.93-6.54,6.54-6.54
					h48.57C58.71,107.926,61.65,110.866,61.65,114.465z"/>
			</g>
		</g>
		<g>
			<g>
				<path fill="#C71C24" d="M64.77,100.795c-1.23,1.23-2.88,1.91-4.62,1.91c-1.75,0-3.39-0.68-4.63-1.91l-34.34-34.35
					c-1.24-1.23-1.92-2.88-1.92-4.62c0-1.75,0.68-3.39,1.92-4.63c1.23-1.23,2.88-1.91,4.62-1.91c1.75,0,3.39,0.68,4.63,1.91
					l34.34,34.35C67.32,94.097,67.32,98.247,64.77,100.795z"/>
			</g>
		</g>
	</g>
</g>
</svg>
