<?xml version="1.0" encoding="utf-8"?>
<!-- Generator: Adobe Illustrator 16.0.0, SVG Export Plug-In . SVG Version: 6.00 Build 0)  -->
<!DOCTYPE svg PUBLIC "-//W3C//DTD SVG 1.1//EN" "http://www.w3.org/Graphics/SVG/1.1/DTD/svg11.dtd">
<svg version="1.1" id="Layer_1" xmlns="http://www.w3.org/2000/svg" xmlns:xlink="http://www.w3.org/1999/xlink" x="0px" y="0px"
	 width="520px" height="520px" viewBox="0 0 520 520" enable-background="new 0 0 520 520" xml:space="preserve">
<g>
	<path d="M76.095,180.291c-4.13,0.317-7.221,3.923-6.904,8.053c0.302,3.936,3.588,6.926,7.47,6.926c0.192,0,0.388-0.006,0.582-0.021
		c21.017-1.614,44.65-6.342,70.246-14.057c26.035-7.847,51.23-6.669,74.881,3.498c3.812,1.637,8.217-0.125,9.854-3.929
		c1.635-3.806-0.123-8.218-3.93-9.853c-26.983-11.6-55.626-12.973-85.133-4.078C118.599,174.23,96.035,178.761,76.095,180.291
		L76.095,180.291z"/>
	<path fill="#C71C24" d="M76.096,212.167c-4.131,0.317-7.222,3.921-6.905,8.051c0.302,3.937,3.588,6.927,7.47,6.927
		c0.192,0,0.387-0.006,0.581-0.021c21.013-1.612,44.646-6.342,70.247-14.057c26.035-7.847,51.23-6.668,74.881,3.498
		c3.812,1.637,8.217-0.123,9.854-3.929c1.635-3.806-0.123-8.217-3.93-9.853c-26.983-11.6-55.626-12.973-85.133-4.078
		C118.594,206.107,96.031,210.637,76.096,212.167L76.096,212.167z"/>
	<path d="M76.095,371.545c-4.13,0.316-7.221,3.922-6.904,8.051c0.302,3.936,3.588,6.928,7.47,6.928c0.192,0,0.388-0.008,0.582-0.021
		c21.018-1.615,44.651-6.344,70.246-14.059c26.034-7.844,51.229-6.668,74.881,3.5c3.812,1.637,8.217-0.125,9.854-3.93
		c1.635-3.807-0.123-8.217-3.93-9.854c-26.986-11.6-55.628-12.975-85.133-4.078C118.6,365.484,96.036,370.012,76.095,371.545
		L76.095,371.545z"/>
	<path d="M76.095,403.42c-4.13,0.316-7.221,3.922-6.904,8.053c0.302,3.934,3.588,6.926,7.47,6.926c0.192,0,0.388-0.006,0.582-0.021
		c21.017-1.615,44.65-6.342,70.246-14.057c26.035-7.848,51.23-6.67,74.881,3.498c3.812,1.637,8.217-0.125,9.854-3.93
		c1.635-3.807-0.123-8.217-3.93-9.854c-26.983-11.6-55.626-12.973-85.133-4.078C118.599,397.359,96.035,401.887,76.095,403.42
		L76.095,403.42z"/>
	<path fill="#C71C24" d="M76.095,244.042c-4.13,0.316-7.221,3.922-6.904,8.053c0.302,3.935,3.588,6.926,7.47,6.926
		c0.192,0,0.388-0.006,0.582-0.022c21.018-1.614,44.651-6.343,70.246-14.058c26.034-7.845,51.229-6.668,74.881,3.5
		c3.812,1.636,8.217-0.125,9.854-3.93c1.635-3.806-0.123-8.217-3.93-9.854c-26.986-11.6-55.628-12.971-85.133-4.078
		C118.6,237.982,96.036,242.512,76.095,244.042L76.095,244.042z"/>
	<path d="M76.096,307.793c-4.131,0.316-7.222,3.922-6.905,8.051c0.302,3.938,3.588,6.928,7.47,6.928
		c0.192,0,0.387-0.006,0.581-0.021c21.013-1.613,44.646-6.342,70.247-14.057c26.035-7.846,51.231-6.668,74.881,3.498
		c3.812,1.637,8.217-0.123,9.854-3.93c1.635-3.807-0.123-8.217-3.93-9.854c-26.984-11.599-55.628-12.972-85.133-4.078
		C118.594,301.734,96.031,306.263,76.096,307.793L76.096,307.793z"/>
	<path fill="#C71C24" d="M76.095,275.918c-4.13,0.316-7.221,3.922-6.904,8.053c0.302,3.936,3.588,6.926,7.47,6.926
		c0.192,0,0.388-0.006,0.582-0.021c21.017-1.614,44.65-6.342,70.246-14.057c26.034-7.846,51.227-6.67,74.881,3.498
		c3.812,1.637,8.217-0.125,9.854-3.93c1.635-3.807-0.123-8.217-3.93-9.854c-26.984-11.599-55.629-12.972-85.133-4.078
		C118.599,269.857,96.035,274.387,76.095,275.918L76.095,275.918z"/>
	<path d="M76.096,339.668c-4.131,0.316-7.222,3.922-6.905,8.051c0.302,3.938,3.588,6.928,7.47,6.928
		c0.192,0,0.387-0.006,0.581-0.021c21.017-1.611,44.649-6.342,70.247-14.057c26.034-7.844,51.229-6.668,74.881,3.5
		c3.812,1.635,8.217-0.125,9.854-3.93c1.635-3.807-0.123-8.217-3.93-9.854c-26.986-11.602-55.628-12.973-85.133-4.078
		C118.598,333.607,96.034,338.137,76.096,339.668L76.096,339.668z"/>
	<path d="M451.25,188.344c0.316-4.13-2.773-7.736-6.904-8.053c-19.938-1.53-42.502-6.061-67.063-13.461
		c-29.506-8.894-58.15-7.522-85.134,4.078c-3.807,1.635-5.563,6.047-3.93,9.853c1.637,3.805,6.047,5.565,9.852,3.929
		c23.652-10.168,48.849-11.344,74.884-3.498c25.594,7.715,49.229,12.443,70.244,14.057c0.194,0.015,0.391,0.021,0.582,0.021
		C447.66,195.269,450.947,192.279,451.25,188.344z"/>
	<path d="M451.25,220.218c0.316-4.13-2.773-7.735-6.904-8.051c-19.936-1.53-42.498-6.06-67.063-13.462
		c-29.506-8.893-58.15-7.522-85.134,4.078c-3.807,1.636-5.563,6.047-3.93,9.853c1.637,3.806,6.047,5.563,9.852,3.929
		c23.652-10.169,48.849-11.344,74.884-3.498c25.6,7.715,49.234,12.445,70.246,14.057c0.192,0.015,0.389,0.021,0.58,0.021
		C447.66,227.144,450.947,224.154,451.25,220.218z"/>
	<path fill="#C71C24" d="M451.25,379.596c0.316-4.131-2.773-7.734-6.904-8.053c-19.94-1.531-42.504-6.061-67.063-13.463
		c-29.506-8.893-58.15-7.521-85.134,4.078c-3.807,1.637-5.563,6.047-3.93,9.854c1.637,3.807,6.047,5.564,9.852,3.932
		c23.652-10.168,48.847-11.35,74.884-3.5c25.594,7.715,49.227,12.443,70.244,14.057c0.194,0.016,0.391,0.023,0.582,0.023
		C447.66,386.523,450.947,383.531,451.25,379.596z"/>
	<path d="M451.25,411.471c0.316-4.131-2.773-7.734-6.904-8.053c-19.938-1.531-42.502-6.061-67.063-13.461
		c-29.506-8.895-58.15-7.523-85.134,4.076c-3.807,1.637-5.563,6.049-3.93,9.854c1.637,3.807,6.047,5.564,9.852,3.932
		c23.652-10.172,48.849-11.346,74.884-3.498c25.594,7.713,49.229,12.441,70.244,14.055c0.194,0.016,0.391,0.023,0.582,0.023
		C447.66,418.398,450.947,415.406,451.25,411.471z"/>
	<path d="M451.25,252.095c0.316-4.13-2.773-7.735-6.904-8.052c-19.94-1.531-42.504-6.061-67.063-13.463
		c-29.506-8.893-58.15-7.521-85.134,4.078c-3.807,1.637-5.563,6.048-3.93,9.854c1.637,3.805,6.047,5.564,9.852,3.93
		c23.652-10.168,48.847-11.347,74.884-3.5c25.594,7.715,49.227,12.445,70.244,14.058c0.194,0.015,0.391,0.022,0.582,0.022
		C447.66,259.021,450.947,256.03,451.25,252.095z"/>
	<path fill="#C71C24" d="M451.25,315.844c0.316-4.129-2.773-7.734-6.904-8.051c-19.936-1.529-42.498-6.059-67.063-13.463
		c-29.508-8.893-58.15-7.521-85.134,4.078c-3.807,1.637-5.563,6.047-3.93,9.854c1.637,3.807,6.047,5.564,9.852,3.93
		c23.652-10.168,48.849-11.344,74.884-3.498c25.6,7.715,49.234,12.445,70.246,14.057c0.192,0.016,0.389,0.021,0.58,0.021
		C447.66,322.77,450.947,319.779,451.25,315.844z"/>
	<path d="M451.25,283.97c0.316-4.131-2.773-7.735-6.904-8.054c-19.938-1.53-42.502-6.061-67.063-13.461
		c-29.506-8.896-58.148-7.522-85.134,4.078c-3.807,1.636-5.563,6.047-3.93,9.853c1.637,3.806,6.047,5.563,9.852,3.931
		c23.654-10.171,48.849-11.345,74.884-3.498c25.594,7.713,49.229,12.442,70.244,14.055c0.194,0.016,0.391,0.022,0.582,0.022
		C447.66,290.896,450.947,287.904,451.25,283.97z"/>
	<path fill="#C71C24" d="M451.25,347.719c0.316-4.129-2.773-7.734-6.904-8.051c-19.938-1.529-42.502-6.061-67.063-13.461
		c-29.506-8.895-58.15-7.521-85.134,4.078c-3.807,1.637-5.563,6.047-3.93,9.854c1.637,3.805,6.047,5.564,9.852,3.93
		c23.652-10.168,48.847-11.348,74.884-3.5c25.596,7.715,49.229,12.445,70.246,14.057c0.192,0.016,0.389,0.021,0.58,0.021
		C447.66,354.645,450.947,351.656,451.25,347.719z"/>
	<path fill="#C71C24" d="M296.84,496.861c-0.68,1.438-1.43,2.82-2.23,4.129c0.812-1.309,1.562-2.689,2.24-4.129
		c0.021-0.051,0.051-0.102,0.08-0.15c0.07-0.121,0.131-0.25,0.2-0.381C297.02,496.5,296.93,496.682,296.84,496.861z M250.08,502.98
		c1.07,0.461,2.17,0.84,3.28,1.141C252.25,503.811,251.15,503.432,250.08,502.98z M248.02,518.17c0.87,0.281,1.75,0.521,2.64,0.723
		C249.77,518.682,248.89,518.441,248.02,518.17z M323.18,445.08c11.291-1.77,23.08-1.75,35.12,0.281
		C345.42,443.15,333.66,443.391,323.18,445.08z M267.721,152.481v0.01c0.51-0.48,1.029-0.95,1.549-1.42
		C268.68,151.591,268.16,152.061,267.721,152.481z M268.04,452.09c5.29-3,21.069-14.85,45.479-20.438
		C287.779,437.42,271.48,449.961,268.04,452.09z M249.76,130.941c3.63,2.51,7.11,5.22,10.44,8.1c0.01-0.01,0.01-0.01,0.02-0.02
		C257.61,136.741,254.11,133.921,249.76,130.941z M251.53,467.91c0.9,0.271,1.8,0.49,2.72,0.66
		C253.33,468.391,252.43,468.17,251.53,467.91z M243.44,464.211c0.67,0.432,1.35,0.84,2.04,1.199
		C244.78,465.041,244.11,464.631,243.44,464.211z M205.53,446.73c-0.51-0.131-1.02-0.25-1.53-0.359c0.52,0.119,1.03,0.24,1.54,0.369
		c0.02,0,0.04,0,0.06,0.01C205.58,446.74,205.55,446.74,205.53,446.73z M221.65,452.01c-1.05-0.447-2.1-0.867-3.17-1.27
		c-0.53-0.209-1.07-0.41-1.61-0.6c-0.54-0.199-1.07-0.391-1.61-0.57c-0.54-0.189-1.08-0.369-1.62-0.539
		c-0.55-0.182-1.09-0.352-1.63-0.521c-0.12-0.039-0.25-0.08-0.37-0.109c-0.12-0.029-0.24-0.07-0.37-0.102
		c5.49,1.672,10.48,3.672,14.97,5.803C224.72,453.361,223.2,452.66,221.65,452.01z M246.42,147.081c-0.53-0.43-1.07-0.85-1.61-1.26
		c-0.46-0.35-0.92-0.69-1.39-1.04c-0.92-0.68-1.86-1.35-2.81-2c-1.43-0.99-2.88-1.93-4.36-2.84c-0.49-0.31-0.99-0.61-1.49-0.9
		c-0.5-0.3-1-0.58-1.5-0.87c-0.47-0.27-0.95-0.54-1.43-0.8c-0.06-0.03-0.12-0.07-0.19-0.11c-0.48-0.25-0.96-0.51-1.44-0.76
		c-0.32-0.17-0.64-0.34-0.96-0.5c-0.43-0.23-0.87-0.45-1.31-0.66c-4.36-2.16-8.91-4.03-13.6-5.57c-0.55-0.18-1.11-0.36-1.66-0.53
		c-0.69-0.22-1.37-0.42-2.07-0.62c-1.08-0.32-2.17-0.61-3.27-0.89c-1.18-0.3-2.37-0.58-3.57-0.84c-0.6-0.13-1.2-0.26-1.81-0.38
		c-0.6-0.12-1.21-0.23-1.81-0.34c-0.61-0.12-1.22-0.22-1.83-0.32c23.71,4.04,40.9,15.42,49.7,22.53
		C247.48,147.941,246.96,147.511,246.42,147.081z M160.96,110.971c-0.19,0.03-0.38,0.07-0.57,0.12c23.49-3.81,46.04-0.88,65.96,7.19
		C209.33,111.291,187.24,106.741,160.96,110.971z M158.89,430.67c17.86-3.139,33.69-2.109,47.04,0.762
		C192.65,428.5,176.87,427.461,158.89,430.67z M129.25,438.361c0.39-0.102,0.78-0.201,1.16-0.301c0.04-0.012,0.09-0.021,0.14-0.029
		c1.9-0.512,3.86-1.051,5.82-1.611C134.05,437.07,131.67,437.721,129.25,438.361z M100.91,140.551c1.73-0.29,3.48-0.6,5.28-0.94
		C104.39,139.941,102.63,140.25,100.91,140.551z M58.93,144.081c8.58,0.19,19.61-0.29,33.29-2.2
		C78.18,143.801,67.1,144.241,58.93,144.081z"/>
	<path fill="#C71C24" d="M319.17,126.381c0.23-0.05,0.45-0.09,0.68-0.12c0.15-0.04,0.302-0.07,0.45-0.09
		C319.92,126.231,319.54,126.301,319.17,126.381z"/>
	<path fill="#C71C24" d="M314.84,446.75c0.021-0.01,0.04-0.01,0.062-0.01l0.01-0.01C314.891,446.74,314.859,446.74,314.84,446.75z
		 M205.53,446.73l0.01,0.01c0.02,0,0.04,0,0.06,0.01C205.58,446.74,205.55,446.74,205.53,446.73z"/>
	<path d="M497.9,151.991h-11.74v15h11.74c1.83,0,3.319,1.48,3.319,3.31v304.15c0,1.83-1.489,3.309-3.319,3.309H303.57
		c-8.68,0-16.641,4.98-20.291,12.691c-0.629,1.34-1.35,2.59-2.149,3.74c-0.21,0.309-0.42,0.6-0.649,0.889
		c-0.83,1.121-1.75,2.131-2.729,3.063c-0.66,0.629-1.34,1.209-2.05,1.75c-0.221,0.17-0.45,0.34-0.671,0.5
		c-0.46,0.318-0.921,0.617-1.399,0.908c-0.229,0.15-0.47,0.289-0.71,0.422c-0.319,0.18-0.641,0.35-0.97,0.52
		c-0.521,0.27-1.051,0.51-1.58,0.74c-0.012,0-0.012,0-0.012,0c-1.068,0.459-2.17,0.84-3.278,1.139c-4.479,1.211-9.24,1.211-13.72,0
		c-1.11-0.299-2.21-0.68-3.28-1.139c-0.01,0-0.01,0-0.01,0c-0.54-0.23-1.06-0.48-1.58-0.74c-0.33-0.17-0.65-0.34-0.97-0.52
		c-0.24-0.143-0.48-0.281-0.71-0.422c-0.48-0.291-0.94-0.59-1.4-0.908c-0.22-0.16-0.45-0.33-0.67-0.5
		c-0.71-0.541-1.39-1.121-2.05-1.75c-0.98-0.92-1.89-1.941-2.73-3.063c-0.23-0.289-0.44-0.58-0.65-0.889
		c-0.8-1.15-1.52-2.4-2.15-3.74c-3.65-7.711-11.61-12.691-20.3-12.691H22.54c-1.83,0-3.32-1.479-3.32-3.309v-304.15
		c0-1.83,1.49-3.31,3.32-3.31h11.74v-15H22.54c-10.1,0-18.32,8.21-18.32,18.31v304.15c0,10.1,8.22,18.309,18.32,18.309h194.33
		c2.18,0,4.2,0.9,5.58,2.41c0.23,0.25,0.45,0.521,0.63,0.803c0.08,0.117,0.16,0.238,0.23,0.357c0.11,0.17,0.2,0.352,0.29,0.531
		c0.68,1.438,1.43,2.82,2.23,4.129c1.89,3.061,4.09,5.76,6.54,8.08c0.79,0.74,1.6,1.451,2.43,2.121c0.31,0.25,0.63,0.5,0.95,0.729
		c0.63,0.48,1.28,0.939,1.94,1.379c0.33,0.223,0.67,0.432,1,0.643c0.01,0,0.01,0,0.01,0c0.9,0.559,1.81,1.08,2.73,1.549
		c0.47,0.24,0.94,0.471,1.41,0.691c0.63,0.289,1.27,0.568,1.91,0.828c0.64,0.262,1.29,0.5,1.94,0.73c0.44,0.16,0.88,0.299,1.33,0.43
		c0.87,0.271,1.75,0.512,2.64,0.721c0.45,0.109,0.91,0.211,1.37,0.301c0.89,0.17,1.79,0.318,2.69,0.449c3.65,0.479,7.351,0.479,11,0
		c0.899-0.131,1.8-0.279,2.689-0.449c0.46-0.102,0.909-0.191,1.368-0.301c0.892-0.209,1.771-0.449,2.642-0.721
		c0.45-0.141,0.892-0.279,1.33-0.43c0.649-0.23,1.3-0.471,1.938-0.73c0.642-0.26,1.281-0.539,1.91-0.828
		c0.471-0.223,0.94-0.451,1.41-0.691c0.93-0.48,1.84-1,2.73-1.549h0.01c0.33-0.211,0.67-0.432,1-0.643
		c0.66-0.438,1.311-0.898,1.939-1.379c0.319-0.238,0.641-0.479,0.95-0.729c0.83-0.67,1.64-1.381,2.431-2.121
		c2.449-2.33,4.66-5.021,6.539-8.08c0.801-1.309,1.551-2.689,2.229-4.129c0.09-0.18,0.181-0.361,0.29-0.531
		c0.07-0.119,0.148-0.24,0.229-0.357c0.19-0.281,0.4-0.553,0.631-0.803c1.369-1.5,3.4-2.41,5.58-2.41H497.9
		c10.1,0,18.319-8.209,18.319-18.309v-304.15C516.221,160.201,508,151.991,497.9,151.991z"/>
	<path fill="#C71C24" d="M485.58,140.791c-0.051-0.19-0.109-0.38-0.17-0.57c-0.801-2.57-2.23-4.88-4.09-6.73
		c-0.181-0.19-0.37-0.37-0.57-0.54c-3.23-2.94-7.62-4.6-12.35-4.22c-0.99,0.08-2.07,0.15-3.24,0.21
		c-0.392,0.02-0.801,0.04-1.221,0.05c-0.421,0.02-0.851,0.04-1.289,0.05c-1.021,0.03-2.102,0.05-3.23,0.06
		c-1.79,0.01-3.73,0-5.8-0.07c-0.431-0.01-0.87-0.03-1.311-0.04c-0.881-0.03-1.791-0.07-2.721-0.12c-0.47-0.02-0.938-0.05-1.42-0.08
		c-1.93-0.1-3.949-0.25-6.08-0.44c-0.71-0.06-1.43-0.12-2.16-0.2c-0.729-0.07-1.47-0.14-2.229-0.23c-3.78-0.39-7.841-0.92-12.19-1.6
		c-1.688-0.26-3.43-0.55-5.199-0.86c-1.03-0.18-2.069-0.36-3.131-0.56c-0.58-0.11-1.16-0.22-1.75-0.33
		c-2.358-0.45-4.778-0.94-7.278-1.48c-0.83-0.17-1.671-0.36-2.511-0.55c-0.841-0.18-1.689-0.37-2.551-0.58
		c-2.58-0.59-5.229-1.229-7.949-1.92c-0.011,0-0.03,0-0.051-0.01c-5.63-1.43-11.57-3.07-17.811-4.95
		c-5.739-1.73-11.459-3.05-17.119-3.97c-0.04-0.01-0.07-0.02-0.11-0.02c-23.489-3.81-46.04-0.88-65.96,7.19
		c-0.939,0.38-1.869,0.78-2.8,1.18c-0.511,0.23-1.021,0.45-1.53,0.68c-0.48,0.22-0.97,0.45-1.449,0.67
		c-0.531,0.25-1.051,0.5-1.569,0.75c-0.562,0.27-1.11,0.54-1.65,0.82c-0.34,0.17-0.67,0.34-1,0.51c-0.39,0.2-0.778,0.4-1.159,0.61
		c-0.761,0.4-1.511,0.81-2.25,1.22c-0.699,0.39-1.381,0.78-2.051,1.17c-2.38,1.38-4.71,2.84-6.97,4.38
		c-0.33,0.22-0.65,0.44-0.979,0.67c-3.631,2.51-7.109,5.22-10.439,8.1c-0.01-0.01-0.01-0.01-0.02-0.02
		c-0.01,0.01-0.01,0.01-0.02,0.02c-3.33-2.88-6.81-5.59-10.44-8.1c-0.33-0.23-0.65-0.45-0.98-0.67c-2.13-1.45-4.46-2.92-6.97-4.38
		c-0.67-0.39-1.35-0.78-2.05-1.17c-0.74-0.41-1.49-0.82-2.25-1.22c-0.38-0.21-0.77-0.41-1.16-0.61c-0.33-0.17-0.66-0.34-1-0.51
		c-0.54-0.28-1.09-0.55-1.65-0.82c-0.52-0.25-1.04-0.5-1.57-0.75c-0.48-0.22-0.97-0.45-1.45-0.67c-0.51-0.23-1.02-0.45-1.53-0.68
		c-0.93-0.4-1.86-0.8-2.8-1.18c-19.92-8.07-42.47-11-65.96-7.19c-0.04,0-0.07,0.01-0.11,0.02c-5.66,0.92-11.38,2.24-17.12,3.97
		c-6.24,1.88-12.18,3.52-17.81,4.95c-0.02,0-0.03,0.01-0.05,0.01c-2.72,0.69-5.37,1.33-7.95,1.92c-0.86,0.2-1.71,0.39-2.55,0.58
		c-0.84,0.19-1.68,0.38-2.51,0.55c-2.5,0.54-4.92,1.03-7.28,1.48c-0.59,0.11-1.17,0.22-1.75,0.33c-1.06,0.2-2.1,0.38-3.13,0.56
		c-1.77,0.31-3.51,0.6-5.2,0.86c-4.35,0.68-8.41,1.21-12.19,1.6c-0.76,0.09-1.5,0.16-2.23,0.23c-0.73,0.08-1.45,0.14-2.16,0.2
		c-2.13,0.19-4.15,0.34-6.08,0.44c-0.48,0.03-0.95,0.06-1.42,0.08c-0.93,0.05-1.84,0.09-2.72,0.12c-0.44,0.01-0.88,0.03-1.31,0.04
		c-2.07,0.07-4.01,0.08-5.8,0.07c-1.13-0.01-2.21-0.03-3.23-0.06c-0.44-0.01-0.87-0.03-1.29-0.05c-0.42-0.01-0.83-0.03-1.22-0.05
		c-1.18-0.06-2.26-0.13-3.24-0.21c-4.73-0.38-9.12,1.28-12.35,4.22c-0.2,0.17-0.39,0.35-0.57,0.54c-1.87,1.86-3.29,4.16-4.09,6.73
		c-0.06,0.19-0.12,0.38-0.17,0.57c-0.38,1.38-0.58,2.84-0.58,4.35v309.061c0,3.4,2.29,6.379,5.58,7.25
		c1.42,0.379,35.77,9.01,107.63-12.65c1.24-0.369,2.46-0.721,3.68-1.041c0.98-0.27,1.96-0.52,2.93-0.75
		c0.59-0.139,1.17-0.277,1.76-0.408c1.12-0.262,2.24-0.49,3.34-0.711c0.99-0.189,1.97-0.369,2.94-0.529
		c12.88-2.209,24.64-1.971,35.12-0.279c0.07,0,0.13,0.01,0.2,0.029c0.52,0.08,1.04,0.16,1.55,0.26c0.28,0.041,0.56,0.09,0.84,0.15
		c0.39,0.068,0.78,0.141,1.17,0.221c0.5,0.1,1,0.199,1.5,0.309c0.49,0.102,0.99,0.201,1.48,0.32c0.51,0.111,1.02,0.23,1.53,0.361
		c0.02,0.01,0.05,0.01,0.07,0.02c0.02,0,0.03,0.01,0.05,0.01c2.01,0.48,4.01,1.021,5.99,1.641c0.12,0.029,0.25,0.07,0.37,0.109
		c0.55,0.16,1.09,0.33,1.63,0.521c0.54,0.17,1.08,0.35,1.62,0.539c0.54,0.18,1.07,0.371,1.61,0.57c0.54,0.189,1.08,0.391,1.61,0.6
		c1.07,0.4,2.12,0.82,3.17,1.271c3.68,1.529,7.27,3.279,10.77,5.238c0.49,0.262,0.98,0.541,1.46,0.83
		c0.49,0.271,0.97,0.551,1.45,0.84c0.31,0.182,0.61,0.361,0.91,0.553c0.3,0.18,0.6,0.357,0.89,0.549c0.07,0.041,0.14,0.08,0.2,0.121
		c0.52,0.318,1.02,0.639,1.51,0.959c1.28,0.83,2.47,1.641,3.58,2.42c0.34,0.238,0.68,0.471,1.02,0.689
		c0.67,0.42,1.34,0.83,2.04,1.199c0.25,0.131,0.49,0.26,0.74,0.391c0.48,0.24,0.97,0.471,1.46,0.689c0.01,0.01,0.02,0.01,0.03,0.02
		c1.24,0.553,2.52,1.012,3.82,1.4c0.9,0.26,1.8,0.48,2.72,0.66c0.39,0.08,0.79,0.15,1.19,0.211c0.02,0,0.03,0,0.04,0.01
		c0.49,0.07,0.97,0.129,1.46,0.189c0.31,0.029,0.62,0.061,0.93,0.08c1.57,0.121,3.14,0.109,4.7,0c0.31-0.021,0.619-0.051,0.93-0.08
		c0.49-0.061,0.971-0.119,1.46-0.189c0.011-0.01,0.021-0.01,0.04-0.01c0.4-0.061,0.8-0.131,1.189-0.211
		c0.92-0.18,1.819-0.4,2.721-0.66c1.3-0.389,2.58-0.85,3.82-1.4c0.01-0.01,0.02-0.01,0.028-0.02c0.49-0.219,0.98-0.449,1.462-0.689
		c0.25-0.131,0.488-0.26,0.738-0.391c0.7-0.369,1.37-0.779,2.04-1.199c0.34-0.229,0.681-0.451,1.011-0.689
		c1.18-0.83,2.381-1.641,3.59-2.42c0.489-0.32,0.989-0.641,1.51-0.959c0.061-0.041,0.131-0.08,0.201-0.121
		c0.289-0.189,0.59-0.369,0.89-0.549c0.3-0.191,0.601-0.371,0.909-0.553c0.541-0.318,1.08-0.639,1.621-0.938
		c0.42-0.25,0.85-0.5,1.279-0.723c2-1.129,4.029-2.18,6.09-3.148c4.121-1.98,8.359-3.68,12.699-5.08
		c0.54-0.189,1.08-0.359,1.63-0.521c2.101-0.658,4.222-1.238,6.36-1.75c0.021,0,0.03-0.01,0.05-0.01
		c0.021-0.01,0.051-0.01,0.07-0.02c0.51-0.131,1.02-0.25,1.529-0.359c0.489-0.121,0.989-0.221,1.479-0.32
		c0.5-0.109,1-0.211,1.5-0.311c0.391-0.08,0.78-0.15,1.17-0.219c0.28-0.063,0.562-0.111,0.84-0.15c0.511-0.1,1.03-0.18,1.552-0.26
		c0.068-0.012,0.14-0.031,0.198-0.031c10.48-1.689,22.24-1.93,35.12,0.281c0.97,0.16,1.95,0.34,2.94,0.529
		c1.1,0.221,2.22,0.449,3.34,0.709c0.59,0.131,1.17,0.271,1.76,0.41c0.971,0.23,1.95,0.48,2.93,0.75
		c1.222,0.32,2.44,0.67,3.682,1.039c71.85,21.66,106.2,13.031,107.63,12.65c3.29-0.869,5.58-3.85,5.58-7.25V145.141
		C486.16,143.631,485.96,142.171,485.58,140.791z M252.72,452.271c-0.1-0.063-0.21-0.111-0.32-0.182
		c-5.29-3-21.07-14.85-45.48-20.439c-0.33-0.08-0.66-0.15-0.99-0.221c-13.35-2.869-29.18-3.898-47.04-0.76
		c-1.1,0.199-2.21,0.41-3.33,0.641c-0.81,0.16-1.62,0.33-2.44,0.52c-1.62,0.361-3.25,0.75-4.9,1.18
		c-1.67,0.441-3.36,0.922-5.06,1.432c-2.2,0.66-4.46,1.318-6.79,1.979c-1.96,0.563-3.92,1.102-5.82,1.611
		c-0.05,0.01-0.1,0.02-0.14,0.029c-0.38,0.1-0.77,0.199-1.16,0.301c-0.8,0.209-1.62,0.43-2.44,0.629
		c-2.39,0.621-4.85,1.23-7.37,1.82c-0.03,0.01-0.07,0.02-0.11,0.02c-0.84,0.201-1.69,0.4-2.54,0.58
		c-1.69,0.391-3.39,0.771-5.12,1.131c-0.86,0.18-1.73,0.359-2.61,0.539c-0.87,0.18-1.74,0.352-2.61,0.521
		c-1.73,0.35-3.47,0.67-5.22,0.979c-0.88,0.16-1.76,0.311-2.64,0.461c-3.67,0.629-7.35,1.18-11.01,1.65
		c-0.71,0.09-1.43,0.18-2.15,0.27c-0.83,0.1-1.66,0.199-2.49,0.289c-2.59,0.291-5.16,0.531-7.71,0.711
		c-0.73,0.061-1.45,0.109-2.18,0.15c-0.72,0.049-1.45,0.09-2.16,0.119c-0.6,0.039-1.19,0.061-1.78,0.08
		c-0.26,0.02-0.52,0.029-0.77,0.029c-0.55,0.029-1.1,0.051-1.65,0.061c-0.6,0.02-1.2,0.029-1.8,0.039
		c-0.79,0.012-1.58,0.021-2.37,0.021c-4.58,0.01-9.02-0.201-13.24-0.66v-302.66c0-0.21,0.04-0.4,0.11-0.57
		c0.06-0.13,0.13-0.26,0.23-0.37c0.02-0.03,0.05-0.06,0.08-0.09c0.03-0.04,0.08-0.07,0.12-0.1c0.27-0.24,0.63-0.36,1.02-0.33
		c0.84,0.07,1.71,0.13,2.63,0.18c0.62,0.04,1.26,0.07,1.93,0.1c0.67,0.03,1.37,0.05,2.08,0.08c0.47,0.01,0.96,0.03,1.45,0.04
		c8.17,0.16,19.25-0.28,33.29-2.2c1.76-0.25,3.57-0.51,5.42-0.8c0.99-0.16,1.99-0.32,3.01-0.49c0.09-0.02,0.17-0.03,0.26-0.04
		c1.72-0.3,3.48-0.61,5.28-0.94c1.26-0.24,2.54-0.48,3.84-0.74c0.06-0.01,0.11-0.02,0.17-0.03c1.37-0.28,2.77-0.56,4.19-0.86
		c0.74-0.16,1.48-0.32,2.23-0.48c0.85-0.18,1.71-0.37,2.58-0.57c3.17-0.72,6.43-1.5,9.79-2.35c5.86-1.48,12.03-3.18,18.5-5.13
		c17.58-5.3,34.82-6.23,50.82-3.6c0.61,0.1,1.22,0.2,1.83,0.32c0.6,0.1,1.21,0.22,1.81,0.34c0.6,0.12,1.21,0.24,1.81,0.38
		c1.2,0.26,2.39,0.54,3.57,0.84c1.1,0.28,2.19,0.57,3.27,0.89c0.7,0.2,1.38,0.4,2.07,0.62c0.55,0.17,1.11,0.35,1.66,0.53
		c4.69,1.54,9.24,3.41,13.6,5.57c0.44,0.21,0.88,0.43,1.31,0.66c0.32,0.16,0.64,0.33,0.96,0.5c0.48,0.25,0.96,0.51,1.44,0.76
		c0.07,0.04,0.13,0.08,0.19,0.11c0.48,0.26,0.96,0.53,1.43,0.8c0.5,0.29,1,0.57,1.5,0.87c0.5,0.29,1,0.59,1.49,0.9
		c1.48,0.91,2.93,1.85,4.36,2.84c0.95,0.64,1.89,1.31,2.81,2c0.47,0.33,0.93,0.68,1.39,1.04c0.54,0.41,1.08,0.83,1.61,1.26
		c0.54,0.41,1.07,0.84,1.59,1.3c0.28,0.21,0.56,0.44,0.83,0.68c0.3,0.24,0.6,0.5,0.89,0.75c0.52,0.45,1,0.87,1.44,1.26
		c0.59,0.52,1.11,0.99,1.55,1.41V452.271z M471.16,447.801c-4.23,0.459-8.67,0.66-13.24,0.66c-0.79,0-1.58-0.01-2.37-0.02
		c-0.6-0.012-1.2-0.031-1.8-0.041c-0.55-0.01-1.1-0.029-1.65-0.061c-0.26-0.01-0.52-0.02-0.77-0.029
		c-0.59-0.021-1.18-0.041-1.78-0.08c-0.71-0.029-1.439-0.07-2.159-0.119c-0.729-0.041-1.45-0.09-2.181-0.15
		c-2.55-0.189-5.13-0.43-7.71-0.711c-0.83-0.09-1.66-0.188-2.49-0.289c-0.72-0.09-1.438-0.18-2.149-0.27
		c-3.681-0.471-7.359-1.031-11.011-1.65c-0.879-0.15-1.76-0.301-2.64-0.461c-1.75-0.309-3.489-0.629-5.22-0.979
		c-0.87-0.17-1.74-0.342-2.61-0.521c-0.88-0.18-1.75-0.359-2.609-0.539c-1.729-0.359-3.431-0.74-5.119-1.131
		c-0.852-0.18-1.7-0.379-2.541-0.58c-0.039,0-0.08-0.01-0.109-0.02c-2.52-0.59-4.979-1.199-7.37-1.82
		c-0.818-0.199-1.64-0.42-2.439-0.629c-0.391-0.102-0.779-0.201-1.16-0.301c-0.039-0.012-0.09-0.021-0.139-0.029
		c-1.9-0.51-3.861-1.051-5.82-1.611c-2.301-0.648-4.601-1.318-6.791-1.979c-1.699-0.51-3.389-0.99-5.06-1.432
		c-1.649-0.43-3.28-0.818-4.899-1.18c-0.82-0.18-1.631-0.35-2.44-0.52c-1.12-0.23-2.229-0.439-3.33-0.641
		c-17.859-3.141-33.689-2.109-47.04,0.76c-0.33,0.07-0.659,0.141-0.989,0.221c-24.41,5.59-40.189,17.439-45.479,20.439
		c-0.119,0.07-0.229,0.131-0.318,0.182V152.481c0.438-0.42,0.959-0.89,1.549-1.41c0.479-0.43,0.951-0.85,1.439-1.26
		c0.29-0.25,0.59-0.51,0.891-0.75c0.271-0.24,0.551-0.47,0.83-0.68c0.521-0.46,1.051-0.89,1.59-1.3c0.529-0.43,1.07-0.85,1.609-1.26
		c0.461-0.36,0.92-0.71,1.391-1.04c0.92-0.69,1.859-1.36,2.811-2c1.43-0.99,2.881-1.93,4.359-2.84c0.49-0.31,0.99-0.61,1.49-0.9
		c0.5-0.3,1-0.58,1.5-0.87c0.471-0.27,0.949-0.54,1.43-0.8c0.061-0.03,0.121-0.07,0.189-0.11c0.479-0.25,0.961-0.51,1.44-0.76
		c0.319-0.17,0.64-0.34,0.96-0.5c0.43-0.23,0.87-0.45,1.311-0.66c4.359-2.16,8.91-4.03,13.6-5.57c0.551-0.18,1.111-0.36,1.66-0.53
		c0.689-0.22,1.371-0.42,2.069-0.62c1.08-0.32,2.17-0.61,3.271-0.89c1.181-0.3,2.371-0.58,3.57-0.84c0.6-0.14,1.211-0.26,1.811-0.38
		c0.22-0.04,0.449-0.09,0.68-0.13c0.37-0.08,0.75-0.15,1.13-0.21c0.61-0.12,1.221-0.22,1.83-0.32c16-2.63,33.24-1.7,50.82,3.6
		c6.47,1.95,12.64,3.65,18.5,5.13c3.37,0.86,6.63,1.64,9.79,2.35c0.869,0.2,1.73,0.39,2.58,0.57c0.75,0.16,1.49,0.32,2.229,0.48
		c1.422,0.3,2.82,0.58,4.19,0.86c0.06,0.01,0.109,0.02,0.17,0.03c1.3,0.26,2.58,0.5,3.84,0.74c1.8,0.33,3.562,0.64,5.279,0.94
		c0.091,0.01,0.171,0.02,0.261,0.04c1.021,0.17,2.021,0.33,3.01,0.49c16.641,2.6,29.521,3.18,38.71,3c0.49-0.01,0.98-0.03,1.45-0.04
		c0.71-0.03,1.41-0.05,2.08-0.08c0.67-0.03,1.311-0.06,1.932-0.1c0.93-0.05,1.809-0.11,2.629-0.18c0.391-0.03,0.75,0.1,1.021,0.33
		c0.04,0.03,0.09,0.06,0.12,0.1c0.029,0.03,0.06,0.06,0.08,0.09c0.1,0.11,0.17,0.24,0.229,0.37c0.07,0.18,0.11,0.37,0.11,0.57
		v302.66H471.16z"/>
</g>
</svg>
