<?xml version="1.0" encoding="utf-8"?>
<!-- Generator: Adobe Illustrator 16.0.0, SVG Export Plug-In . SVG Version: 6.00 Build 0)  -->
<!DOCTYPE svg PUBLIC "-//W3C//DTD SVG 1.1//EN" "http://www.w3.org/Graphics/SVG/1.1/DTD/svg11.dtd">
<svg version="1.1" id="Layer_1" xmlns="http://www.w3.org/2000/svg" xmlns:xlink="http://www.w3.org/1999/xlink" x="0px" y="0px"
	 width="520px" height="520px" viewBox="0 0 520 520" enable-background="new 0 0 520 520" xml:space="preserve">
<g>
	<path d="M76.095,125.621c-4.13,0.317-7.221,3.923-6.904,8.053c0.302,3.936,3.588,6.926,7.47,6.926c0.192,0,0.388-0.006,0.582-0.021
		c21.017-1.614,44.65-6.342,70.246-14.057c26.035-7.847,51.23-6.669,74.881,3.498c3.812,1.637,8.217-0.125,9.854-3.929
		c1.635-3.806-0.123-8.218-3.93-9.853c-26.983-11.6-55.626-12.973-85.133-4.078C118.599,119.56,96.035,124.091,76.095,125.621
		L76.095,125.621z"/>
	<path fill="#C71C24" d="M76.096,157.497c-4.131,0.317-7.222,3.921-6.905,8.051c0.302,3.937,3.588,6.927,7.47,6.927
		c0.192,0,0.387-0.006,0.581-0.021c21.013-1.612,44.646-6.342,70.247-14.057c26.035-7.847,51.23-6.668,74.881,3.498
		c3.812,1.637,8.217-0.123,9.854-3.929c1.635-3.806-0.123-8.217-3.93-9.853c-26.983-11.6-55.626-12.973-85.133-4.078
		C118.594,151.437,96.031,155.967,76.096,157.497L76.096,157.497z"/>
	<path d="M76.095,316.875c-4.13,0.316-7.221,3.922-6.904,8.051c0.302,3.937,3.588,6.928,7.47,6.928c0.192,0,0.388-0.008,0.582-0.021
		c21.018-1.614,44.651-6.344,70.246-14.06c26.034-7.844,51.229-6.668,74.881,3.5c3.812,1.638,8.217-0.125,9.854-3.93
		c1.635-3.807-0.123-8.217-3.93-9.854c-26.986-11.6-55.628-12.975-85.133-4.078C118.6,310.814,96.036,315.342,76.095,316.875
		L76.095,316.875z"/>
	<path d="M76.095,348.75c-4.13,0.316-7.221,3.922-6.904,8.053c0.302,3.935,3.588,6.927,7.47,6.927c0.192,0,0.388-0.007,0.582-0.021
		c21.017-1.615,44.65-6.342,70.246-14.057c26.035-7.849,51.23-6.67,74.881,3.498c3.812,1.637,8.217-0.125,9.854-3.931
		c1.635-3.807-0.123-8.217-3.93-9.854c-26.983-11.6-55.626-12.973-85.133-4.078C118.599,342.689,96.035,347.217,76.095,348.75
		L76.095,348.75z"/>
	<path fill="#C71C24" d="M76.095,189.372c-4.13,0.316-7.221,3.922-6.904,8.053c0.302,3.935,3.588,6.926,7.47,6.926
		c0.192,0,0.388-0.006,0.582-0.022c21.018-1.614,44.651-6.343,70.246-14.058c26.034-7.845,51.229-6.668,74.881,3.5
		c3.812,1.636,8.217-0.125,9.854-3.93c1.635-3.806-0.123-8.217-3.93-9.854c-26.986-11.6-55.628-12.971-85.133-4.078
		C118.6,183.312,96.036,187.842,76.095,189.372L76.095,189.372z"/>
	<path d="M76.096,253.123c-4.131,0.316-7.222,3.922-6.905,8.051c0.302,3.938,3.588,6.928,7.47,6.928
		c0.192,0,0.387-0.006,0.581-0.021c21.013-1.612,44.646-6.342,70.247-14.058c26.035-7.846,51.231-6.668,74.881,3.498
		c3.812,1.638,8.217-0.123,9.854-3.93c1.635-3.807-0.123-8.217-3.93-9.854c-26.984-11.6-55.628-12.973-85.133-4.078
		C118.594,247.064,96.031,251.594,76.096,253.123L76.096,253.123z"/>
	<path fill="#C71C24" d="M76.095,221.248c-4.13,0.316-7.221,3.922-6.904,8.053c0.302,3.937,3.588,6.926,7.47,6.926
		c0.192,0,0.388-0.006,0.582-0.021c21.017-1.614,44.65-6.342,70.246-14.058c26.034-7.846,51.227-6.67,74.881,3.498
		c3.812,1.638,8.217-0.125,9.854-3.93c1.635-3.807-0.123-8.217-3.93-9.854c-26.984-11.599-55.629-12.972-85.133-4.078
		C118.599,215.188,96.035,219.717,76.095,221.248L76.095,221.248z"/>
	<path d="M76.096,284.998c-4.131,0.316-7.222,3.922-6.905,8.051c0.302,3.938,3.588,6.928,7.47,6.928
		c0.192,0,0.387-0.006,0.581-0.021c21.017-1.61,44.649-6.342,70.247-14.058c26.034-7.844,51.229-6.668,74.881,3.5
		c3.812,1.636,8.217-0.125,9.854-3.93c1.635-3.807-0.123-8.217-3.93-9.854c-26.986-11.602-55.628-12.973-85.133-4.078
		C118.598,278.938,96.034,283.467,76.096,284.998L76.096,284.998z"/>
	<path d="M451.25,133.674c0.316-4.13-2.773-7.736-6.904-8.053c-19.938-1.53-42.502-6.061-67.063-13.461
		c-29.506-8.894-58.15-7.522-85.135,4.078c-3.807,1.635-5.563,6.047-3.93,9.853c1.637,3.805,6.047,5.565,9.852,3.929
		c23.652-10.168,48.85-11.344,74.885-3.498c25.594,7.715,49.229,12.443,70.244,14.057c0.193,0.015,0.391,0.021,0.582,0.021
		C447.66,140.599,450.947,137.609,451.25,133.674z"/>
	<path d="M451.25,165.548c0.316-4.13-2.773-7.735-6.904-8.051c-19.936-1.53-42.498-6.06-67.063-13.462
		c-29.506-8.893-58.15-7.522-85.135,4.078c-3.807,1.636-5.563,6.047-3.93,9.853c1.637,3.806,6.047,5.563,9.852,3.929
		c23.652-10.169,48.85-11.344,74.885-3.498c25.6,7.715,49.234,12.445,70.246,14.057c0.191,0.015,0.389,0.021,0.58,0.021
		C447.66,172.474,450.947,169.484,451.25,165.548z"/>
	<path fill="#C71C24" d="M451.25,324.926c0.316-4.131-2.773-7.734-6.904-8.053c-19.939-1.531-42.504-6.061-67.063-13.463
		c-29.506-8.893-58.15-7.521-85.135,4.078c-3.807,1.637-5.563,6.047-3.93,9.854c1.637,3.807,6.047,5.564,9.852,3.932
		c23.652-10.168,48.848-11.35,74.885-3.5c25.594,7.716,49.227,12.443,70.244,14.058c0.193,0.017,0.391,0.022,0.582,0.022
		C447.66,331.854,450.947,328.861,451.25,324.926z"/>
	<path d="M451.25,356.801c0.316-4.131-2.773-7.733-6.904-8.053c-19.938-1.531-42.502-6.061-67.063-13.461
		c-29.506-8.895-58.15-7.523-85.135,4.076c-3.807,1.637-5.563,6.049-3.93,9.854c1.637,3.808,6.047,5.564,9.852,3.933
		c23.652-10.172,48.85-11.347,74.885-3.498c25.594,7.713,49.229,12.44,70.244,14.055c0.193,0.016,0.391,0.023,0.582,0.023
		C447.66,363.729,450.947,360.736,451.25,356.801z"/>
	<path d="M451.25,197.425c0.316-4.13-2.773-7.735-6.904-8.052c-19.939-1.531-42.504-6.061-67.063-13.463
		c-29.506-8.893-58.15-7.521-85.135,4.078c-3.807,1.637-5.563,6.048-3.93,9.854c1.637,3.805,6.047,5.564,9.852,3.93
		c23.652-10.168,48.848-11.347,74.885-3.5c25.594,7.715,49.227,12.445,70.244,14.058c0.193,0.015,0.391,0.022,0.582,0.022
		C447.66,204.351,450.947,201.36,451.25,197.425z"/>
	<path fill="#C71C24" d="M451.25,261.174c0.316-4.129-2.773-7.734-6.904-8.051c-19.936-1.529-42.498-6.059-67.063-13.463
		c-29.508-8.893-58.15-7.521-85.135,4.078c-3.807,1.637-5.563,6.047-3.93,9.854c1.637,3.807,6.047,5.564,9.852,3.93
		c23.652-10.168,48.85-11.344,74.885-3.498c25.6,7.716,49.234,12.445,70.246,14.058c0.191,0.017,0.389,0.021,0.58,0.021
		C447.66,268.1,450.947,265.109,451.25,261.174z"/>
	<path d="M451.25,229.301c0.316-4.132-2.773-7.736-6.904-8.055c-19.938-1.529-42.502-6.061-67.063-13.461
		c-29.506-8.896-58.148-7.522-85.135,4.078c-3.807,1.636-5.563,6.047-3.93,9.854c1.637,3.805,6.047,5.563,9.852,3.93
		c23.654-10.17,48.85-11.344,74.885-3.498c25.594,7.714,49.229,12.443,70.244,14.056c0.193,0.017,0.391,0.022,0.582,0.022
		C447.66,236.227,450.947,233.234,451.25,229.301z"/>
	<path fill="#C71C24" d="M451.25,293.049c0.316-4.129-2.773-7.734-6.904-8.051c-19.938-1.529-42.502-6.061-67.063-13.461
		c-29.506-8.895-58.15-7.521-85.135,4.078c-3.807,1.637-5.563,6.047-3.93,9.854c1.637,3.805,6.047,5.564,9.852,3.93
		c23.652-10.168,48.848-11.348,74.885-3.5c25.596,7.716,49.229,12.445,70.246,14.058c0.191,0.017,0.389,0.021,0.58,0.021
		C447.66,299.975,450.947,296.986,451.25,293.049z"/>
	<path fill="#C71C24" d="M296.84,442.191c-0.68,1.438-1.43,2.819-2.23,4.129c0.813-1.31,1.563-2.689,2.24-4.129
		c0.021-0.052,0.051-0.103,0.08-0.15c0.07-0.121,0.131-0.25,0.2-0.381C297.02,441.83,296.93,442.012,296.84,442.191z
		 M250.08,448.311c1.07,0.461,2.17,0.84,3.28,1.141C252.25,449.141,251.15,448.762,250.08,448.311z M248.02,463.5
		c0.87,0.281,1.75,0.521,2.64,0.723C249.77,464.012,248.89,463.771,248.02,463.5z M323.18,390.41
		c11.291-1.771,23.08-1.75,35.12,0.281C345.42,388.48,333.66,388.721,323.18,390.41z M267.721,97.811v0.01
		c0.51-0.48,1.029-0.95,1.549-1.42C268.68,96.921,268.16,97.391,267.721,97.811z M268.04,397.42c5.29-3,21.069-14.85,45.479-20.438
		C287.779,382.75,271.48,395.291,268.04,397.42z M249.76,76.271c3.63,2.51,7.11,5.22,10.44,8.1c0.01-0.01,0.01-0.01,0.02-0.02
		C257.61,82.071,254.11,79.251,249.76,76.271z M251.53,413.24c0.9,0.271,1.8,0.49,2.72,0.66
		C253.33,413.721,252.43,413.5,251.53,413.24z M243.44,409.541c0.67,0.432,1.35,0.84,2.04,1.199
		C244.78,410.371,244.11,409.961,243.44,409.541z M205.53,392.061c-0.51-0.132-1.02-0.25-1.53-0.359
		c0.52,0.119,1.03,0.24,1.54,0.369c0.02,0,0.04,0,0.06,0.01C205.58,392.07,205.55,392.07,205.53,392.061z M221.65,397.34
		c-1.05-0.446-2.1-0.867-3.17-1.27c-0.53-0.209-1.07-0.41-1.61-0.601c-0.54-0.198-1.07-0.391-1.61-0.569
		c-0.54-0.189-1.08-0.369-1.62-0.539c-0.55-0.183-1.09-0.353-1.63-0.521c-0.12-0.039-0.25-0.08-0.37-0.108
		c-0.12-0.029-0.24-0.07-0.37-0.103c5.49,1.672,10.48,3.672,14.97,5.803C224.72,398.691,223.2,397.99,221.65,397.34z M246.42,92.411
		c-0.53-0.43-1.07-0.85-1.61-1.26c-0.46-0.35-0.92-0.69-1.39-1.04c-0.92-0.68-1.86-1.35-2.81-2c-1.43-0.99-2.88-1.93-4.36-2.84
		c-0.49-0.31-0.99-0.61-1.49-0.9c-0.5-0.3-1-0.58-1.5-0.87c-0.47-0.27-0.95-0.54-1.43-0.8c-0.06-0.03-0.12-0.07-0.19-0.11
		c-0.48-0.25-0.96-0.51-1.44-0.76c-0.32-0.17-0.64-0.34-0.96-0.5c-0.43-0.23-0.87-0.45-1.31-0.66c-4.36-2.16-8.91-4.03-13.6-5.57
		c-0.55-0.18-1.11-0.36-1.66-0.53c-0.69-0.22-1.37-0.42-2.07-0.62c-1.08-0.32-2.17-0.61-3.27-0.89c-1.18-0.3-2.37-0.58-3.57-0.84
		c-0.6-0.13-1.2-0.26-1.81-0.38c-0.6-0.12-1.21-0.23-1.81-0.34c-0.61-0.12-1.22-0.22-1.83-0.32c23.71,4.04,40.9,15.42,49.7,22.53
		C247.48,93.271,246.96,92.841,246.42,92.411z M160.96,56.301c-0.19,0.03-0.38,0.07-0.57,0.12c23.49-3.81,46.04-0.88,65.96,7.19
		C209.33,56.621,187.24,52.071,160.96,56.301z M158.89,376c17.86-3.139,33.69-2.109,47.04,0.762
		C192.65,373.83,176.87,372.791,158.89,376z M129.25,383.691c0.39-0.103,0.78-0.201,1.16-0.302c0.04-0.012,0.09-0.021,0.14-0.028
		c1.9-0.513,3.86-1.051,5.82-1.611C134.05,382.4,131.67,383.051,129.25,383.691z M100.91,85.881c1.73-0.29,3.48-0.6,5.28-0.94
		C104.39,85.271,102.63,85.58,100.91,85.881z M58.93,89.411c8.58,0.19,19.61-0.29,33.29-2.2C78.18,89.131,67.1,89.571,58.93,89.411z
		"/>
	<path fill="#C71C24" d="M319.17,71.711c0.23-0.05,0.45-0.09,0.68-0.12c0.15-0.04,0.303-0.07,0.45-0.09
		C319.92,71.561,319.54,71.631,319.17,71.711z"/>
	<path fill="#C71C24" d="M314.84,392.08c0.021-0.01,0.04-0.01,0.063-0.01l0.01-0.01C314.891,392.07,314.859,392.07,314.84,392.08z
		 M205.53,392.061l0.01,0.01c0.02,0,0.04,0,0.06,0.01C205.58,392.07,205.55,392.07,205.53,392.061z"/>
	<path d="M497.9,97.321h-11.74v15h11.74c1.83,0,3.318,1.48,3.318,3.31v304.15c0,1.83-1.488,3.309-3.318,3.309H303.57
		c-8.68,0-16.641,4.98-20.291,12.691c-0.629,1.34-1.35,2.59-2.149,3.74c-0.21,0.309-0.42,0.6-0.649,0.889
		c-0.83,1.121-1.75,2.131-2.729,3.063c-0.66,0.629-1.34,1.209-2.05,1.75c-0.222,0.17-0.45,0.341-0.671,0.5
		c-0.46,0.318-0.922,0.617-1.399,0.908c-0.229,0.15-0.47,0.289-0.71,0.422c-0.318,0.181-0.641,0.351-0.97,0.521
		c-0.521,0.27-1.052,0.51-1.58,0.74c-0.013,0-0.013,0-0.013,0c-1.067,0.459-2.17,0.84-3.277,1.139c-4.479,1.211-9.24,1.211-13.72,0
		c-1.11-0.299-2.21-0.68-3.28-1.139c-0.01,0-0.01,0-0.01,0c-0.54-0.23-1.06-0.48-1.58-0.74c-0.33-0.17-0.65-0.34-0.97-0.521
		c-0.24-0.143-0.48-0.28-0.71-0.422c-0.48-0.291-0.94-0.59-1.4-0.908c-0.22-0.159-0.45-0.33-0.67-0.5
		c-0.71-0.541-1.39-1.121-2.05-1.75c-0.98-0.92-1.89-1.94-2.73-3.063c-0.23-0.289-0.44-0.58-0.65-0.889
		c-0.8-1.15-1.52-2.4-2.15-3.74c-3.65-7.711-11.61-12.691-20.3-12.691H22.54c-1.83,0-3.32-1.479-3.32-3.309v-304.15
		c0-1.83,1.49-3.31,3.32-3.31h11.74v-15H22.54c-10.1,0-18.32,8.21-18.32,18.31v304.15c0,10.1,8.22,18.309,18.32,18.309h194.33
		c2.18,0,4.2,0.9,5.58,2.41c0.23,0.25,0.45,0.521,0.63,0.803c0.08,0.117,0.16,0.238,0.23,0.357c0.11,0.17,0.2,0.352,0.29,0.531
		c0.68,1.438,1.43,2.819,2.23,4.129c1.89,3.061,4.09,5.76,6.54,8.08c0.79,0.739,1.6,1.45,2.43,2.121c0.31,0.25,0.63,0.5,0.95,0.729
		c0.63,0.48,1.28,0.939,1.94,1.379c0.33,0.224,0.67,0.433,1,0.644c0.01,0,0.01,0,0.01,0c0.9,0.559,1.81,1.08,2.73,1.549
		c0.47,0.24,0.94,0.471,1.41,0.69c0.63,0.289,1.27,0.568,1.91,0.828c0.64,0.263,1.29,0.5,1.94,0.73c0.44,0.16,0.88,0.299,1.33,0.43
		c0.87,0.271,1.75,0.512,2.64,0.721c0.45,0.109,0.91,0.211,1.37,0.302c0.89,0.17,1.79,0.317,2.69,0.448c3.65,0.479,7.351,0.479,11,0
		c0.899-0.131,1.8-0.278,2.689-0.448c0.46-0.103,0.909-0.191,1.368-0.302c0.892-0.209,1.771-0.448,2.642-0.721
		c0.45-0.141,0.892-0.279,1.33-0.43c0.649-0.23,1.3-0.472,1.938-0.73c0.642-0.26,1.28-0.539,1.91-0.828
		c0.471-0.223,0.939-0.45,1.409-0.69c0.931-0.48,1.841-1,2.729-1.549h0.011c0.33-0.211,0.67-0.433,1-0.644
		c0.66-0.438,1.312-0.897,1.938-1.379c0.319-0.238,0.642-0.479,0.95-0.729c0.83-0.67,1.64-1.382,2.431-2.121
		c2.449-2.33,4.66-5.021,6.539-8.08c0.802-1.31,1.552-2.689,2.229-4.129c0.09-0.181,0.181-0.361,0.29-0.531
		c0.07-0.119,0.148-0.24,0.229-0.357c0.19-0.28,0.4-0.553,0.631-0.803c1.369-1.5,3.4-2.41,5.58-2.41H497.9
		c10.1,0,18.318-8.209,18.318-18.309v-304.15C516.221,105.531,508,97.321,497.9,97.321z"/>
	<path fill="#C71C24" d="M485.58,86.121c-0.051-0.19-0.109-0.38-0.17-0.57c-0.801-2.57-2.23-4.88-4.09-6.73
		c-0.182-0.19-0.37-0.37-0.57-0.54c-3.23-2.94-7.62-4.6-12.35-4.22c-0.99,0.08-2.07,0.15-3.24,0.21
		c-0.393,0.02-0.801,0.04-1.221,0.05c-0.422,0.02-0.852,0.04-1.289,0.05c-1.021,0.03-2.103,0.05-3.23,0.06
		c-1.79,0.01-3.73,0-5.8-0.07c-0.431-0.01-0.87-0.03-1.312-0.04c-0.881-0.03-1.791-0.07-2.721-0.12c-0.47-0.02-0.938-0.05-1.42-0.08
		c-1.93-0.1-3.949-0.25-6.08-0.44c-0.71-0.06-1.43-0.12-2.16-0.2c-0.729-0.07-1.47-0.14-2.229-0.23c-3.78-0.39-7.841-0.92-12.19-1.6
		c-1.688-0.26-3.43-0.55-5.199-0.86c-1.029-0.18-2.068-0.36-3.131-0.56c-0.58-0.11-1.16-0.22-1.75-0.33
		c-2.357-0.45-4.777-0.94-7.277-1.48c-0.83-0.17-1.672-0.36-2.512-0.55c-0.841-0.18-1.688-0.37-2.551-0.58
		c-2.58-0.59-5.229-1.229-7.949-1.92c-0.011,0-0.029,0-0.051-0.01c-5.63-1.43-11.57-3.07-17.811-4.95
		c-5.739-1.73-11.459-3.05-17.119-3.97c-0.04-0.01-0.07-0.02-0.11-0.02c-23.489-3.81-46.04-0.88-65.96,7.19
		c-0.938,0.38-1.868,0.78-2.8,1.18c-0.512,0.23-1.021,0.45-1.53,0.68c-0.479,0.22-0.97,0.45-1.448,0.67
		c-0.531,0.25-1.052,0.5-1.569,0.75c-0.562,0.27-1.11,0.54-1.65,0.82c-0.34,0.17-0.67,0.34-1,0.51c-0.39,0.2-0.778,0.4-1.159,0.61
		c-0.761,0.4-1.511,0.81-2.25,1.22c-0.699,0.39-1.381,0.78-2.051,1.17c-2.38,1.38-4.71,2.84-6.97,4.38
		c-0.33,0.22-0.649,0.44-0.979,0.67c-3.631,2.51-7.108,5.22-10.438,8.1c-0.01-0.01-0.01-0.01-0.02-0.02
		c-0.01,0.01-0.01,0.01-0.02,0.02c-3.33-2.88-6.81-5.59-10.44-8.1c-0.33-0.23-0.65-0.45-0.98-0.67c-2.13-1.45-4.46-2.92-6.97-4.38
		c-0.67-0.39-1.35-0.78-2.05-1.17c-0.74-0.41-1.49-0.82-2.25-1.22c-0.38-0.21-0.77-0.41-1.16-0.61c-0.33-0.17-0.66-0.34-1-0.51
		c-0.54-0.28-1.09-0.55-1.65-0.82c-0.52-0.25-1.04-0.5-1.57-0.75c-0.48-0.22-0.97-0.45-1.45-0.67c-0.51-0.23-1.02-0.45-1.53-0.68
		c-0.93-0.4-1.86-0.8-2.8-1.18c-19.92-8.07-42.47-11-65.96-7.19c-0.04,0-0.07,0.01-0.11,0.02c-5.66,0.92-11.38,2.24-17.12,3.97
		c-6.24,1.88-12.18,3.52-17.81,4.95c-0.02,0-0.03,0.01-0.05,0.01c-2.72,0.69-5.37,1.33-7.95,1.92c-0.86,0.2-1.71,0.39-2.55,0.58
		c-0.84,0.19-1.68,0.38-2.51,0.55c-2.5,0.54-4.92,1.03-7.28,1.48c-0.59,0.11-1.17,0.22-1.75,0.33c-1.06,0.2-2.1,0.38-3.13,0.56
		c-1.77,0.31-3.51,0.6-5.2,0.86c-4.35,0.68-8.41,1.21-12.19,1.6c-0.76,0.09-1.5,0.16-2.23,0.23c-0.73,0.08-1.45,0.14-2.16,0.2
		c-2.13,0.19-4.15,0.34-6.08,0.44c-0.48,0.03-0.95,0.06-1.42,0.08c-0.93,0.05-1.84,0.09-2.72,0.12c-0.44,0.01-0.88,0.03-1.31,0.04
		c-2.07,0.07-4.01,0.08-5.8,0.07c-1.13-0.01-2.21-0.03-3.23-0.06c-0.44-0.01-0.87-0.03-1.29-0.05c-0.42-0.01-0.83-0.03-1.22-0.05
		c-1.18-0.06-2.26-0.13-3.24-0.21c-4.73-0.38-9.12,1.28-12.35,4.22c-0.2,0.17-0.39,0.35-0.57,0.54c-1.87,1.86-3.29,4.16-4.09,6.73
		c-0.06,0.19-0.12,0.38-0.17,0.57c-0.38,1.38-0.58,2.84-0.58,4.35v309.061c0,3.399,2.29,6.379,5.58,7.25
		c1.42,0.379,35.77,9.01,107.63-12.65c1.24-0.369,2.46-0.721,3.68-1.041c0.98-0.27,1.96-0.52,2.93-0.75
		c0.59-0.139,1.17-0.276,1.76-0.407c1.12-0.263,2.24-0.49,3.34-0.712c0.99-0.188,1.97-0.368,2.94-0.528
		c12.88-2.209,24.64-1.972,35.12-0.279c0.07,0,0.13,0.01,0.2,0.029c0.52,0.08,1.04,0.16,1.55,0.26c0.28,0.041,0.56,0.09,0.84,0.15
		c0.39,0.067,0.78,0.141,1.17,0.221c0.5,0.1,1,0.199,1.5,0.309c0.49,0.103,0.99,0.201,1.48,0.32c0.51,0.111,1.02,0.23,1.53,0.361
		c0.02,0.01,0.05,0.01,0.07,0.02c0.02,0,0.03,0.01,0.05,0.01c2.01,0.48,4.01,1.021,5.99,1.642c0.12,0.028,0.25,0.069,0.37,0.108
		c0.55,0.16,1.09,0.33,1.63,0.521c0.54,0.17,1.08,0.35,1.62,0.539c0.54,0.18,1.07,0.371,1.61,0.57c0.54,0.188,1.08,0.391,1.61,0.6
		c1.07,0.4,2.12,0.82,3.17,1.271c3.68,1.529,7.27,3.279,10.77,5.238c0.49,0.262,0.98,0.541,1.46,0.83
		c0.49,0.271,0.97,0.551,1.45,0.84c0.31,0.183,0.61,0.361,0.91,0.554c0.3,0.18,0.6,0.356,0.89,0.549c0.07,0.041,0.14,0.08,0.2,0.121
		c0.52,0.317,1.02,0.639,1.51,0.959c1.28,0.83,2.47,1.641,3.58,2.42c0.34,0.237,0.68,0.471,1.02,0.688
		c0.67,0.42,1.34,0.83,2.04,1.199c0.25,0.131,0.49,0.26,0.74,0.391c0.48,0.24,0.97,0.472,1.46,0.689c0.01,0.01,0.02,0.01,0.03,0.02
		c1.24,0.554,2.52,1.013,3.82,1.4c0.9,0.26,1.8,0.48,2.72,0.66c0.39,0.08,0.79,0.149,1.19,0.211c0.02,0,0.03,0,0.04,0.01
		c0.49,0.07,0.97,0.129,1.46,0.189c0.31,0.028,0.62,0.061,0.93,0.08c1.57,0.12,3.141,0.108,4.7,0c0.31-0.021,0.618-0.052,0.93-0.08
		c0.49-0.062,0.972-0.119,1.46-0.189c0.012-0.01,0.021-0.01,0.04-0.01c0.399-0.062,0.8-0.131,1.188-0.211
		c0.92-0.18,1.82-0.4,2.722-0.66c1.3-0.389,2.58-0.85,3.819-1.4c0.011-0.01,0.021-0.01,0.029-0.02
		c0.489-0.219,0.979-0.449,1.461-0.689c0.25-0.131,0.488-0.26,0.738-0.391c0.7-0.369,1.37-0.779,2.04-1.199
		c0.34-0.229,0.681-0.451,1.011-0.688c1.18-0.83,2.381-1.642,3.59-2.42c0.489-0.32,0.989-0.642,1.511-0.959
		c0.061-0.041,0.131-0.08,0.2-0.121c0.289-0.189,0.59-0.369,0.891-0.549c0.3-0.191,0.602-0.371,0.909-0.554
		c0.54-0.317,1.079-0.639,1.62-0.938c0.421-0.25,0.851-0.5,1.279-0.724c2-1.129,4.029-2.18,6.09-3.147
		c4.121-1.98,8.359-3.681,12.699-5.08c0.54-0.189,1.08-0.359,1.63-0.521c2.102-0.657,4.223-1.237,6.36-1.75
		c0.021,0,0.03-0.01,0.05-0.01c0.021-0.01,0.051-0.01,0.07-0.02c0.51-0.131,1.02-0.25,1.529-0.359
		c0.488-0.121,0.988-0.221,1.479-0.32c0.5-0.108,1-0.211,1.5-0.311c0.391-0.08,0.78-0.15,1.17-0.219
		c0.28-0.063,0.563-0.111,0.84-0.15c0.512-0.1,1.03-0.18,1.553-0.26c0.067-0.012,0.14-0.031,0.197-0.031
		c10.48-1.688,22.24-1.93,35.12,0.281c0.971,0.16,1.95,0.34,2.94,0.528c1.1,0.222,2.22,0.449,3.34,0.71
		c0.59,0.131,1.17,0.271,1.76,0.409c0.972,0.23,1.95,0.48,2.931,0.75c1.222,0.32,2.439,0.67,3.682,1.039
		c71.85,21.66,106.2,13.031,107.63,12.65c3.29-0.869,5.58-3.85,5.58-7.25V90.471C486.16,88.961,485.96,87.501,485.58,86.121z
		 M252.72,397.602c-0.1-0.063-0.21-0.111-0.32-0.183c-5.29-3-21.07-14.85-45.48-20.438c-0.33-0.08-0.66-0.15-0.99-0.222
		c-13.35-2.869-29.18-3.897-47.04-0.76c-1.1,0.199-2.21,0.41-3.33,0.641c-0.81,0.16-1.62,0.33-2.44,0.521
		c-1.62,0.361-3.25,0.75-4.9,1.18c-1.67,0.441-3.36,0.922-5.06,1.433c-2.2,0.659-4.46,1.317-6.79,1.979
		c-1.96,0.563-3.92,1.103-5.82,1.611c-0.05,0.01-0.1,0.02-0.14,0.028c-0.38,0.101-0.77,0.199-1.16,0.302
		c-0.8,0.209-1.62,0.43-2.44,0.629c-2.39,0.621-4.85,1.229-7.37,1.819c-0.03,0.011-0.07,0.021-0.11,0.021
		c-0.84,0.201-1.69,0.399-2.54,0.58c-1.69,0.391-3.39,0.771-5.12,1.131c-0.86,0.18-1.73,0.359-2.61,0.539
		c-0.87,0.18-1.74,0.352-2.61,0.521c-1.73,0.351-3.47,0.67-5.22,0.979c-0.88,0.16-1.76,0.311-2.64,0.461
		c-3.67,0.629-7.35,1.18-11.01,1.65c-0.71,0.09-1.43,0.18-2.15,0.27c-0.83,0.1-1.66,0.199-2.49,0.289
		c-2.59,0.291-5.16,0.531-7.71,0.711c-0.73,0.061-1.45,0.109-2.18,0.15c-0.72,0.049-1.45,0.09-2.16,0.118
		c-0.6,0.039-1.19,0.062-1.78,0.08c-0.26,0.021-0.52,0.029-0.77,0.029c-0.55,0.029-1.1,0.051-1.65,0.061
		c-0.6,0.021-1.2,0.029-1.8,0.039c-0.79,0.013-1.58,0.021-2.37,0.021c-4.58,0.01-9.02-0.201-13.24-0.66V90.471
		c0-0.21,0.04-0.4,0.11-0.57c0.06-0.13,0.13-0.26,0.23-0.37c0.02-0.03,0.05-0.06,0.08-0.09c0.03-0.04,0.08-0.07,0.12-0.1
		c0.27-0.24,0.63-0.36,1.02-0.33c0.84,0.07,1.71,0.13,2.63,0.18c0.62,0.04,1.26,0.07,1.93,0.1c0.67,0.03,1.37,0.05,2.08,0.08
		c0.47,0.01,0.96,0.03,1.45,0.04c8.17,0.16,19.25-0.28,33.29-2.2c1.76-0.25,3.57-0.51,5.42-0.8c0.99-0.16,1.99-0.32,3.01-0.49
		c0.09-0.02,0.17-0.03,0.26-0.04c1.72-0.3,3.48-0.61,5.28-0.94c1.26-0.24,2.54-0.48,3.84-0.74c0.06-0.01,0.11-0.021,0.17-0.03
		c1.37-0.28,2.77-0.56,4.19-0.86c0.74-0.16,1.48-0.32,2.23-0.48c0.85-0.18,1.71-0.37,2.58-0.57c3.17-0.72,6.43-1.5,9.79-2.35
		c5.86-1.48,12.03-3.18,18.5-5.13c17.58-5.3,34.82-6.23,50.82-3.6c0.61,0.1,1.22,0.2,1.83,0.32c0.6,0.1,1.21,0.22,1.81,0.34
		c0.6,0.12,1.21,0.24,1.81,0.38c1.2,0.26,2.39,0.54,3.57,0.84c1.1,0.28,2.19,0.57,3.27,0.89c0.7,0.2,1.38,0.4,2.07,0.62
		c0.55,0.17,1.11,0.35,1.66,0.53c4.69,1.54,9.24,3.41,13.6,5.57c0.44,0.21,0.88,0.43,1.31,0.66c0.32,0.16,0.64,0.33,0.96,0.5
		c0.48,0.25,0.96,0.51,1.44,0.76c0.07,0.04,0.13,0.08,0.19,0.11c0.48,0.26,0.96,0.53,1.43,0.8c0.5,0.29,1,0.57,1.5,0.87
		c0.5,0.29,1,0.59,1.49,0.9c1.48,0.91,2.93,1.85,4.36,2.84c0.95,0.64,1.89,1.31,2.81,2c0.47,0.33,0.93,0.68,1.39,1.04
		c0.54,0.41,1.08,0.83,1.61,1.26c0.54,0.41,1.07,0.84,1.59,1.3c0.28,0.21,0.56,0.44,0.83,0.68c0.3,0.24,0.6,0.5,0.89,0.75
		c0.52,0.45,1,0.87,1.44,1.26c0.59,0.52,1.11,0.99,1.55,1.41V397.602z M471.16,393.131c-4.23,0.459-8.67,0.66-13.24,0.66
		c-0.79,0-1.58-0.01-2.37-0.02c-0.6-0.013-1.2-0.031-1.8-0.041c-0.55-0.011-1.1-0.029-1.65-0.062c-0.26-0.01-0.52-0.02-0.77-0.029
		c-0.59-0.021-1.18-0.04-1.78-0.079c-0.71-0.029-1.438-0.07-2.159-0.119c-0.729-0.041-1.449-0.09-2.181-0.15
		c-2.55-0.188-5.13-0.43-7.71-0.711c-0.83-0.09-1.66-0.188-2.49-0.289c-0.72-0.09-1.438-0.18-2.148-0.27
		c-3.682-0.472-7.359-1.031-11.012-1.65c-0.879-0.15-1.76-0.301-2.64-0.461c-1.75-0.309-3.489-0.629-5.22-0.979
		c-0.87-0.171-1.74-0.343-2.61-0.521c-0.88-0.18-1.75-0.359-2.608-0.539c-1.729-0.359-3.432-0.74-5.119-1.131
		c-0.853-0.18-1.7-0.379-2.541-0.58c-0.039,0-0.08-0.01-0.109-0.02c-2.52-0.591-4.979-1.199-7.37-1.82
		c-0.817-0.199-1.64-0.42-2.438-0.629c-0.392-0.103-0.779-0.201-1.16-0.301c-0.039-0.013-0.09-0.021-0.139-0.029
		c-1.9-0.51-3.861-1.051-5.82-1.611c-2.301-0.647-4.602-1.317-6.791-1.979c-1.699-0.511-3.389-0.99-5.061-1.433
		c-1.648-0.43-3.279-0.817-4.898-1.18c-0.82-0.18-1.631-0.35-2.44-0.52c-1.12-0.23-2.229-0.439-3.33-0.642
		c-17.858-3.141-33.688-2.108-47.04,0.76c-0.329,0.07-0.658,0.142-0.988,0.222c-24.41,5.59-40.189,17.438-45.479,20.438
		c-0.118,0.07-0.229,0.131-0.317,0.183V97.811c0.438-0.42,0.959-0.89,1.549-1.41c0.479-0.43,0.951-0.85,1.439-1.26
		c0.289-0.25,0.59-0.51,0.891-0.75c0.271-0.24,0.551-0.47,0.83-0.68c0.521-0.46,1.051-0.89,1.59-1.3
		c0.529-0.43,1.07-0.85,1.609-1.26c0.461-0.36,0.92-0.71,1.391-1.04c0.92-0.69,1.859-1.36,2.811-2c1.43-0.99,2.881-1.93,4.359-2.84
		c0.49-0.31,0.99-0.61,1.49-0.9c0.5-0.3,1-0.58,1.5-0.87c0.471-0.27,0.949-0.54,1.43-0.8c0.061-0.03,0.121-0.07,0.189-0.11
		c0.479-0.25,0.961-0.51,1.439-0.76c0.318-0.17,0.641-0.34,0.96-0.5c0.431-0.23,0.87-0.45,1.312-0.66
		c4.358-2.16,8.91-4.03,13.6-5.57c0.551-0.18,1.111-0.36,1.66-0.53c0.688-0.22,1.371-0.42,2.068-0.62
		c1.08-0.32,2.17-0.61,3.271-0.89c1.181-0.3,2.371-0.58,3.57-0.84c0.6-0.14,1.211-0.26,1.811-0.38c0.22-0.04,0.449-0.09,0.68-0.13
		c0.37-0.08,0.75-0.15,1.131-0.21c0.609-0.12,1.221-0.22,1.829-0.32c16-2.63,33.24-1.7,50.82,3.6c6.47,1.95,12.64,3.65,18.5,5.13
		c3.37,0.86,6.63,1.64,9.79,2.35c0.869,0.2,1.73,0.39,2.58,0.57c0.75,0.16,1.49,0.32,2.229,0.48c1.423,0.3,2.82,0.58,4.19,0.86
		c0.06,0.01,0.109,0.021,0.17,0.03c1.3,0.26,2.58,0.5,3.84,0.74c1.8,0.33,3.563,0.64,5.279,0.94c0.091,0.01,0.171,0.02,0.261,0.04
		c1.021,0.17,2.021,0.33,3.01,0.49c16.642,2.6,29.521,3.18,38.711,3c0.489-0.01,0.979-0.03,1.449-0.04
		c0.71-0.03,1.41-0.05,2.08-0.08c0.67-0.03,1.312-0.06,1.933-0.1c0.93-0.05,1.809-0.11,2.629-0.18c0.391-0.03,0.75,0.1,1.021,0.33
		c0.04,0.03,0.09,0.06,0.12,0.1c0.029,0.03,0.06,0.06,0.08,0.09c0.1,0.11,0.17,0.24,0.229,0.37c0.07,0.18,0.11,0.37,0.11,0.57
		v302.66H471.16L471.16,393.131z"/>
</g>
</svg>
