<?xml version="1.0" encoding="utf-8"?>
<!-- Generator: Adobe Illustrator 16.0.0, SVG Export Plug-In . SVG Version: 6.00 Build 0)  -->
<!DOCTYPE svg PUBLIC "-//W3C//DTD SVG 1.1//EN" "http://www.w3.org/Graphics/SVG/1.1/DTD/svg11.dtd">
<svg version="1.1" id="Layer_1" xmlns="http://www.w3.org/2000/svg" xmlns:xlink="http://www.w3.org/1999/xlink" x="0px" y="0px"
	 width="150px" height="150px" viewBox="0 0 150 150" enable-background="new 0 0 150 150" xml:space="preserve">
<circle fill="#C71C24" cx="75" cy="75" r="75"/>
<g>
	<g>
		<path fill="#FFFFFF" d="M82.56,29.3c-19.089,0-35.319,12.24-41.27,29.3L26.3,49.21c-2-1.26-4.65-0.65-5.9,1.35
			c-1.26,2.01-0.65,4.65,1.35,5.91l17.47,10.94l8.22,5.15l0.7,0.44l-0.7,0.44l-8.22,5.14L21.75,89.53c-2,1.26-2.61,3.899-1.35,5.899
			c0.81,1.301,2.2,2.011,3.63,2.011c0.77,0,1.57-0.21,2.27-0.65l15-9.39c5.94,17.06,22.18,29.29,41.26,29.29
			c24.141,0,43.7-19.561,43.7-43.69C126.25,48.87,106.7,29.3,82.56,29.3z M82.56,37.87c5.641,0,10.98,1.34,15.71,3.72L56.2,67.94
			l-7.41-4.64C53.01,48.63,66.55,37.87,82.56,37.87z M82.56,108.13c-16,0-29.55-10.76-33.76-25.43l7.4-4.65l42.069,26.36
			C93.54,106.79,88.2,108.13,82.56,108.13z M106,99.15L64.27,73L106,46.85c7.17,6.44,11.69,15.77,11.69,26.15
			S113.17,92.71,106,99.15z"/>
		<path opacity="0.5" fill="#FFFFFF" d="M98.27,104.41c-4.729,2.38-10.069,3.72-15.71,3.72c-16,0-29.55-10.76-33.76-25.43l7.4-4.65
			L98.27,104.41z"/>
		<path opacity="0.5" fill="#FFFFFF" d="M98.27,41.59L56.2,67.94l-7.41-4.64c4.22-14.67,17.76-25.43,33.77-25.43
			C88.2,37.87,93.54,39.21,98.27,41.59z"/>
	</g>
</g>
</svg>
