<?xml version="1.0" encoding="utf-8"?>
<!-- Generator: Adobe Illustrator 16.0.0, SVG Export Plug-In . SVG Version: 6.00 Build 0)  -->
<!DOCTYPE svg PUBLIC "-//W3C//DTD SVG 1.1//EN" "http://www.w3.org/Graphics/SVG/1.1/DTD/svg11.dtd">
<svg version="1.1" id="Layer_1" xmlns="http://www.w3.org/2000/svg" xmlns:xlink="http://www.w3.org/1999/xlink" x="0px" y="0px"
	 width="106.517px" height="90.124px" viewBox="0 0 106.517 90.124" enable-background="new 0 0 106.517 90.124"
	 xml:space="preserve">
<g>
	<g>
		<path fill="#6D6E74" d="M78.531,15.015l-42.07,26.359l-7.411-4.644c4.221-14.674,17.762-25.434,33.77-25.434
			C68.461,11.297,73.801,12.633,78.531,15.015z"/>
		<path fill="#6D6E74" d="M78.531,77.844c-4.73,2.378-10.07,3.713-15.712,3.713c-16.003,0-29.549-10.761-33.763-25.429l7.408-4.645
			L78.531,77.844z"/>
		<path fill="#161516" d="M62.819,2.73c-19.085,0-35.315,12.239-41.264,29.301L6.56,22.636c-2.004-1.259-4.649-0.649-5.904,1.355
			c-1.259,2.005-0.648,4.645,1.356,5.903L19.48,40.841l8.215,5.147l0.701,0.438l-0.701,0.438l-8.215,5.148L2.012,62.959
			c-2.005,1.26-2.615,3.899-1.356,5.903c0.813,1.3,2.207,2.01,3.633,2.01c0.774,0,1.566-0.212,2.271-0.649l14.996-9.395
			c5.948,17.061,22.179,29.297,41.264,29.297c24.138,0,43.697-19.564,43.697-43.698C106.517,22.294,86.957,2.73,62.819,2.73z
			 M62.819,11.297c5.642,0,10.981,1.336,15.712,3.718l-42.07,26.359l-7.411-4.644C33.271,22.057,46.812,11.297,62.819,11.297z
			 M62.819,81.557c-16.003,0-29.549-10.761-33.763-25.429l7.408-4.645l42.066,26.36C73.801,80.222,68.461,81.557,62.819,81.557z
			 M86.258,72.575L44.529,46.427l41.729-26.148c7.174,6.433,11.695,15.772,11.695,26.148C97.953,56.804,93.432,66.142,86.258,72.575
			z"/>
	</g>
</g>
</svg>
