<?xml version="1.0" encoding="utf-8"?>
<!-- Generator: Adobe Illustrator 16.0.0, SVG Export Plug-In . SVG Version: 6.00 Build 0)  -->
<!DOCTYPE svg PUBLIC "-//W3C//DTD SVG 1.1//EN" "http://www.w3.org/Graphics/SVG/1.1/DTD/svg11.dtd">
<svg version="1.1" id="Layer_1" xmlns="http://www.w3.org/2000/svg" xmlns:xlink="http://www.w3.org/1999/xlink" x="0px" y="0px"
	 width="300px" height="184.422px" viewBox="0 0 300 184.422" enable-background="new 0 0 300 184.422" xml:space="preserve">
<g>
	<path fill="#6D6E74" d="M174.781,12.285l-42.07,26.359l-7.411-4.644c4.221-14.674,17.762-25.433,33.77-25.433
		C164.711,8.568,170.051,9.903,174.781,12.285z"/>
	<path fill="#6D6E74" d="M174.781,75.114c-4.73,2.378-10.07,3.713-15.712,3.713c-16.003,0-29.549-10.76-33.763-25.428l7.408-4.645
		L174.781,75.114z"/>
	<path fill="#161516" d="M159.069,0c-19.085,0-35.315,12.24-41.264,29.301l-14.996-9.395c-2.004-1.259-4.649-0.649-5.904,1.355
		c-1.259,2.005-0.648,4.645,1.356,5.903l17.469,10.946l8.215,5.147l0.701,0.439l-0.701,0.438l-8.215,5.148L98.262,60.229
		c-2.005,1.26-2.615,3.899-1.356,5.903c0.813,1.3,2.207,2.01,3.633,2.01c0.774,0,1.566-0.211,2.271-0.649l14.996-9.395
		c5.948,17.061,22.179,29.297,41.264,29.297c24.138,0,43.697-19.564,43.697-43.698S183.207,0,159.069,0z M159.069,8.568
		c5.642,0,10.981,1.335,15.712,3.717l-42.07,26.359l-7.411-4.644C129.521,19.327,143.062,8.568,159.069,8.568z M159.069,78.827
		c-16.003,0-29.549-10.76-33.763-25.428l7.408-4.645l42.066,26.36C170.051,77.492,164.711,78.827,159.069,78.827z M182.508,69.845
		l-41.729-26.147l41.729-26.148c7.174,6.433,11.695,15.772,11.695,26.148S189.682,63.413,182.508,69.845z"/>
</g>
<g>
	<path fill="#B154A0" d="M223.066,107.086v0.187h-0.01C223.057,107.208,223.057,107.147,223.066,107.086z"/>
	<path fill="#161516" d="M216.226,125.532c-0.666-0.922-1.753-1.516-2.978-1.516c-1.229,0-2.312,0.594-2.981,1.516
		c-0.454,0.61-0.716,1.366-0.716,2.177v6.755c-5.385-6.408-13.343-10.463-22.223-10.463c-16.215,0-29.358,13.505-29.358,30.163
		c0,16.658,13.144,30.157,29.358,30.157c8.88,0,16.838-4.05,22.223-10.457v6.76c0,0.887,0.313,1.698,0.832,2.333
		c0.675,0.832,1.707,1.365,2.865,1.365c1.159,0,2.187-0.533,2.861-1.365c0.52-0.634,0.831-1.446,0.831-2.333v-52.915
		C216.94,126.898,216.679,126.142,216.226,125.532z M187.328,176.998c-12.277,0-22.23-10.226-22.23-22.834
		c0-12.613,9.953-22.839,22.23-22.839c12.27,0,22.223,10.226,22.223,22.839C209.551,166.772,199.598,176.998,187.328,176.998z"/>
	<path fill="#161516" d="M298.836,125.532c-0.666-0.922-1.753-1.516-2.979-1.516c-1.229,0-2.311,0.594-2.981,1.516
		c-0.453,0.61-0.715,1.366-0.715,2.177v6.755c-5.385-6.408-13.343-10.463-22.224-10.463c-16.216,0-29.357,13.505-29.357,30.163
		c0,16.658,13.142,30.157,29.357,30.157c8.881,0,16.839-4.05,22.224-10.457v6.76c0,0.887,0.313,1.698,0.831,2.333
		c0.675,0.832,1.708,1.365,2.865,1.365c1.16,0,2.188-0.533,2.861-1.365c0.521-0.634,0.832-1.446,0.832-2.333v-52.915
		C299.551,126.898,299.289,126.142,298.836,125.532z M269.938,176.998c-12.276,0-22.229-10.226-22.229-22.834
		c0-12.613,9.953-22.839,22.229-22.839c12.27,0,22.224,10.226,22.224,22.839C292.161,166.772,282.207,176.998,269.938,176.998z"/>
	<path fill="#161516" d="M136.976,125.532c-0.664-0.922-1.752-1.516-2.977-1.516c-1.229,0-2.312,0.594-2.982,1.516
		c-0.453,0.61-0.715,1.366-0.715,2.177v6.755c-5.385-6.408-13.343-10.463-22.224-10.463c-16.215,0-29.356,13.505-29.356,30.163
		c0,16.658,13.142,30.157,29.356,30.157c8.881,0,16.839-4.05,22.224-10.457v6.76c0,0.887,0.313,1.698,0.831,2.333
		c0.676,0.832,1.708,1.365,2.866,1.365c1.159,0,2.187-0.533,2.862-1.365c0.519-0.634,0.83-1.446,0.83-2.333v-52.915
		C137.691,126.898,137.43,126.142,136.976,125.532z M108.078,176.998c-12.276,0-22.229-10.226-22.229-22.834
		c0-12.613,9.952-22.839,22.229-22.839c12.271,0,22.224,10.226,22.224,22.839C130.302,166.772,120.349,176.998,108.078,176.998z"/>
	<path fill="#161516" d="M151.292,107.268v73.356c0,0.887-0.313,1.698-0.83,2.333c-0.676,0.832-1.704,1.365-2.861,1.365
		c-1.159,0-2.191-0.533-2.868-1.365c-0.518-0.634-0.83-1.446-0.83-2.333v-73.356c0-0.812,0.262-1.567,0.715-2.177
		c0.671-0.921,1.753-1.516,2.983-1.516c1.224,0,2.311,0.594,2.977,1.516C151.029,105.701,151.292,106.457,151.292,107.268z"/>
	<path fill="#161516" d="M57.721,125.532c-0.664-0.922-1.753-1.516-2.977-1.516c-1.23,0-2.313,0.594-2.981,1.516
		c-0.454,0.61-0.716,1.366-0.716,2.177v6.755c-5.386-6.408-13.344-10.463-22.225-10.463c-16.214,0-29.356,13.505-29.356,30.163
		c0,16.658,13.143,30.157,29.356,30.157c8.881,0,16.839-4.05,22.225-10.457v6.76c0,0.887,0.312,1.698,0.831,2.333
		c0.675,0.832,1.707,1.365,2.866,1.365c1.158,0,2.186-0.533,2.861-1.365c0.519-0.634,0.83-1.446,0.83-2.333v-52.915
		C58.436,126.898,58.174,126.142,57.721,125.532z M28.822,176.998c-12.274,0-22.229-10.226-22.229-22.834
		c0-12.613,9.954-22.839,22.229-22.839c12.271,0,22.225,10.226,22.225,22.839C51.047,166.772,41.094,176.998,28.822,176.998z"/>
	<path fill="#161516" d="M72.036,107.268v73.356c0,0.887-0.313,1.698-0.831,2.333c-0.675,0.832-1.702,1.365-2.86,1.365
		s-2.192-0.533-2.866-1.365c-0.519-0.634-0.832-1.446-0.832-2.333v-73.356c0-0.812,0.262-1.567,0.716-2.177
		c0.67-0.921,1.753-1.516,2.982-1.516c1.224,0,2.313,0.594,2.977,1.516C71.774,105.701,72.036,106.457,72.036,107.268z"/>
	<path fill="#161516" d="M244.141,178.514c0.651,0.625,1.059,1.501,1.059,2.473c0,0.982-0.407,1.859-1.059,2.483
		c-0.619,0.59-1.444,0.952-2.367,0.952h-0.004c-19.686-1.078-18.703-15.61-18.703-15.61v-61.726c0.03-0.745,0.287-1.43,0.706-1.995
		c0.669-0.917,1.758-1.516,2.985-1.516c1.229,0,2.313,0.599,2.982,1.516c0.454,0.609,0.716,1.365,0.716,2.181v18.26h11.847
		c0.696,0,1.34,0.247,1.838,0.66c0.646,0.535,1.059,1.335,1.059,2.237c0,0.901-0.412,1.702-1.059,2.236
		c-0.498,0.413-1.142,0.66-1.838,0.66h-11.847v35.573c0.348,1.703-0.016,9.429,11.313,10.669c0.222,0.025,0.442,0.045,0.67,0.06
		c0.005,0,0.016,0.005,0.02,0.005C243.104,177.764,243.683,178.075,244.141,178.514z"/>
</g>
<path fill="#161516" d="M242.439,179.14c-0.228-0.015-0.448-0.036-0.67-0.061v-0.005
	C242.001,179.074,242.224,179.094,242.439,179.14z"/>
</svg>
