<?xml version="1.0" encoding="utf-8"?>
<!-- Generator: Adobe Illustrator 16.0.0, SVG Export Plug-In . SVG Version: 6.00 Build 0)  -->
<!DOCTYPE svg PUBLIC "-//W3C//DTD SVG 1.1//EN" "http://www.w3.org/Graphics/SVG/1.1/DTD/svg11.dtd">
<svg version="1.1" id="Layer_1" xmlns="http://www.w3.org/2000/svg" xmlns:xlink="http://www.w3.org/1999/xlink" x="0px" y="0px"
	 width="422.254px" height="90.125px" viewBox="0 0 422.254 90.125" enable-background="new 0 0 422.254 90.125"
	 xml:space="preserve">
<path opacity="0.5" fill="#FFFFFF" d="M78.531,15.015L36.461,41.374L29.05,36.73c4.221-14.674,17.762-25.434,33.77-25.434
	C68.461,11.297,73.801,12.633,78.531,15.015z"/>
<path opacity="0.5" fill="#FFFFFF" d="M78.531,77.843c-4.729,2.379-10.069,3.714-15.712,3.714
	c-16.003,0-29.549-10.761-33.763-25.429l7.408-4.646L78.531,77.843z"/>
<path fill="#FFFFFF" d="M62.819,2.73c-19.085,0-35.314,12.239-41.264,29.301L6.56,22.636c-2.004-1.259-4.648-0.649-5.904,1.355
	c-1.259,2.005-0.647,4.645,1.356,5.903L19.48,40.841l8.215,5.147l0.701,0.438l-0.701,0.439l-8.215,5.147L2.012,62.958
	c-2.005,1.26-2.615,3.899-1.356,5.903c0.813,1.3,2.207,2.011,3.634,2.011c0.773,0,1.565-0.213,2.271-0.649l14.996-9.396
	c5.948,17.062,22.179,29.297,41.264,29.297c24.139,0,43.697-19.563,43.697-43.697C106.517,22.294,86.957,2.73,62.819,2.73z
	 M62.819,11.297c5.643,0,10.981,1.336,15.712,3.718L36.461,41.374L29.05,36.73C33.271,22.057,46.812,11.297,62.819,11.297z
	 M62.819,81.557c-16.003,0-29.549-10.761-33.763-25.429l7.408-4.646l42.065,26.36C73.801,80.222,68.461,81.557,62.819,81.557z
	 M86.258,72.576L44.529,46.427l41.729-26.148c7.174,6.433,11.695,15.772,11.695,26.148C97.953,56.804,93.432,66.142,86.258,72.576z"
	/>
<g>
	<path fill="#FFFFFF" d="M346.602,3.511v0.188h-0.01C346.592,3.633,346.592,3.573,346.602,3.511z"/>
	<path fill="#FFFFFF" d="M339.761,21.958c-0.666-0.922-1.753-1.516-2.979-1.516c-1.229,0-2.312,0.594-2.98,1.516
		c-0.454,0.61-0.716,1.366-0.716,2.177v6.755c-5.386-6.408-13.344-10.463-22.224-10.463c-16.215,0-29.357,13.506-29.357,30.163
		c0,16.658,13.144,30.158,29.357,30.158c8.88,0,16.838-4.051,22.224-10.457v6.76c0,0.887,0.313,1.697,0.832,2.332
		c0.675,0.832,1.707,1.365,2.864,1.365c1.159,0,2.188-0.533,2.861-1.365c0.52-0.635,0.831-1.445,0.831-2.332V24.134
		C340.476,23.324,340.214,22.568,339.761,21.958z M310.863,73.423c-12.276,0-22.229-10.227-22.229-22.834
		c0-12.613,9.953-22.839,22.229-22.839c12.271,0,22.224,10.226,22.224,22.839C333.086,63.199,323.133,73.423,310.863,73.423z"/>
	<path fill="#FFFFFF" d="M422.37,21.958c-0.666-0.922-1.753-1.516-2.979-1.516c-1.229,0-2.312,0.594-2.981,1.516
		c-0.453,0.61-0.715,1.366-0.715,2.177v6.755c-5.385-6.408-13.343-10.463-22.224-10.463c-16.216,0-29.357,13.506-29.357,30.163
		c0,16.658,13.143,30.158,29.357,30.158c8.881,0,16.839-4.051,22.224-10.457v6.76c0,0.887,0.313,1.697,0.831,2.332
		c0.675,0.832,1.708,1.365,2.865,1.365c1.16,0,2.188-0.533,2.861-1.365c0.521-0.635,0.832-1.445,0.832-2.332V24.134
		C423.086,23.324,422.823,22.568,422.37,21.958z M393.473,73.423c-12.276,0-22.229-10.227-22.229-22.834
		c0-12.613,9.953-22.839,22.229-22.839c12.27,0,22.224,10.226,22.224,22.839C415.696,63.199,405.741,73.423,393.473,73.423z"/>
	<path fill="#FFFFFF" d="M260.511,21.958c-0.664-0.922-1.752-1.516-2.977-1.516c-1.229,0-2.313,0.594-2.982,1.516
		c-0.453,0.61-0.715,1.366-0.715,2.177v6.755c-5.385-6.408-13.343-10.463-22.225-10.463c-16.215,0-29.355,13.506-29.355,30.163
		c0,16.658,13.142,30.158,29.355,30.158c8.882,0,16.84-4.051,22.225-10.457v6.76c0,0.887,0.313,1.697,0.831,2.332
		c0.676,0.832,1.708,1.365,2.866,1.365s2.187-0.533,2.861-1.365c0.52-0.635,0.83-1.445,0.83-2.332V24.134
		C261.227,23.324,260.965,22.568,260.511,21.958z M231.613,73.423c-12.275,0-22.229-10.227-22.229-22.834
		c0-12.613,9.952-22.839,22.229-22.839c12.271,0,22.225,10.226,22.225,22.839C253.837,63.199,243.884,73.423,231.613,73.423z"/>
	<path fill="#FFFFFF" d="M274.827,3.694v73.354c0,0.888-0.313,1.699-0.83,2.334c-0.677,0.83-1.704,1.363-2.861,1.363
		c-1.159,0-2.191-0.533-2.868-1.363c-0.518-0.635-0.83-1.446-0.83-2.334V3.694c0-0.812,0.263-1.567,0.715-2.177
		c0.672-0.922,1.753-1.516,2.983-1.516c1.224,0,2.311,0.594,2.977,1.516C274.564,2.126,274.827,2.882,274.827,3.694z"/>
	<path fill="#FFFFFF" d="M181.256,21.958c-0.664-0.922-1.753-1.516-2.978-1.516c-1.229,0-2.313,0.594-2.98,1.516
		c-0.454,0.61-0.716,1.366-0.716,2.177v6.755c-5.387-6.408-13.345-10.463-22.226-10.463c-16.214,0-29.355,13.506-29.355,30.163
		c0,16.658,13.143,30.158,29.355,30.158c8.881,0,16.839-4.051,22.226-10.457v6.76c0,0.887,0.312,1.697,0.831,2.332
		c0.675,0.832,1.707,1.365,2.865,1.365s2.187-0.533,2.861-1.365c0.52-0.635,0.83-1.445,0.83-2.332V24.134
		C181.971,23.324,181.709,22.568,181.256,21.958z M152.357,73.423c-12.273,0-22.229-10.227-22.229-22.834
		c0-12.613,9.954-22.839,22.229-22.839c12.271,0,22.226,10.226,22.226,22.839C174.582,63.199,164.629,73.423,152.357,73.423z"/>
	<path fill="#FFFFFF" d="M195.571,3.694v73.354c0,0.888-0.313,1.699-0.83,2.334c-0.676,0.83-1.702,1.363-2.86,1.363
		s-2.192-0.533-2.866-1.363c-0.519-0.635-0.832-1.446-0.832-2.334V3.694c0-0.812,0.262-1.567,0.716-2.177
		c0.67-0.922,1.753-1.516,2.982-1.516c1.224,0,2.313,0.594,2.977,1.516C195.31,2.126,195.571,2.882,195.571,3.694z"/>
	<path fill="#FFFFFF" d="M367.676,74.939c0.65,0.625,1.059,1.501,1.059,2.475c0,0.981-0.407,1.857-1.059,2.482
		c-0.619,0.59-1.444,0.952-2.367,0.952h-0.004c-19.687-1.078-18.703-15.61-18.703-15.61V3.511c0.03-0.744,0.287-1.43,0.706-1.994
		c0.669-0.917,1.758-1.516,2.985-1.516c1.229,0,2.313,0.599,2.981,1.516c0.454,0.609,0.716,1.365,0.716,2.181v18.26h11.848
		c0.695,0,1.34,0.247,1.838,0.66c0.646,0.534,1.059,1.335,1.059,2.237c0,0.901-0.412,1.702-1.059,2.236
		c-0.498,0.413-1.143,0.659-1.838,0.659H353.99v35.574c0.349,1.701-0.016,9.428,11.313,10.668c0.222,0.024,0.441,0.045,0.67,0.061
		c0.005,0,0.016,0.006,0.02,0.006C366.639,74.189,367.218,74.5,367.676,74.939z"/>
</g>
<path fill="#161516" d="M242.439,44.473c-0.228-0.015-0.447-0.035-0.67-0.061v-0.005C242.001,44.408,242.224,44.428,242.439,44.473z
	"/>
</svg>
