<?xml version="1.0" encoding="utf-8"?>
<!-- Generator: Adobe Illustrator 16.0.0, SVG Export Plug-In . SVG Version: 6.00 Build 0)  -->
<!DOCTYPE svg PUBLIC "-//W3C//DTD SVG 1.1//EN" "http://www.w3.org/Graphics/SVG/1.1/DTD/svg11.dtd">
<svg version="1.1" id="Layer_1" xmlns="http://www.w3.org/2000/svg" xmlns:xlink="http://www.w3.org/1999/xlink" x="0px" y="0px"
	 width="520px" height="520px" viewBox="0 0 520 520" enable-background="new 0 0 520 520" xml:space="preserve">
<g>
	<g>
		<g>
			<g>
				<g>
					<path fill="#C71C24" d="M468.38,225.725c-1.073-7.256-7.838-12.279-15.096-11.208l-385.4,56.95
						c-7.258,1.073-12.279,7.839-11.207,15.096l19.181,129.803c0.092,0.613,0.247,1.209,0.467,1.771
						c-0.048,0.6-0.026,1.215,0.065,1.83l13.104,88.68c1.071,7.249,7.837,12.281,15.095,11.21l385.4-56.95
						c7.257-1.073,12.276-7.851,11.207-15.096l-13.104-88.683c-0.092-0.614-0.247-1.209-0.468-1.771
						c0.049-0.602,0.027-1.217-0.064-1.83L468.38,225.725z M471.317,361.606l12.567,85.059l-378.152,55.88l-12.57-85.059
						c-0.09-0.614-0.246-1.208-0.466-1.77c0.048-0.604,0.025-1.217-0.065-1.83L73.986,287.708l378.153-55.88l18.646,126.178
						c0.092,0.615,0.248,1.209,0.469,1.771C471.204,360.378,471.226,360.992,471.317,361.606z"/>
				</g>
			</g>
		</g>
		<g>
			<polygon fill="#C71C24" points="479.083,414.247 483.175,441.936 322.397,322.557 222.753,456.742 177.315,422.992 
				119.912,500.3 105.777,502.391 103.737,488.591 161.282,411.09 172.986,395.328 189.019,407.229 218.502,429.123 306.429,310.7 
				318.229,294.811 334.195,306.667 			"/>
			<g>
				<g>
					<path fill="#C71C24" d="M158.216,295.346c-21.507,3.18-36.42,23.262-33.242,44.771c3.178,21.508,23.262,36.419,44.771,33.241
						c21.507-3.178,36.42-23.262,33.241-44.77C199.808,307.078,179.726,292.166,158.216,295.346z M166.861,353.854
						c-10.753,1.59-20.795-5.867-22.384-16.623c-1.589-10.754,5.867-20.795,16.619-22.385c10.756-1.586,20.797,5.869,22.387,16.623
						C185.071,342.223,177.615,352.264,166.861,353.854z"/>
				</g>
			</g>
		</g>
	</g>
	<g>
		<g>
			<path d="M14.849,158.588c73.245,49.839,164.261,73.107,252.363,61.979c42.453-5.362,83.703-18.593,120.864-39.919
				c37.845-21.717,70.24-51.954,95.16-87.705c4.661-6.687,8.994-13.599,13.087-20.646c4.9-8.439-8.153-16.039-13.041-7.623
				c-21.767,37.477-51.622,69.632-87.756,93.621c-35.081,23.29-75.036,38.191-116.44,45.362
				c-86.16,14.922-176.764-6.241-249.757-53.538c-2.306-1.494-4.585-3.027-6.857-4.572C14.395,140.051,6.849,153.144,14.849,158.588
				L14.849,158.588z"/>
		</g>
	</g>
	<g>
		<path d="M121.331,283.975c0,4.572-3.227,8.279-7.205,8.279h-9.305c-3.979,0-7.205-3.707-7.205-8.279v-98.152
			c0-4.573,3.227-8.28,7.205-8.28h9.305c3.979,0,7.205,3.707,7.205,8.28V283.975z"/>
		<g>
			<path fill="#FFFFFF" d="M102.464,237.81c4.674,0,9.347,0,14.02,0c3.269,0,3.269-5.825,0-5.825c-4.673,0-9.346,0-14.02,0
				C99.195,231.985,99.195,237.81,102.464,237.81L102.464,237.81z"/>
		</g>
	</g>
	<g>
		<path d="M416.664,239.308c0,4.572-3.227,8.279-7.204,8.279h-9.305c-3.979,0-7.205-3.707-7.205-8.279v-98.153
			c0-4.573,3.227-8.28,7.205-8.28h9.305c3.979,0,7.204,3.707,7.204,8.28V239.308z"/>
		<g>
			<path fill="#FFFFFF" d="M397.798,193.143c4.673,0,9.346,0,14.021,0c3.268,0,3.268-5.825,0-5.825c-4.675,0-9.348,0-14.021,0
				C394.528,187.318,394.528,193.143,397.798,193.143L397.798,193.143z"/>
		</g>
	</g>
</g>
</svg>
