<?xml version="1.0" encoding="utf-8"?>
<!-- Generator: Adobe Illustrator 16.0.0, SVG Export Plug-In . SVG Version: 6.00 Build 0)  -->
<!DOCTYPE svg PUBLIC "-//W3C//DTD SVG 1.1//EN" "http://www.w3.org/Graphics/SVG/1.1/DTD/svg11.dtd">
<svg version="1.1" id="Layer_1" xmlns="http://www.w3.org/2000/svg" xmlns:xlink="http://www.w3.org/1999/xlink" x="0px" y="0px"
	 width="520px" height="520px" viewBox="0 0 520 520" enable-background="new 0 0 520 520" xml:space="preserve">
<g>
	<g>
		<g>
			<g>
				<g>
					<path fill="#C71C24" d="M471.989,195.219c-1.073-7.256-7.838-12.279-15.096-11.208l-385.4,56.95
						c-7.258,1.073-12.279,7.84-11.207,15.096l19.181,129.803c0.092,0.613,0.247,1.209,0.467,1.771
						c-0.048,0.601-0.026,1.215,0.065,1.83l13.104,88.681c1.071,7.249,7.837,12.28,15.095,11.21l385.4-56.95
						c7.257-1.073,12.275-7.852,11.207-15.097l-13.104-88.683c-0.092-0.614-0.247-1.209-0.468-1.771
						c0.049-0.603,0.027-1.217-0.064-1.83L471.989,195.219z M474.927,331.099l12.566,85.06l-378.151,55.88l-12.57-85.059
						c-0.09-0.614-0.246-1.208-0.466-1.771c0.048-0.604,0.025-1.217-0.065-1.83L77.596,257.202l378.152-55.88l18.646,126.177
						c0.092,0.615,0.248,1.209,0.469,1.771C474.813,329.871,474.835,330.485,474.927,331.099z"/>
				</g>
			</g>
		</g>
		<g>
			<polygon fill="#C71C24" points="482.692,383.74 486.784,411.429 326.007,292.05 226.363,426.235 180.925,392.485 
				123.522,469.793 109.387,471.884 107.347,458.084 164.892,380.583 176.596,364.821 192.629,376.722 222.112,398.616 
				310.038,280.193 321.838,264.304 337.805,276.16 			"/>
			<g>
				<g>
					<path fill="#C71C24" d="M161.826,264.839c-21.507,3.18-36.42,23.262-33.242,44.771c3.178,21.508,23.262,36.419,44.771,33.24
						c21.507-3.178,36.42-23.262,33.241-44.77C203.418,276.571,183.336,261.659,161.826,264.839z M170.471,323.347
						c-10.753,1.59-20.795-5.867-22.384-16.623c-1.589-10.754,5.867-20.795,16.619-22.385c10.756-1.586,20.797,5.869,22.387,16.623
						C188.681,311.716,181.225,321.757,170.471,323.347z"/>
				</g>
			</g>
		</g>
	</g>
	<g>
		<g>
			<path d="M18.459,128.082c73.245,49.839,164.261,73.107,252.362,61.979c42.453-5.362,83.703-18.593,120.864-39.919
				c37.845-21.717,70.24-51.954,95.16-87.705c4.661-6.687,8.994-13.599,13.087-20.646c4.899-8.439-8.153-16.039-13.041-7.623
				c-21.768,37.477-51.622,69.632-87.756,93.621c-35.081,23.29-75.036,38.191-116.44,45.362
				c-86.16,14.922-176.764-6.241-249.756-53.538c-2.306-1.494-4.585-3.027-6.857-4.572
				C18.005,109.544,10.459,122.638,18.459,128.082L18.459,128.082z"/>
		</g>
	</g>
	<g>
		<path d="M124.941,253.468c0,4.572-3.227,8.279-7.205,8.279h-9.305c-3.979,0-7.205-3.707-7.205-8.279v-98.151
			c0-4.573,3.227-8.28,7.205-8.28h9.305c3.979,0,7.205,3.707,7.205,8.28V253.468z"/>
		<g>
			<path fill="#FFFFFF" d="M106.074,207.304c4.674,0,9.347,0,14.02,0c3.269,0,3.269-5.825,0-5.825c-4.673,0-9.346,0-14.02,0
				C102.805,201.479,102.805,207.304,106.074,207.304L106.074,207.304z"/>
		</g>
	</g>
	<g>
		<path d="M420.273,208.802c0,4.572-3.227,8.279-7.204,8.279h-9.305c-3.979,0-7.205-3.707-7.205-8.279v-98.153
			c0-4.573,3.227-8.28,7.205-8.28h9.305c3.979,0,7.204,3.707,7.204,8.28V208.802z"/>
		<g>
			<path fill="#FFFFFF" d="M401.407,162.637c4.673,0,9.346,0,14.021,0c3.268,0,3.268-5.825,0-5.825c-4.676,0-9.349,0-14.021,0
				C398.138,156.812,398.138,162.637,401.407,162.637L401.407,162.637z"/>
		</g>
	</g>
</g>
</svg>
